<?xml version="1.0" encoding="UTF-8" standalone="no"?>
<svg
   width="397"
   height="192"
   viewBox="0 0 397 192"
   fill="none"
   version="1.1"
   id="svg1"
   sodipodi:docname="Certificates_ballet_traced.svg"
   inkscape:version="1.4.4 (dcaf3e7, 2026-05-05)"
   xmlns:inkscape="http://www.inkscape.org/namespaces/inkscape"
   xmlns:sodipodi="http://sodipodi.sourceforge.net/DTD/sodipodi-0.dtd"
   xmlns="http://www.w3.org/2000/svg"
   xmlns:svg="http://www.w3.org/2000/svg">
  <defs
     id="defs1" />
  <sodipodi:namedview
     id="namedview1"
     pagecolor="#ffffff"
     bordercolor="#000000"
     borderopacity="0.25"
     inkscape:showpageshadow="2"
     inkscape:pageopacity="0.0"
     inkscape:pagecheckerboard="0"
     inkscape:deskcolor="#d1d1d1"
     inkscape:zoom="12.536414"
     inkscape:cx="334.78473"
     inkscape:cy="78.371694"
     inkscape:window-width="1920"
     inkscape:window-height="1111"
     inkscape:window-x="-9"
     inkscape:window-y="-9"
     inkscape:window-maximized="1"
     inkscape:current-layer="layer1" />
  <path
     d="m 79.744,120.576 c -6.144,0 -11.264,-1.024 -15.36,-3.072 -4.0107,-1.963 -7.2533,-4.608 -9.728,-7.936 -2.3893,-3.328 -4.096,-7.04 -5.12,-11.136 C 48.512,94.2507 48,89.984 48,85.632 48,78.2933 49.408,71.0827 52.224,64 55.04,56.9173 58.88,50.2187 63.744,43.904 68.608,37.504 74.1547,31.6587 80.384,26.368 86.6133,20.992 93.1413,16.3413 99.968,12.416 106.795,8.49066 113.579,5.46133 120.32,3.328 127.061,1.10933 133.376,-1.90735e-6 139.264,-1.90735e-6 c 3.072,0 6.016,0.59733290735 8.832,1.79200190735 2.816,1.10933 5.12,2.98667 6.912,5.632 1.792,2.56 2.688,6.016 2.688,10.368 0,5.376 -1.067,10.88 -3.2,16.512 -2.048,5.632 -4.864,11.136 -8.448,16.512 -3.584,5.376 -7.637,10.4533 -12.16,15.232 -4.437,4.6933 -9.045,8.832 -13.824,12.416 -4.779,3.584 -9.429,6.4 -13.952,8.448 -4.437,2.048 -8.4907,3.072 -12.16,3.072 -3.072,0 -5.76,-1.152 -8.064,-3.456 -2.304,-2.304 -3.456,-5.76 -3.456,-10.368 0,-3.9253 0.8107,-8.0213 2.432,-12.288 1.6213,-4.2667 3.7973,-8.4907 6.528,-12.672 2.7307,-4.1813 5.76,-8.1067 9.088,-11.776 3.413,-3.6693 6.827,-6.9547 10.24,-9.856 3.499,-2.9013 6.784,-5.1627 9.856,-6.784 3.072,-1.6213 5.675,-2.432 7.808,-2.432 2.133,0 3.797,0.5547 4.992,1.664 1.28,1.1093 1.92,2.6453 1.92,4.608 0,3.584 -1.28,7.5093 -3.84,11.776 -2.56,4.2667 -6.101,8.6187 -10.624,13.056 -4.523,4.352 -9.813,8.5333 -15.872,12.544 -5.9733,4.0107 -12.4587,7.5947 -19.456,10.752 -6.912,3.1573 -14.0373,5.6747 -21.376,7.552 -7.3387,1.8773 -14.6347,2.816 -21.888,2.816 -5.7173,0 -11.136,-0.64 -16.256,-1.92 -5.12,-1.28 -9.6,-3.1147 -13.44,-5.504 C 8.61868,75.3067 5.54668,72.4907 3.32801,69.248 1.10934,65.92 9.53674e-6,62.2507 9.53674e-6,58.24 9.53674e-6,52.864 1.53601,48 4.60801,43.648 7.59468,39.2107 11.8613,35.4133 17.408,32.256 22.9547,29.0987 29.44,26.6667 36.864,24.96 44.3733,23.2533 52.5227,22.4 61.312,22.4 c 9.5573,0 18.816,1.1947 27.776,3.584 8.96,2.3893 17.28,5.6747 24.96,9.856 7.765,4.096 14.507,8.7893 20.224,14.08 l -0.512,0.768 c -5.717,-5.2907 -12.416,-9.984 -20.096,-14.08 -7.68,-4.096 -15.9573,-7.3387 -24.832,-9.728 -8.8747,-2.3893 -18.048,-3.584 -27.52,-3.584 -8.3627,0 -16.2133,0.8533 -23.552,2.56 -7.2533,1.6213 -13.6533,3.968 -19.2,7.04 -5.5467,3.072 -9.85599,6.784 -12.92799,11.136 -3.15733,4.2667 -4.736001,9.0453 -4.736001,14.336 0,5.2053 1.920001,9.7707 5.760001,13.696 3.75469,3.84 8.78929,6.8267 15.10399,8.96 6.3147,2.1333 13.2267,3.2 20.736,3.2 6.9973,0 14.1227,-0.896 21.376,-2.688 7.2533,-1.8773 14.2933,-4.352 21.12,-7.424 6.912,-3.1573 13.312,-6.6987 19.2,-10.624 5.973,-4.0107 11.221,-8.1493 15.744,-12.416 4.523,-4.352 8.064,-8.6187 10.624,-12.8 2.56,-4.1813 3.84,-8.064 3.84,-11.648 0,-1.536 -0.512,-2.816 -1.536,-3.84 -0.939,-1.1093 -2.389,-1.664 -4.352,-1.664 -2.048,0 -4.565,0.8107 -7.552,2.432 -2.987,1.6213 -6.187,3.84 -9.6,6.656 -3.413,2.7307 -6.784,5.9307 -10.112,9.6 -3.328,3.584 -6.3573,7.424 -9.088,11.52 -2.7307,4.096 -4.9067,8.192 -6.528,12.288 -1.6213,4.096 -2.432,8.064 -2.432,11.904 0,4.608 1.0667,8.0213 3.2,10.24 2.1333,2.2187 4.6507,3.328 7.552,3.328 3.584,0 7.595,-1.024 12.032,-3.072 4.523,-2.048 9.131,-4.864 13.824,-8.448 4.693,-3.584 9.216,-7.68 13.568,-12.288 4.437,-4.6933 8.405,-9.6853 11.904,-14.976 3.584,-5.376 6.4,-10.8373 8.448,-16.384 2.048,-5.5467 3.072,-10.9227 3.072,-16.128 0,-4.1813 -0.811,-7.4667 -2.432,-9.856 -1.536,-2.38934 -3.584,-4.096 -6.144,-5.12 -2.475,-1.024 -5.163,-1.536 -8.064,-1.536 -4.864,0 -10.325,1.23733 -16.384,3.71199 -6.059,2.47468 -12.331,5.93071 -18.816,10.36801 -6.4,4.352 -12.6293,9.472 -18.688,15.36 -5.9733,5.8027 -11.392,12.1173 -16.256,18.944 -4.7787,6.7413 -8.6187,13.7387 -11.52,20.992 -2.816,7.2533 -4.224,14.5067 -4.224,21.76 0,5.376 0.8533,10.112 2.56,14.208 1.7067,4.096 4.4373,7.296 8.192,9.6 3.7547,2.304 8.6613,3.456 14.72,3.456 4.2667,0 8.9173,-0.811 13.952,-2.432 5.0347,-1.621 10.155,-3.925 15.36,-6.912 5.291,-2.901 10.453,-6.357 15.488,-10.368 5.12,-4.096 9.813,-8.5333 14.08,-13.312 l 1.024,-1.152 h 1.024 l -1.024,1.152 c -4.437,4.9493 -9.216,9.5147 -14.336,13.696 -5.12,4.096 -10.368,7.637 -15.744,10.624 -5.291,3.072 -10.496,5.419 -15.616,7.04 -5.12,1.707 -9.856,2.56 -14.208,2.56 z M 140.629,102.4 c 2.133,0 4.651,-0.683 7.552,-2.048 2.901,-1.3653 5.888,-3.2 8.96,-5.504 3.072,-2.3893 5.931,-5.0773 8.576,-8.064 l 1.152,-1.28 h 1.024 l -0.896,1.024 c -2.731,3.072 -5.717,5.888 -8.96,8.448 -3.243,2.4747 -6.4,4.4373 -9.472,5.888 -3.072,1.451 -5.717,2.176 -7.936,2.176 -1.707,0 -3.072,-0.597 -4.096,-1.792 -1.024,-1.195 -1.536,-2.8587 -1.536,-4.992 0,-2.1333 0.64,-4.352 1.92,-6.656 1.195,-2.304 2.816,-4.5227 4.864,-6.656 2.133,-2.2187 4.48,-4.1813 7.04,-5.888 2.56,-1.792 5.205,-3.2 7.936,-4.224 2.731,-1.1093 5.333,-1.664 7.808,-1.664 1.109,0 2.005,0.256 2.688,0.768 0.683,0.4267 1.024,0.9813 1.024,1.664 0,1.3653 -0.768,2.816 -2.304,4.352 -1.536,1.4507 -3.541,2.8587 -6.016,4.224 -2.389,1.28 -4.992,2.3467 -7.808,3.2 -2.731,0.8533 -5.333,1.28 -7.808,1.28 l 0.896,-0.896 c 2.304,-0.0853 4.736,-0.512 7.296,-1.28 2.56,-0.8533 4.907,-1.8773 7.04,-3.072 2.219,-1.28 4.011,-2.6027 5.376,-3.968 1.365,-1.3653 2.048,-2.6453 2.048,-3.84 0,-1.024 -0.683,-1.536 -2.048,-1.536 -1.621,0 -3.584,0.6827 -5.888,2.048 -2.304,1.3653 -4.736,3.1573 -7.296,5.376 -2.475,2.1333 -4.779,4.48 -6.912,7.04 -2.133,2.4747 -3.883,4.9067 -5.248,7.296 -1.365,2.304 -2.048,4.2667 -2.048,5.888 0,1.792 1.024,2.688 3.072,2.688 z m 27.25,-16.896 h -1.024 l 1.152,-1.28 c 6.059,-6.656 10.923,-12.1173 14.592,-16.384 3.755,-4.2667 6.229,-7.2533 7.424,-8.96 h 4.224 c -2.645,1.9627 -5.931,4.9067 -9.856,8.832 -3.84,3.84 -8.917,9.3013 -15.232,16.384 z m 2.56,16.896 c 1.365,0 3.243,-0.725 5.632,-2.176 2.475,-1.4507 5.12,-3.3707 7.936,-5.76 2.816,-2.3893 5.461,-4.9493 7.936,-7.68 l 1.152,-1.28 h 1.024 l -0.896,1.024 c -2.731,3.072 -5.589,5.8453 -8.576,8.32 -2.901,2.4747 -5.632,4.48 -8.192,6.016 -2.56,1.451 -4.608,2.176 -6.144,2.176 -0.853,0 -1.707,-0.299 -2.56,-0.896 -0.853,-0.512 -1.28,-1.408 -1.28,-2.688 0,-1.6213 0.64,-3.3707 1.92,-5.248 1.365,-1.9627 3.029,-3.9253 4.992,-5.888 1.963,-1.9627 3.925,-3.84 5.888,-5.632 1.963,-1.8773 3.584,-3.584 4.864,-5.12 1.365,-1.536 2.048,-2.8587 2.048,-3.968 0,-1.1947 -0.683,-1.792 -2.048,-1.792 -0.683,0 -1.493,0.128 -2.432,0.384 -0.853,0.1707 -1.792,0.4693 -2.816,0.896 l 0.768,-1.024 c 0.853,-0.4267 1.664,-0.7253 2.432,-0.896 0.853,-0.256 1.749,-0.384 2.688,-0.384 1.621,0 2.944,0.3413 3.968,1.024 1.024,0.6827 1.536,1.7493 1.536,3.2 0,1.8773 -0.768,3.7547 -2.304,5.632 -1.451,1.792 -3.285,3.584 -5.504,5.376 -2.133,1.7067 -4.309,3.4133 -6.528,5.12 -2.133,1.6213 -3.968,3.2427 -5.504,4.864 -1.451,1.536 -2.176,3.0293 -2.176,4.48 0,1.28 0.725,1.92 2.176,1.92 z m 27.786,-38.912 v -0.896 h 50.688 v 0.896 z m 0.512,20.48 c -3.84,4.2667 -6.528,7.6373 -8.064,10.112 -1.621,2.3893 -2.432,4.4373 -2.432,6.144 0,1.451 0.597,2.176 1.792,2.176 1.28,0 2.688,-0.469 4.224,-1.408 1.621,-1.024 3.584,-2.6453 5.888,-4.864 2.389,-2.304 5.333,-5.4187 8.832,-9.344 l 1.152,-1.28 h 1.024 l -0.896,1.024 c -5.291,5.9733 -9.515,10.24 -12.672,12.8 -3.072,2.475 -5.675,3.712 -7.808,3.712 -2.304,0 -3.456,-1.28 -3.456,-3.84 0,-4.0107 2.261,-8.576 6.784,-13.696 1.28,-1.6213 2.517,-3.1147 3.712,-4.48 1.195,-1.3653 2.517,-2.8587 3.968,-4.48 1.536,-1.7067 3.413,-3.7547 5.632,-6.144 2.304,-2.4747 5.163,-5.504 8.576,-9.088 3.413,-3.584 7.595,-8.0213 12.544,-13.312 1.109,0 2.389,-0.0853 3.84,-0.256 1.536,-0.256 2.987,-0.5547 4.352,-0.896 -2.133,1.536 -5.12,4.1387 -8.96,7.808 -3.84,3.6693 -8.192,8.064 -13.056,13.184 -4.864,5.0347 -9.856,10.4107 -14.976,16.128 z m 6.12,19.072 c -0.768,0 -1.408,-0.299 -1.92,-0.896 -0.597,-0.512 -0.896,-1.195 -0.896,-2.048 0,-2.4747 1.579,-5.888 4.736,-10.24 3.072,-4.4373 8.107,-10.2827 15.104,-17.536 h 7.68 c -0.853,0.4267 -1.877,1.1093 -3.072,2.048 -1.195,0.9387 -2.56,2.1333 -4.096,3.584 -4.693,4.5227 -8.448,8.2773 -11.264,11.264 -2.731,2.9013 -4.693,5.248 -5.888,7.04 -1.195,1.7067 -1.792,3.1147 -1.792,4.224 0,1.28 0.512,1.92 1.536,1.92 1.195,0 2.901,-0.683 5.12,-2.048 2.133,-1.4507 4.523,-3.3707 7.168,-5.76 2.731,-2.3893 5.333,-4.992 7.808,-7.808 l 1.152,-1.28 h 1.024 l -0.896,1.024 c -2.816,3.1573 -5.632,6.016 -8.448,8.576 -2.816,2.4747 -5.376,4.4373 -7.68,5.888 -2.219,1.365 -4.011,2.048 -5.376,2.048 z m 43.008,-57.216 c 0.768,0 1.152,0.2987 1.152,0.896 0,0.8533 -0.597,1.92 -1.792,3.2 -1.109,1.28 -2.432,2.432 -3.968,3.456 -1.536,0.9387 -2.859,1.408 -3.968,1.408 -0.683,0 -1.024,-0.2987 -1.024,-0.896 0,-0.8533 0.555,-1.92 1.664,-3.2 1.195,-1.28 2.56,-2.3893 4.096,-3.328 1.536,-1.024 2.816,-1.536 3.84,-1.536 z M 98.102,192 c -6.8267,0 -12.7573,-0.981 -17.792,-2.944 -5.0347,-1.877 -8.8747,-4.565 -11.52,-8.064 -2.7307,-3.413 -4.096,-7.381 -4.096,-11.904 0,-4.352 1.3653,-7.936 4.096,-10.752 2.7307,-2.731 6.2293,-4.096 10.496,-4.096 l 0.128,0.768 c -4.096,0 -7.424,1.28 -9.984,3.84 -2.6453,2.645 -3.968,6.059 -3.968,10.24 0,4.181 1.2373,7.893 3.712,11.136 2.3893,3.243 5.76,5.76 10.112,7.552 4.352,1.792 9.344,2.688 14.976,2.688 7.936,0 15.872,-1.365 23.808,-4.096 7.936,-2.731 15.829,-6.528 23.68,-11.392 7.765,-4.864 15.403,-10.581 22.912,-17.152 7.424,-6.571 14.677,-13.696 21.76,-21.376 6.997,-7.68 13.739,-15.701 20.224,-24.064 6.485,-8.277 12.587,-16.5973 18.304,-24.96 4.267,-6.3147 8.235,-11.9467 11.904,-16.896 3.669,-4.9493 7.211,-9.5147 10.624,-13.696 4.096,-5.0347 8.448,-9.8987 13.056,-14.592 4.608,-4.7787 9.216,-9.1733 13.824,-13.184 4.608,-4.096 9.003,-7.68 13.184,-10.752 4.267,-3.072 8.064,-5.4613 11.392,-7.168 3.413,-1.70667 6.187,-2.56 8.32,-2.56 2.048,0 3.072,1.10933 3.072,3.328 0,1.8773 -0.896,4.096 -2.688,6.656 -1.707,2.4747 -4.139,5.2053 -7.296,8.192 -2.219,2.048 -5.035,4.4373 -8.448,7.168 -3.328,2.6453 -6.997,5.4613 -11.008,8.448 -4.011,2.9013 -8.107,5.76 -12.288,8.576 -4.096,2.816 -8.021,5.4613 -11.776,7.936 -3.755,2.3893 -7.083,4.4373 -9.984,6.144 -2.901,1.6213 -5.12,2.7307 -6.656,3.328 l -0.256,-0.64 c 2.645,-1.1947 5.803,-2.944 9.472,-5.248 3.755,-2.3893 7.765,-5.0773 12.032,-8.064 4.267,-2.9867 8.533,-6.1013 12.8,-9.344 4.352,-3.328 8.491,-6.5707 12.416,-9.728 3.925,-3.2427 7.381,-6.2293 10.368,-8.96 3.072,-2.7307 5.419,-4.992 7.04,-6.784 1.707,-1.8773 2.901,-3.6267 3.584,-5.248 0.768,-1.6213 1.152,-2.7307 1.152,-3.328 0,-1.10933 -0.64,-1.664 -1.92,-1.664 -1.963,0 -4.693,0.9813 -8.192,2.944 -3.413,1.8773 -7.253,4.48 -11.52,7.808 -4.267,3.328 -8.747,7.168 -13.44,11.52 -4.608,4.352 -9.131,8.96 -13.568,13.824 -4.437,4.864 -8.533,9.7707 -12.288,14.72 -7.253,9.5573 -12.757,16.8533 -16.512,21.888 -3.755,5.0347 -6.229,8.4907 -7.424,10.368 -7.253,11.093 -14.635,21.632 -22.144,31.616 -7.595,9.984 -15.403,19.115 -23.424,27.392 -8.021,8.277 -16.299,15.445 -24.832,21.504 -8.533,6.059 -17.408,10.752 -26.624,14.08 -9.216,3.328 -18.816,4.992 -28.8,4.992 z m 139.392,-88.96 c -0.768,0 -1.451,-0.299 -2.048,-0.896 -0.512,-0.512 -0.768,-1.195 -0.768,-2.048 0,-2.4747 1.493,-5.8027 4.48,-9.984 2.987,-4.2667 7.808,-9.8987 14.464,-16.896 h -23.424 l 0.384,-0.896 h 31.616 c -0.853,0.4267 -1.877,1.1093 -3.072,2.048 -1.195,0.9387 -2.56,2.1333 -4.096,3.584 -4.693,4.5227 -8.448,8.2773 -11.264,11.264 -2.731,2.9013 -4.693,5.248 -5.888,7.04 -1.195,1.7067 -1.792,3.1147 -1.792,4.224 0,1.28 0.512,1.92 1.536,1.92 1.195,0 2.859,-0.683 4.992,-2.048 2.219,-1.4507 4.651,-3.3707 7.296,-5.76 2.731,-2.3893 5.333,-4.992 7.808,-7.808 l 1.152,-1.28 h 1.024 l -0.896,1.024 c -2.816,3.1573 -5.632,6.016 -8.448,8.576 -2.816,2.4747 -5.376,4.4373 -7.68,5.888 -2.219,1.365 -4.011,2.048 -5.376,2.048 z m 34.432,-48.256 c -0.683,0 -1.024,-0.2987 -1.024,-0.896 0,-0.6827 0.341,-1.4507 1.024,-2.304 0.683,-0.9387 1.536,-1.8347 2.56,-2.688 1.109,-0.8533 2.176,-1.5787 3.2,-2.176 1.109,-0.5973 2.048,-0.896 2.816,-0.896 0.768,0 1.152,0.2987 1.152,0.896 0,0.8533 -0.597,1.92 -1.792,3.2 -1.109,1.28 -2.432,2.432 -3.968,3.456 -1.536,0.9387 -2.859,1.408 -3.968,1.408 z m -11.919,48.256 c -1.621,0 -2.944,-0.64 -3.968,-1.92 -1.024,-1.3653 -1.536,-3.072 -1.536,-5.12 0,-2.1333 0.64,-4.3093 1.92,-6.528 1.195,-2.304 2.816,-4.5227 4.864,-6.656 2.048,-2.2187 4.352,-4.1813 6.912,-5.888 2.56,-1.792 5.205,-3.2 7.936,-4.224 2.731,-1.024 5.333,-1.536 7.808,-1.536 3.243,0 4.864,0.9813 4.864,2.944 0,1.1093 -0.597,2.4747 -1.792,4.096 -1.109,1.6213 -2.432,2.9867 -3.968,4.096 h -4.48 c 1.28,-0.5973 2.603,-1.4507 3.968,-2.56 1.365,-1.1093 2.517,-2.2187 3.456,-3.328 0.939,-1.1947 1.408,-2.1333 1.408,-2.816 0,-1.1093 -0.896,-1.664 -2.688,-1.664 -1.707,0 -3.755,0.6827 -6.144,2.048 -2.389,1.3653 -4.864,3.1573 -7.424,5.376 -2.475,2.1333 -4.821,4.48 -7.04,7.04 -2.133,2.4747 -3.883,4.9067 -5.248,7.296 -1.365,2.304 -2.048,4.3093 -2.048,6.016 0,1.792 1.152,2.688 3.456,2.688 2.389,0 5.12,-0.683 8.192,-2.048 3.157,-1.3653 6.315,-3.2427 9.472,-5.632 3.157,-2.3893 6.059,-5.0347 8.704,-7.936 l 1.152,-1.28 h 1.024 l -0.896,1.024 c -2.816,3.2427 -5.888,6.1013 -9.216,8.576 -3.328,2.4747 -6.613,4.4373 -9.856,5.888 -3.157,1.365 -6.101,2.048 -8.832,2.048 z m 25.419,-0.256 c -2.133,0 -3.2,-1.664 -3.2,-4.992 0,-2.2187 0.683,-4.5653 2.048,-7.04 1.28,-2.4747 3.029,-4.864 5.248,-7.168 2.219,-2.3893 4.693,-4.5227 7.424,-6.4 2.731,-1.9627 5.547,-3.4987 8.448,-4.608 2.987,-1.1093 5.803,-1.664 8.448,-1.664 2.219,0 3.328,0.8533 3.328,2.56 0,1.6213 -1.024,3.6693 -3.072,6.144 -2.048,2.3893 -4.608,5.2053 -7.68,8.448 -2.389,2.4747 -4.949,4.864 -7.68,7.168 -2.645,2.2187 -5.163,4.0533 -7.552,5.504 -2.304,1.365 -4.224,2.048 -5.76,2.048 z m 0.128,-0.64 c 1.28,0 2.987,-0.597 5.12,-1.792 2.133,-1.28 4.523,-3.0293 7.168,-5.248 2.645,-2.2187 5.333,-4.736 8.064,-7.552 3.072,-3.2427 5.547,-6.016 7.424,-8.32 1.963,-2.304 2.944,-4.1813 2.944,-5.632 0,-1.1093 -0.725,-1.664 -2.176,-1.664 -1.28,0 -2.944,0.512 -4.992,1.536 -1.963,1.024 -4.096,2.432 -6.4,4.224 -2.304,1.7067 -4.565,3.6267 -6.784,5.76 -2.219,2.1333 -4.267,4.2667 -6.144,6.4 -1.792,2.1333 -3.243,4.1387 -4.352,6.016 -1.109,1.8773 -1.664,3.456 -1.664,4.736 0,1.024 0.597,1.536 1.792,1.536 z m 40.064,-16.64 -0.896,1.024 c -2.731,3.072 -5.504,5.888 -8.32,8.448 -2.731,2.4747 -5.291,4.4373 -7.68,5.888 -2.304,1.451 -4.139,2.176 -5.504,2.176 -0.768,0 -1.451,-0.299 -2.048,-0.896 -0.512,-0.512 -0.768,-1.195 -0.768,-2.048 0,-2.2187 1.195,-5.2053 3.584,-8.96 2.475,-3.7547 5.888,-7.8507 10.24,-12.288 h 0.512 l 5.888,-6.528 h 7.552 c -1.109,0.6827 -2.304,1.536 -3.584,2.56 -1.28,0.9387 -2.475,1.9627 -3.584,3.072 -4.864,4.864 -8.704,8.7467 -11.52,11.648 -2.816,2.9013 -4.821,5.1627 -6.016,6.784 -1.109,1.6213 -1.664,2.9867 -1.664,4.096 0,1.28 0.512,1.92 1.536,1.92 1.195,0 2.816,-0.64 4.864,-1.92 2.133,-1.3653 4.523,-3.2427 7.168,-5.632 2.645,-2.3893 5.333,-5.0773 8.064,-8.064 l 1.152,-1.28 z m 4.107,-22.016 v -0.896 h 50.688 v 0.896 z m 0.512,20.48 c -3.84,4.2667 -6.528,7.6373 -8.064,10.112 -1.621,2.3893 -2.432,4.4373 -2.432,6.144 0,1.451 0.597,2.176 1.792,2.176 1.28,0 2.688,-0.469 4.224,-1.408 1.621,-1.024 3.584,-2.6453 5.888,-4.864 2.389,-2.304 5.333,-5.4187 8.832,-9.344 l 1.152,-1.28 h 1.024 l -0.896,1.024 c -5.291,5.9733 -9.515,10.24 -12.672,12.8 -3.072,2.475 -5.675,3.712 -7.808,3.712 -2.304,0 -3.456,-1.28 -3.456,-3.84 0,-4.0107 2.261,-8.576 6.784,-13.696 1.28,-1.6213 2.517,-3.1147 3.712,-4.48 1.195,-1.3653 2.517,-2.8587 3.968,-4.48 1.536,-1.7067 3.413,-3.7547 5.632,-6.144 2.304,-2.4747 5.163,-5.504 8.576,-9.088 3.413,-3.584 7.595,-8.0213 12.544,-13.312 1.109,0 2.389,-0.0853 3.84,-0.256 1.536,-0.256 2.987,-0.5547 4.352,-0.896 -2.133,1.536 -5.12,4.1387 -8.96,7.808 -3.84,3.6693 -8.192,8.064 -13.056,13.184 -4.864,5.0347 -9.856,10.4107 -14.976,16.128 z m 12.392,18.432 c 2.133,0 4.651,-0.683 7.552,-2.048 2.901,-1.3653 5.888,-3.2 8.96,-5.504 3.072,-2.3893 5.931,-5.0773 8.576,-8.064 l 1.152,-1.28 h 1.024 l -0.896,1.024 c -2.731,3.072 -5.717,5.888 -8.96,8.448 -3.243,2.4747 -6.4,4.4373 -9.472,5.888 -3.072,1.451 -5.717,2.176 -7.936,2.176 -1.707,0 -3.072,-0.597 -4.096,-1.792 -1.024,-1.195 -1.536,-2.8587 -1.536,-4.992 0,-2.1333 0.64,-4.352 1.92,-6.656 1.195,-2.304 2.816,-4.5227 4.864,-6.656 2.133,-2.2187 4.48,-4.1813 7.04,-5.888 2.56,-1.792 5.205,-3.2 7.936,-4.224 2.731,-1.1093 5.333,-1.664 7.808,-1.664 1.109,0 2.005,0.256 2.688,0.768 0.683,0.4267 1.024,0.9813 1.024,1.664 0,1.3653 -0.768,2.816 -2.304,4.352 -1.536,1.4507 -3.541,2.8587 -6.016,4.224 -2.389,1.28 -4.992,2.3467 -7.808,3.2 -2.731,0.8533 -5.333,1.28 -7.808,1.28 l 0.896,-0.896 c 2.304,-0.0853 4.736,-0.512 7.296,-1.28 2.56,-0.8533 4.907,-1.8773 7.04,-3.072 2.219,-1.28 4.011,-2.6027 5.376,-3.968 1.365,-1.3653 2.048,-2.6453 2.048,-3.84 0,-1.024 -0.683,-1.536 -2.048,-1.536 -1.621,0 -3.584,0.6827 -5.888,2.048 -2.304,1.3653 -4.736,3.1573 -7.296,5.376 -2.475,2.1333 -4.779,4.48 -6.912,7.04 -2.133,2.4747 -3.883,4.9067 -5.248,7.296 -1.365,2.304 -2.048,4.2667 -2.048,5.888 0,1.792 1.024,2.688 3.072,2.688 z m 27.25,-16.896 h -1.024 l 1.152,-1.28 c 6.059,-6.656 10.923,-12.1173 14.592,-16.384 3.755,-4.2667 6.229,-7.2533 7.424,-8.96 h 4.224 c -2.645,1.9627 -5.931,4.9067 -9.856,8.832 -3.84,3.9253 -8.917,9.3867 -15.232,16.384 z m 24.32,1.024 c -3.584,4.096 -7.339,7.2107 -11.264,9.344 -3.84,2.1333 -7.637,3.2 -11.392,3.2 -2.816,0 -5.163,0.256 -7.04,0.768 -1.963,0.512 -2.944,1.152 -2.944,1.92 0,0.427 0.384,0.64 1.152,0.64 2.645,0 5.205,-0.725 7.68,-2.176 2.56,-1.4507 4.864,-3.3707 6.912,-5.76 2.048,-2.3893 3.669,-5.0773 4.864,-8.064 1.195,-3.072 1.792,-6.1867 1.792,-9.344 0,-1.8773 0.128,-3.5413 0.384,-4.992 0.341,-1.4507 0.981,-2.944 1.92,-4.48 0.939,-1.6213 2.432,-3.4987 4.48,-5.632 l 5.376,-3.072 c -2.304,1.792 -4.139,3.2853 -5.504,4.48 -1.28,1.1093 -2.176,2.1333 -2.688,3.072 -0.512,0.8533 -0.768,1.792 -0.768,2.816 0,1.1093 0.171,2.6453 0.512,4.608 0.427,1.8773 0.64,3.7973 0.64,5.76 0,2.9013 -0.725,5.76 -2.176,8.576 -1.451,2.7307 -3.413,5.248 -5.888,7.552 -2.475,2.2187 -5.205,4.0107 -8.192,5.376 -2.987,1.28 -6.016,1.92 -9.088,1.92 -1.365,0 -2.048,-0.427 -2.048,-1.28 0,-0.939 1.024,-1.707 3.072,-2.304 2.048,-0.6827 4.523,-1.024 7.424,-1.024 7.253,0 14.421,-3.8827 21.504,-11.648 l 1.152,-1.28 h 1.024 z"
     fill="#000000"
     id="path1"
     sodipodi:insensitive="true" />
  <g
     inkscape:groupmode="layer"
     id="layer1"
     inkscape:label="Trace">
    <path
       style="fill:none"
       d="m 134.07286,50.227967 c 0,0 -31.16363,-31.274902 -83.859138,-26.875994 C -2.4817861,27.750881 -19.177438,71.520564 27.186839,83.027027 73.551116,94.53349 122.39718,52.230317 129.50411,41.06228 l 3.42864,-6.044291 1.79477,-5.623618 0.11965,-3.86873 -0.99709,-2.552564 -2.03408,-1.555469 -4.14791,-0.757792 -4.26757,1.276282 c 0,0 -13.01744,5.871188 -24.636713,20.197862 -11.619271,14.326675 -14.688728,22.637354 -15.566171,30.374813 -0.877444,7.73746 1.036979,20.580048 16.830964,16.033294 15.794,-4.546755 39.96359,-24.488662 52.32757,-49.535697 12.36398,-25.047035 4.67321,-56.942915 -48.45958,-24.792504 -53.132783,32.150411 -66.895415,88.893064 -39.144534,102.204464 27.750882,13.3114 60.690954,-15.56757 71.971794,-26.961221 11.28085,-11.393654 7.78379,-3.497062 7.78379,-3.497062 l 3.44066,0.0564 7.21974,-2.030552 4.96357,-2.368978 4.45593,-3.045828 c 0,0 8.96828,-9.588719 -4.45593,-5.922444 -13.42421,3.666275 -27.13043,21.941245 -22.84371,28.202115 4.28672,6.26087 20.64395,-5.527615 23.80258,-8.855464 3.15864,-3.32785 30.40188,-33.109283 30.40188,-33.109283 L 179.36545,72.53584 c 0,0 14.89072,-5.640423 4.96357,8.235018 -9.92714,13.875441 -19.74148,13.762632 -16.0188,21.207992 3.72268,7.44536 40.15982,-28.540542 62.49589,-53.696829"
       id="path2" />
    <path
       style="fill:none"
       d="m 195.55347,85.001175 c -4.45594,3.722679 -12.40893,17.598125 -5.75323,17.598125 6.65569,0 14.27027,-10.660404 34.01175,-30.06346"
       id="path3" />
    <path
       style="fill:none"
       d="m 210.27497,87.313749 c -3.10223,2.650998 -10.43478,13.762631 -5.75323,15.454761 4.68155,1.69212 27.86369,-20.023504 35.64747,-34.519391"
       id="path4" />
    <path
       style="fill:none"
       d="m 240.65893,67.962019 c 12.52352,-4.865826 73.94459,-48.658253 68.60016,-57.911298 -5.34443,-9.25304472 -49.21662,30.790304 -61.3413,48.020112 -12.12468,17.229807 -55.1992,78.172277 -68.44063,87.425317 -13.24142,9.25305 -11.16747,21.21819 -50.89174,37.96939 -39.724283,16.75121 -60.942472,3.03117 -63.01643,-9.89118 -2.073959,-12.92236 5.274723,-18.57553 13.791762,-19.25239"
       id="path5" />
    <path
       style="fill:none"
       d="m 230.92728,72.508773 c 2.79187,0.07977 27.20076,0.159536 27.20076,0.159536 0,0 -22.33493,19.862139 -22.57424,26.88169 -0.2393,7.019551 9.17328,-0.239303 4.9456,2.552561 -4.22769,2.79187 4.94559,-2.153723 16.5119,-13.480726 11.5663,-11.327003 25.6054,-19.862139 30.47123,-16.192828 4.86582,3.669311 -14.0391,15.155849 -5.6635,9.73165"
       id="path6" />
    <path
       style="fill:none"
       d="m 266.10481,80.645071 c -7.33863,7.577925 -13.72004,20.978889 -7.25886,21.936099 6.46118,0.95721 14.67724,-2.871636 28.79611,-15.474921 14.11888,-12.603285 33.0238,-21.537259 28.23775,-10.848397"
       id="path7" />
    <path
       style="fill:none"
       d="m 322.81959,72.349238 c 0,0 -30.3117,28.556812 -19.70261,30.311702 10.6091,1.75488 55.99688,-57.432695 58.46968,-54.800363 2.47279,2.632331 -43.47336,41.798236 -42.67569,51.529887 0.79768,9.731646 15.15585,-4.38722 20.50029,-10.609095 5.34443,-6.221874 -0.71791,0.398839 15.71422,-3.988381 16.43213,-4.387219 22.49447,-22.255168 -1.67512,-7.338622 -24.16959,14.916547 -18.74539,33.263104 0.79767,21.058654 0,0 8.45537,-4.786058 18.82516,-16.990505 10.3698,-12.204447 20.58005,-22.654006 20.58005,-22.654006 0,0 -11.327,7.896995 -7.57792,19.064463 3.74908,11.167468 -11.32701,20.978886 -13.08189,21.776562 -1.75489,0.797676 -5.46346,2.607736 -7.88885,2.917966 -2.42538,0.31022 -6.90951,-0.50764 -1.21269,-2.792012 5.69683,-2.284372 8.48884,0.564042 15.48296,-2.650999 6.99413,-3.215041 12.29613,-7.755582 15.17274,-11.647474"
       id="path8" />
    <path
       style="fill:none"
       d="m 198.22255,62.936658 50.41315,0.07977"
       id="path9" />
    <path
       style="fill:none"
       d="m 240.89824,53.045472 6.46117,-5.902804"
       id="path10" />
    <path
       style="fill:none"
       d="m 272.96482,53.44431 7.33862,-6.70048"
       id="path11" />
    <path
       style="fill:none"
       d="m 329.75937,62.936658 50.57268,0.07977"
       id="path12" />
  </g>
</svg>
