<?xml version="1.0" encoding="UTF-8" standalone="no"?>
<svg
   width="397"
   height="192"
   viewBox="0 0 397 192"
   fill="none"
   version="1.1"
   id="svg1"
   sodipodi:docname="Certificates_ballet_thick_thin.svg"
   inkscape:version="1.4.4 (dcaf3e7, 2026-05-05)"
   xmlns:inkscape="http://www.inkscape.org/namespaces/inkscape"
   xmlns:sodipodi="http://sodipodi.sourceforge.net/DTD/sodipodi-0.dtd"
   xmlns="http://www.w3.org/2000/svg"
   xmlns:svg="http://www.w3.org/2000/svg">
  <defs
     id="defs1" />
  <sodipodi:namedview
     id="namedview1"
     pagecolor="#ffffff"
     bordercolor="#000000"
     borderopacity="0.25"
     inkscape:showpageshadow="2"
     inkscape:pageopacity="0.0"
     inkscape:pagecheckerboard="0"
     inkscape:deskcolor="#d1d1d1"
     showgrid="false"
     inkscape:zoom="14.105793"
     inkscape:cx="317.81268"
     inkscape:cy="78.230268"
     inkscape:window-width="1920"
     inkscape:window-height="1111"
     inkscape:window-x="-9"
     inkscape:window-y="-9"
     inkscape:window-maximized="1"
     inkscape:current-layer="layer2" />
  <path
     d="m 79.744,120.576 c -6.144,0 -11.264,-1.024 -15.36,-3.072 -4.0107,-1.963 -7.2533,-4.608 -9.728,-7.936 -2.3893,-3.328 -4.096,-7.04 -5.12,-11.136 C 48.512,94.2507 48,89.984 48,85.632 48,78.2933 49.408,71.0827 52.224,64 55.04,56.9173 58.88,50.2187 63.744,43.904 68.608,37.504 74.1547,31.6587 80.384,26.368 86.6133,20.992 93.1413,16.3413 99.968,12.416 106.795,8.49066 113.579,5.46133 120.32,3.328 127.061,1.10933 133.376,-1.90735e-6 139.264,-1.90735e-6 c 3.072,0 6.016,0.59733290735 8.832,1.79200190735 2.816,1.10933 5.12,2.98667 6.912,5.632 1.792,2.56 2.688,6.016 2.688,10.368 0,5.376 -1.067,10.88 -3.2,16.512 -2.048,5.632 -4.864,11.136 -8.448,16.512 -3.584,5.376 -7.637,10.4533 -12.16,15.232 -4.437,4.6933 -9.045,8.832 -13.824,12.416 -4.779,3.584 -9.429,6.4 -13.952,8.448 -4.437,2.048 -8.4907,3.072 -12.16,3.072 -3.072,0 -5.76,-1.152 -8.064,-3.456 -2.304,-2.304 -3.456,-5.76 -3.456,-10.368 0,-3.9253 0.8107,-8.0213 2.432,-12.288 1.6213,-4.2667 3.7973,-8.4907 6.528,-12.672 2.7307,-4.1813 5.76,-8.1067 9.088,-11.776 3.413,-3.6693 6.827,-6.9547 10.24,-9.856 3.499,-2.9013 6.784,-5.1627 9.856,-6.784 3.072,-1.6213 5.675,-2.432 7.808,-2.432 2.133,0 3.797,0.5547 4.992,1.664 1.28,1.1093 1.92,2.6453 1.92,4.608 0,3.584 -1.28,7.5093 -3.84,11.776 -2.56,4.2667 -6.101,8.6187 -10.624,13.056 -4.523,4.352 -9.813,8.5333 -15.872,12.544 -5.9733,4.0107 -12.4587,7.5947 -19.456,10.752 -6.912,3.1573 -14.0373,5.6747 -21.376,7.552 -7.3387,1.8773 -14.6347,2.816 -21.888,2.816 -5.7173,0 -11.136,-0.64 -16.256,-1.92 -5.12,-1.28 -9.6,-3.1147 -13.44,-5.504 C 8.61868,75.3067 5.54668,72.4907 3.32801,69.248 1.10934,65.92 9.53674e-6,62.2507 9.53674e-6,58.24 9.53674e-6,52.864 1.53601,48 4.60801,43.648 7.59468,39.2107 11.8613,35.4133 17.408,32.256 22.9547,29.0987 29.44,26.6667 36.864,24.96 44.3733,23.2533 52.5227,22.4 61.312,22.4 c 9.5573,0 18.816,1.1947 27.776,3.584 8.96,2.3893 17.28,5.6747 24.96,9.856 7.765,4.096 14.507,8.7893 20.224,14.08 l -0.512,0.768 c -5.717,-5.2907 -12.416,-9.984 -20.096,-14.08 -7.68,-4.096 -15.9573,-7.3387 -24.832,-9.728 -8.8747,-2.3893 -18.048,-3.584 -27.52,-3.584 -8.3627,0 -16.2133,0.8533 -23.552,2.56 -7.2533,1.6213 -13.6533,3.968 -19.2,7.04 -5.5467,3.072 -9.85599,6.784 -12.92799,11.136 -3.15733,4.2667 -4.736001,9.0453 -4.736001,14.336 0,5.2053 1.920001,9.7707 5.760001,13.696 3.75469,3.84 8.78929,6.8267 15.10399,8.96 6.3147,2.1333 13.2267,3.2 20.736,3.2 6.9973,0 14.1227,-0.896 21.376,-2.688 7.2533,-1.8773 14.2933,-4.352 21.12,-7.424 6.912,-3.1573 13.312,-6.6987 19.2,-10.624 5.973,-4.0107 11.221,-8.1493 15.744,-12.416 4.523,-4.352 8.064,-8.6187 10.624,-12.8 2.56,-4.1813 3.84,-8.064 3.84,-11.648 0,-1.536 -0.512,-2.816 -1.536,-3.84 -0.939,-1.1093 -2.389,-1.664 -4.352,-1.664 -2.048,0 -4.565,0.8107 -7.552,2.432 -2.987,1.6213 -6.187,3.84 -9.6,6.656 -3.413,2.7307 -6.784,5.9307 -10.112,9.6 -3.328,3.584 -6.3573,7.424 -9.088,11.52 -2.7307,4.096 -4.9067,8.192 -6.528,12.288 -1.6213,4.096 -2.432,8.064 -2.432,11.904 0,4.608 1.0667,8.0213 3.2,10.24 2.1333,2.2187 4.6507,3.328 7.552,3.328 3.584,0 7.595,-1.024 12.032,-3.072 4.523,-2.048 9.131,-4.864 13.824,-8.448 4.693,-3.584 9.216,-7.68 13.568,-12.288 4.437,-4.6933 8.405,-9.6853 11.904,-14.976 3.584,-5.376 6.4,-10.8373 8.448,-16.384 2.048,-5.5467 3.072,-10.9227 3.072,-16.128 0,-4.1813 -0.811,-7.4667 -2.432,-9.856 -1.536,-2.38934 -3.584,-4.096 -6.144,-5.12 -2.475,-1.024 -5.163,-1.536 -8.064,-1.536 -4.864,0 -10.325,1.23733 -16.384,3.71199 -6.059,2.47468 -12.331,5.93071 -18.816,10.36801 -6.4,4.352 -12.6293,9.472 -18.688,15.36 -5.9733,5.8027 -11.392,12.1173 -16.256,18.944 -4.7787,6.7413 -8.6187,13.7387 -11.52,20.992 -2.816,7.2533 -4.224,14.5067 -4.224,21.76 0,5.376 0.8533,10.112 2.56,14.208 1.7067,4.096 4.4373,7.296 8.192,9.6 3.7547,2.304 8.6613,3.456 14.72,3.456 4.2667,0 8.9173,-0.811 13.952,-2.432 5.0347,-1.621 10.155,-3.925 15.36,-6.912 5.291,-2.901 10.453,-6.357 15.488,-10.368 5.12,-4.096 9.813,-8.5333 14.08,-13.312 l 1.024,-1.152 h 1.024 l -1.024,1.152 c -4.437,4.9493 -9.216,9.5147 -14.336,13.696 -5.12,4.096 -10.368,7.637 -15.744,10.624 -5.291,3.072 -10.496,5.419 -15.616,7.04 -5.12,1.707 -9.856,2.56 -14.208,2.56 z M 140.629,102.4 c 2.133,0 4.651,-0.683 7.552,-2.048 2.901,-1.3653 5.888,-3.2 8.96,-5.504 3.072,-2.3893 5.931,-5.0773 8.576,-8.064 l 1.152,-1.28 h 1.024 l -0.896,1.024 c -2.731,3.072 -5.717,5.888 -8.96,8.448 -3.243,2.4747 -6.4,4.4373 -9.472,5.888 -3.072,1.451 -5.717,2.176 -7.936,2.176 -1.707,0 -3.072,-0.597 -4.096,-1.792 -1.024,-1.195 -1.536,-2.8587 -1.536,-4.992 0,-2.1333 0.64,-4.352 1.92,-6.656 1.195,-2.304 2.816,-4.5227 4.864,-6.656 2.133,-2.2187 4.48,-4.1813 7.04,-5.888 2.56,-1.792 5.205,-3.2 7.936,-4.224 2.731,-1.1093 5.333,-1.664 7.808,-1.664 1.109,0 2.005,0.256 2.688,0.768 0.683,0.4267 1.024,0.9813 1.024,1.664 0,1.3653 -0.768,2.816 -2.304,4.352 -1.536,1.4507 -3.541,2.8587 -6.016,4.224 -2.389,1.28 -4.992,2.3467 -7.808,3.2 -2.731,0.8533 -5.333,1.28 -7.808,1.28 l 0.896,-0.896 c 2.304,-0.0853 4.736,-0.512 7.296,-1.28 2.56,-0.8533 4.907,-1.8773 7.04,-3.072 2.219,-1.28 4.011,-2.6027 5.376,-3.968 1.365,-1.3653 2.048,-2.6453 2.048,-3.84 0,-1.024 -0.683,-1.536 -2.048,-1.536 -1.621,0 -3.584,0.6827 -5.888,2.048 -2.304,1.3653 -4.736,3.1573 -7.296,5.376 -2.475,2.1333 -4.779,4.48 -6.912,7.04 -2.133,2.4747 -3.883,4.9067 -5.248,7.296 -1.365,2.304 -2.048,4.2667 -2.048,5.888 0,1.792 1.024,2.688 3.072,2.688 z m 27.25,-16.896 h -1.024 l 1.152,-1.28 c 6.059,-6.656 10.923,-12.1173 14.592,-16.384 3.755,-4.2667 6.229,-7.2533 7.424,-8.96 h 4.224 c -2.645,1.9627 -5.931,4.9067 -9.856,8.832 -3.84,3.84 -8.917,9.3013 -15.232,16.384 z m 2.56,16.896 c 1.365,0 3.243,-0.725 5.632,-2.176 2.475,-1.4507 5.12,-3.3707 7.936,-5.76 2.816,-2.3893 5.461,-4.9493 7.936,-7.68 l 1.152,-1.28 h 1.024 l -0.896,1.024 c -2.731,3.072 -5.589,5.8453 -8.576,8.32 -2.901,2.4747 -5.632,4.48 -8.192,6.016 -2.56,1.451 -4.608,2.176 -6.144,2.176 -0.853,0 -1.707,-0.299 -2.56,-0.896 -0.853,-0.512 -1.28,-1.408 -1.28,-2.688 0,-1.6213 0.64,-3.3707 1.92,-5.248 1.365,-1.9627 3.029,-3.9253 4.992,-5.888 1.963,-1.9627 3.925,-3.84 5.888,-5.632 1.963,-1.8773 3.584,-3.584 4.864,-5.12 1.365,-1.536 2.048,-2.8587 2.048,-3.968 0,-1.1947 -0.683,-1.792 -2.048,-1.792 -0.683,0 -1.493,0.128 -2.432,0.384 -0.853,0.1707 -1.792,0.4693 -2.816,0.896 l 0.768,-1.024 c 0.853,-0.4267 1.664,-0.7253 2.432,-0.896 0.853,-0.256 1.749,-0.384 2.688,-0.384 1.621,0 2.944,0.3413 3.968,1.024 1.024,0.6827 1.536,1.7493 1.536,3.2 0,1.8773 -0.768,3.7547 -2.304,5.632 -1.451,1.792 -3.285,3.584 -5.504,5.376 -2.133,1.7067 -4.309,3.4133 -6.528,5.12 -2.133,1.6213 -3.968,3.2427 -5.504,4.864 -1.451,1.536 -2.176,3.0293 -2.176,4.48 0,1.28 0.725,1.92 2.176,1.92 z m 27.786,-38.912 v -0.896 h 50.688 v 0.896 z m 0.512,20.48 c -3.84,4.2667 -6.528,7.6373 -8.064,10.112 -1.621,2.3893 -2.432,4.4373 -2.432,6.144 0,1.451 0.597,2.176 1.792,2.176 1.28,0 2.688,-0.469 4.224,-1.408 1.621,-1.024 3.584,-2.6453 5.888,-4.864 2.389,-2.304 5.333,-5.4187 8.832,-9.344 l 1.152,-1.28 h 1.024 l -0.896,1.024 c -5.291,5.9733 -9.515,10.24 -12.672,12.8 -3.072,2.475 -5.675,3.712 -7.808,3.712 -2.304,0 -3.456,-1.28 -3.456,-3.84 0,-4.0107 2.261,-8.576 6.784,-13.696 1.28,-1.6213 2.517,-3.1147 3.712,-4.48 1.195,-1.3653 2.517,-2.8587 3.968,-4.48 1.536,-1.7067 3.413,-3.7547 5.632,-6.144 2.304,-2.4747 5.163,-5.504 8.576,-9.088 3.413,-3.584 7.595,-8.0213 12.544,-13.312 1.109,0 2.389,-0.0853 3.84,-0.256 1.536,-0.256 2.987,-0.5547 4.352,-0.896 -2.133,1.536 -5.12,4.1387 -8.96,7.808 -3.84,3.6693 -8.192,8.064 -13.056,13.184 -4.864,5.0347 -9.856,10.4107 -14.976,16.128 z m 6.12,19.072 c -0.768,0 -1.408,-0.299 -1.92,-0.896 -0.597,-0.512 -0.896,-1.195 -0.896,-2.048 0,-2.4747 1.579,-5.888 4.736,-10.24 3.072,-4.4373 8.107,-10.2827 15.104,-17.536 h 7.68 c -0.853,0.4267 -1.877,1.1093 -3.072,2.048 -1.195,0.9387 -2.56,2.1333 -4.096,3.584 -4.693,4.5227 -8.448,8.2773 -11.264,11.264 -2.731,2.9013 -4.693,5.248 -5.888,7.04 -1.195,1.7067 -1.792,3.1147 -1.792,4.224 0,1.28 0.512,1.92 1.536,1.92 1.195,0 2.901,-0.683 5.12,-2.048 2.133,-1.4507 4.523,-3.3707 7.168,-5.76 2.731,-2.3893 5.333,-4.992 7.808,-7.808 l 1.152,-1.28 h 1.024 l -0.896,1.024 c -2.816,3.1573 -5.632,6.016 -8.448,8.576 -2.816,2.4747 -5.376,4.4373 -7.68,5.888 -2.219,1.365 -4.011,2.048 -5.376,2.048 z m 43.008,-57.216 c 0.768,0 1.152,0.2987 1.152,0.896 0,0.8533 -0.597,1.92 -1.792,3.2 -1.109,1.28 -2.432,2.432 -3.968,3.456 -1.536,0.9387 -2.859,1.408 -3.968,1.408 -0.683,0 -1.024,-0.2987 -1.024,-0.896 0,-0.8533 0.555,-1.92 1.664,-3.2 1.195,-1.28 2.56,-2.3893 4.096,-3.328 1.536,-1.024 2.816,-1.536 3.84,-1.536 z M 98.102,192 c -6.8267,0 -12.7573,-0.981 -17.792,-2.944 -5.0347,-1.877 -8.8747,-4.565 -11.52,-8.064 -2.7307,-3.413 -4.096,-7.381 -4.096,-11.904 0,-4.352 1.3653,-7.936 4.096,-10.752 2.7307,-2.731 6.2293,-4.096 10.496,-4.096 l 0.128,0.768 c -4.096,0 -7.424,1.28 -9.984,3.84 -2.6453,2.645 -3.968,6.059 -3.968,10.24 0,4.181 1.2373,7.893 3.712,11.136 2.3893,3.243 5.76,5.76 10.112,7.552 4.352,1.792 9.344,2.688 14.976,2.688 7.936,0 15.872,-1.365 23.808,-4.096 7.936,-2.731 15.829,-6.528 23.68,-11.392 7.765,-4.864 15.403,-10.581 22.912,-17.152 7.424,-6.571 14.677,-13.696 21.76,-21.376 6.997,-7.68 13.739,-15.701 20.224,-24.064 6.485,-8.277 12.587,-16.5973 18.304,-24.96 4.267,-6.3147 8.235,-11.9467 11.904,-16.896 3.669,-4.9493 7.211,-9.5147 10.624,-13.696 4.096,-5.0347 8.448,-9.8987 13.056,-14.592 4.608,-4.7787 9.216,-9.1733 13.824,-13.184 4.608,-4.096 9.003,-7.68 13.184,-10.752 4.267,-3.072 8.064,-5.4613 11.392,-7.168 3.413,-1.70667 6.187,-2.56 8.32,-2.56 2.048,0 3.072,1.10933 3.072,3.328 0,1.8773 -0.896,4.096 -2.688,6.656 -1.707,2.4747 -4.139,5.2053 -7.296,8.192 -2.219,2.048 -5.035,4.4373 -8.448,7.168 -3.328,2.6453 -6.997,5.4613 -11.008,8.448 -4.011,2.9013 -8.107,5.76 -12.288,8.576 -4.096,2.816 -8.021,5.4613 -11.776,7.936 -3.755,2.3893 -7.083,4.4373 -9.984,6.144 -2.901,1.6213 -5.12,2.7307 -6.656,3.328 l -0.256,-0.64 c 2.645,-1.1947 5.803,-2.944 9.472,-5.248 3.755,-2.3893 7.765,-5.0773 12.032,-8.064 4.267,-2.9867 8.533,-6.1013 12.8,-9.344 4.352,-3.328 8.491,-6.5707 12.416,-9.728 3.925,-3.2427 7.381,-6.2293 10.368,-8.96 3.072,-2.7307 5.419,-4.992 7.04,-6.784 1.707,-1.8773 2.901,-3.6267 3.584,-5.248 0.768,-1.6213 1.152,-2.7307 1.152,-3.328 0,-1.10933 -0.64,-1.664 -1.92,-1.664 -1.963,0 -4.693,0.9813 -8.192,2.944 -3.413,1.8773 -7.253,4.48 -11.52,7.808 -4.267,3.328 -8.747,7.168 -13.44,11.52 -4.608,4.352 -9.131,8.96 -13.568,13.824 -4.437,4.864 -8.533,9.7707 -12.288,14.72 -7.253,9.5573 -12.757,16.8533 -16.512,21.888 -3.755,5.0347 -6.229,8.4907 -7.424,10.368 -7.253,11.093 -14.635,21.632 -22.144,31.616 -7.595,9.984 -15.403,19.115 -23.424,27.392 -8.021,8.277 -16.299,15.445 -24.832,21.504 -8.533,6.059 -17.408,10.752 -26.624,14.08 -9.216,3.328 -18.816,4.992 -28.8,4.992 z m 139.392,-88.96 c -0.768,0 -1.451,-0.299 -2.048,-0.896 -0.512,-0.512 -0.768,-1.195 -0.768,-2.048 0,-2.4747 1.493,-5.8027 4.48,-9.984 2.987,-4.2667 7.808,-9.8987 14.464,-16.896 h -23.424 l 0.384,-0.896 h 31.616 c -0.853,0.4267 -1.877,1.1093 -3.072,2.048 -1.195,0.9387 -2.56,2.1333 -4.096,3.584 -4.693,4.5227 -8.448,8.2773 -11.264,11.264 -2.731,2.9013 -4.693,5.248 -5.888,7.04 -1.195,1.7067 -1.792,3.1147 -1.792,4.224 0,1.28 0.512,1.92 1.536,1.92 1.195,0 2.859,-0.683 4.992,-2.048 2.219,-1.4507 4.651,-3.3707 7.296,-5.76 2.731,-2.3893 5.333,-4.992 7.808,-7.808 l 1.152,-1.28 h 1.024 l -0.896,1.024 c -2.816,3.1573 -5.632,6.016 -8.448,8.576 -2.816,2.4747 -5.376,4.4373 -7.68,5.888 -2.219,1.365 -4.011,2.048 -5.376,2.048 z m 34.432,-48.256 c -0.683,0 -1.024,-0.2987 -1.024,-0.896 0,-0.6827 0.341,-1.4507 1.024,-2.304 0.683,-0.9387 1.536,-1.8347 2.56,-2.688 1.109,-0.8533 2.176,-1.5787 3.2,-2.176 1.109,-0.5973 2.048,-0.896 2.816,-0.896 0.768,0 1.152,0.2987 1.152,0.896 0,0.8533 -0.597,1.92 -1.792,3.2 -1.109,1.28 -2.432,2.432 -3.968,3.456 -1.536,0.9387 -2.859,1.408 -3.968,1.408 z m -11.919,48.256 c -1.621,0 -2.944,-0.64 -3.968,-1.92 -1.024,-1.3653 -1.536,-3.072 -1.536,-5.12 0,-2.1333 0.64,-4.3093 1.92,-6.528 1.195,-2.304 2.816,-4.5227 4.864,-6.656 2.048,-2.2187 4.352,-4.1813 6.912,-5.888 2.56,-1.792 5.205,-3.2 7.936,-4.224 2.731,-1.024 5.333,-1.536 7.808,-1.536 3.243,0 4.864,0.9813 4.864,2.944 0,1.1093 -0.597,2.4747 -1.792,4.096 -1.109,1.6213 -2.432,2.9867 -3.968,4.096 h -4.48 c 1.28,-0.5973 2.603,-1.4507 3.968,-2.56 1.365,-1.1093 2.517,-2.2187 3.456,-3.328 0.939,-1.1947 1.408,-2.1333 1.408,-2.816 0,-1.1093 -0.896,-1.664 -2.688,-1.664 -1.707,0 -3.755,0.6827 -6.144,2.048 -2.389,1.3653 -4.864,3.1573 -7.424,5.376 -2.475,2.1333 -4.821,4.48 -7.04,7.04 -2.133,2.4747 -3.883,4.9067 -5.248,7.296 -1.365,2.304 -2.048,4.3093 -2.048,6.016 0,1.792 1.152,2.688 3.456,2.688 2.389,0 5.12,-0.683 8.192,-2.048 3.157,-1.3653 6.315,-3.2427 9.472,-5.632 3.157,-2.3893 6.059,-5.0347 8.704,-7.936 l 1.152,-1.28 h 1.024 l -0.896,1.024 c -2.816,3.2427 -5.888,6.1013 -9.216,8.576 -3.328,2.4747 -6.613,4.4373 -9.856,5.888 -3.157,1.365 -6.101,2.048 -8.832,2.048 z m 25.419,-0.256 c -2.133,0 -3.2,-1.664 -3.2,-4.992 0,-2.2187 0.683,-4.5653 2.048,-7.04 1.28,-2.4747 3.029,-4.864 5.248,-7.168 2.219,-2.3893 4.693,-4.5227 7.424,-6.4 2.731,-1.9627 5.547,-3.4987 8.448,-4.608 2.987,-1.1093 5.803,-1.664 8.448,-1.664 2.219,0 3.328,0.8533 3.328,2.56 0,1.6213 -1.024,3.6693 -3.072,6.144 -2.048,2.3893 -4.608,5.2053 -7.68,8.448 -2.389,2.4747 -4.949,4.864 -7.68,7.168 -2.645,2.2187 -5.163,4.0533 -7.552,5.504 -2.304,1.365 -4.224,2.048 -5.76,2.048 z m 0.128,-0.64 c 1.28,0 2.987,-0.597 5.12,-1.792 2.133,-1.28 4.523,-3.0293 7.168,-5.248 2.645,-2.2187 5.333,-4.736 8.064,-7.552 3.072,-3.2427 5.547,-6.016 7.424,-8.32 1.963,-2.304 2.944,-4.1813 2.944,-5.632 0,-1.1093 -0.725,-1.664 -2.176,-1.664 -1.28,0 -2.944,0.512 -4.992,1.536 -1.963,1.024 -4.096,2.432 -6.4,4.224 -2.304,1.7067 -4.565,3.6267 -6.784,5.76 -2.219,2.1333 -4.267,4.2667 -6.144,6.4 -1.792,2.1333 -3.243,4.1387 -4.352,6.016 -1.109,1.8773 -1.664,3.456 -1.664,4.736 0,1.024 0.597,1.536 1.792,1.536 z m 40.064,-16.64 -0.896,1.024 c -2.731,3.072 -5.504,5.888 -8.32,8.448 -2.731,2.4747 -5.291,4.4373 -7.68,5.888 -2.304,1.451 -4.139,2.176 -5.504,2.176 -0.768,0 -1.451,-0.299 -2.048,-0.896 -0.512,-0.512 -0.768,-1.195 -0.768,-2.048 0,-2.2187 1.195,-5.2053 3.584,-8.96 2.475,-3.7547 5.888,-7.8507 10.24,-12.288 h 0.512 l 5.888,-6.528 h 7.552 c -1.109,0.6827 -2.304,1.536 -3.584,2.56 -1.28,0.9387 -2.475,1.9627 -3.584,3.072 -4.864,4.864 -8.704,8.7467 -11.52,11.648 -2.816,2.9013 -4.821,5.1627 -6.016,6.784 -1.109,1.6213 -1.664,2.9867 -1.664,4.096 0,1.28 0.512,1.92 1.536,1.92 1.195,0 2.816,-0.64 4.864,-1.92 2.133,-1.3653 4.523,-3.2427 7.168,-5.632 2.645,-2.3893 5.333,-5.0773 8.064,-8.064 l 1.152,-1.28 z m 4.107,-22.016 v -0.896 h 50.688 v 0.896 z m 0.512,20.48 c -3.84,4.2667 -6.528,7.6373 -8.064,10.112 -1.621,2.3893 -2.432,4.4373 -2.432,6.144 0,1.451 0.597,2.176 1.792,2.176 1.28,0 2.688,-0.469 4.224,-1.408 1.621,-1.024 3.584,-2.6453 5.888,-4.864 2.389,-2.304 5.333,-5.4187 8.832,-9.344 l 1.152,-1.28 h 1.024 l -0.896,1.024 c -5.291,5.9733 -9.515,10.24 -12.672,12.8 -3.072,2.475 -5.675,3.712 -7.808,3.712 -2.304,0 -3.456,-1.28 -3.456,-3.84 0,-4.0107 2.261,-8.576 6.784,-13.696 1.28,-1.6213 2.517,-3.1147 3.712,-4.48 1.195,-1.3653 2.517,-2.8587 3.968,-4.48 1.536,-1.7067 3.413,-3.7547 5.632,-6.144 2.304,-2.4747 5.163,-5.504 8.576,-9.088 3.413,-3.584 7.595,-8.0213 12.544,-13.312 1.109,0 2.389,-0.0853 3.84,-0.256 1.536,-0.256 2.987,-0.5547 4.352,-0.896 -2.133,1.536 -5.12,4.1387 -8.96,7.808 -3.84,3.6693 -8.192,8.064 -13.056,13.184 -4.864,5.0347 -9.856,10.4107 -14.976,16.128 z m 12.392,18.432 c 2.133,0 4.651,-0.683 7.552,-2.048 2.901,-1.3653 5.888,-3.2 8.96,-5.504 3.072,-2.3893 5.931,-5.0773 8.576,-8.064 l 1.152,-1.28 h 1.024 l -0.896,1.024 c -2.731,3.072 -5.717,5.888 -8.96,8.448 -3.243,2.4747 -6.4,4.4373 -9.472,5.888 -3.072,1.451 -5.717,2.176 -7.936,2.176 -1.707,0 -3.072,-0.597 -4.096,-1.792 -1.024,-1.195 -1.536,-2.8587 -1.536,-4.992 0,-2.1333 0.64,-4.352 1.92,-6.656 1.195,-2.304 2.816,-4.5227 4.864,-6.656 2.133,-2.2187 4.48,-4.1813 7.04,-5.888 2.56,-1.792 5.205,-3.2 7.936,-4.224 2.731,-1.1093 5.333,-1.664 7.808,-1.664 1.109,0 2.005,0.256 2.688,0.768 0.683,0.4267 1.024,0.9813 1.024,1.664 0,1.3653 -0.768,2.816 -2.304,4.352 -1.536,1.4507 -3.541,2.8587 -6.016,4.224 -2.389,1.28 -4.992,2.3467 -7.808,3.2 -2.731,0.8533 -5.333,1.28 -7.808,1.28 l 0.896,-0.896 c 2.304,-0.0853 4.736,-0.512 7.296,-1.28 2.56,-0.8533 4.907,-1.8773 7.04,-3.072 2.219,-1.28 4.011,-2.6027 5.376,-3.968 1.365,-1.3653 2.048,-2.6453 2.048,-3.84 0,-1.024 -0.683,-1.536 -2.048,-1.536 -1.621,0 -3.584,0.6827 -5.888,2.048 -2.304,1.3653 -4.736,3.1573 -7.296,5.376 -2.475,2.1333 -4.779,4.48 -6.912,7.04 -2.133,2.4747 -3.883,4.9067 -5.248,7.296 -1.365,2.304 -2.048,4.2667 -2.048,5.888 0,1.792 1.024,2.688 3.072,2.688 z m 27.25,-16.896 h -1.024 l 1.152,-1.28 c 6.059,-6.656 10.923,-12.1173 14.592,-16.384 3.755,-4.2667 6.229,-7.2533 7.424,-8.96 h 4.224 c -2.645,1.9627 -5.931,4.9067 -9.856,8.832 -3.84,3.9253 -8.917,9.3867 -15.232,16.384 z m 24.32,1.024 c -3.584,4.096 -7.339,7.2107 -11.264,9.344 -3.84,2.1333 -7.637,3.2 -11.392,3.2 -2.816,0 -5.163,0.256 -7.04,0.768 -1.963,0.512 -2.944,1.152 -2.944,1.92 0,0.427 0.384,0.64 1.152,0.64 2.645,0 5.205,-0.725 7.68,-2.176 2.56,-1.4507 4.864,-3.3707 6.912,-5.76 2.048,-2.3893 3.669,-5.0773 4.864,-8.064 1.195,-3.072 1.792,-6.1867 1.792,-9.344 0,-1.8773 0.128,-3.5413 0.384,-4.992 0.341,-1.4507 0.981,-2.944 1.92,-4.48 0.939,-1.6213 2.432,-3.4987 4.48,-5.632 l 5.376,-3.072 c -2.304,1.792 -4.139,3.2853 -5.504,4.48 -1.28,1.1093 -2.176,2.1333 -2.688,3.072 -0.512,0.8533 -0.768,1.792 -0.768,2.816 0,1.1093 0.171,2.6453 0.512,4.608 0.427,1.8773 0.64,3.7973 0.64,5.76 0,2.9013 -0.725,5.76 -2.176,8.576 -1.451,2.7307 -3.413,5.248 -5.888,7.552 -2.475,2.2187 -5.205,4.0107 -8.192,5.376 -2.987,1.28 -6.016,1.92 -9.088,1.92 -1.365,0 -2.048,-0.427 -2.048,-1.28 0,-0.939 1.024,-1.707 3.072,-2.304 2.048,-0.6827 4.523,-1.024 7.424,-1.024 7.253,0 14.421,-3.8827 21.504,-11.648 l 1.152,-1.28 h 1.024 z"
     fill="#000000"
     id="path1"
     sodipodi:insensitive="true" />
  <g
     inkscape:groupmode="layer"
     id="layer2"
     inkscape:label="trace">
    <path
       style="fill:none"
       d="m 134.05839,50.263036 c 0,0 -32.99869,-32.316918 -84.130085,-26.702491 C -1.2030917,29.174973 -1.7043799,56.645567 1.8046375,65.167466 5.3136549,73.689365 14.737873,82.01075 36.995069,84.617448 59.252265,87.224147 89.041429,73.657679 99.817143,67.135536 110.59286,60.613393 127.74893,46.860179 133.06589,33.957679 c 5.31697,-12.9025 -3.11928,-16.801608 -14.03678,-9.570536 -10.9175,7.231071 -22.75661,16.234464 -32.752503,36.935178 -9.995893,20.700715 0.425357,42.535719 35.517323,15.241965 35.09196,-27.29375 41.82654,-65.33543 30.29691,-71.6516616"
       id="path2"
       inkscape:label="Thin1" />
    <path
       style="fill:none"
       d="m 153.55393,5.8132143 c 0,0 -8.79072,-12.4771429 -40.83429,1.8432143 C 80.676071,21.976786 57.706786,61.535 57.706786,61.535 c 0,0 -6.475132,11.352304 -6.675647,29.39868 -0.200515,18.04637 11.930659,32.98476 36.393523,28.37291"
       id="path3"
       inkscape:label="Thick2" />
    <path
       style="fill:none"
       d="m 85.920798,119.50711 c 0,0 22.658222,-1.40361 51.231652,-30.879356"
       id="path4"
       inkscape:label="thin3" />
    <path
       style="fill:none"
       d="m 136.45065,89.429815 c 0,0 3.60927,-3.107987 8.42164,-3.308502 4.81237,-0.200515 22.55797,-4.311079 22.45771,-13.234009"
       id="path5"
       inkscape:label="thin4" />
    <path
       style="fill:none"
       d="m 167.73103,74.090396 c 0,0 0.50129,-4.912624 -8.5219,-0.902319 -9.02319,4.010306 -23.56054,16.743026 -22.55797,25.966729 1.00258,9.223704 18.29702,-2.055281 19.14921,-2.907471"
       id="path6"
       inkscape:label="thick5" />
    <path
       style="fill:none"
       d="m 154.97179,96.839643 c 0,0 3.33196,-1.417857 12.97339,-11.980893 9.64143,-10.563036 22.96928,-25.450536 23.74911,-25.875893"
       id="path7"
       inkscape:label="thin_to_thick6" />
    <path
       style="fill:none"
       d="m 179.42982,72.594286 c 0,0 11.76822,-5.033393 8.50714,4.46625 -3.26107,9.499643 -12.97339,8.861607 -18.43214,17.510536 -5.45875,8.648928 0.56714,8.152678 1.55964,8.010888"
       id="path8"
       inkscape:label="thick7" />
    <path
       style="fill:none"
       d="m 170.42643,102.58196 c 0,0 3.61553,1.91411 19.42464,-12.902496"
       id="path9"
       inkscape:label="thin8" />
    <path
       style="fill:none"
       d="M 188.68488,90.632907 C 230.19154,48.02341 230.09128,48.02341 230.09128,48.02341"
       id="path10"
       inkscape:label="thin_to_thick9" />
    <path
       style="fill:none"
       d="m 204.22481,74.892457 c 0,0 -20.3523,21.25462 -16.34199,27.169823"
       id="path11"
       inkscape:label="thick10" />
    <path
       style="fill:none"
       d="m 187.58204,100.95944 c 0,0 0.70181,8.42165 18.2469,-9.825245"
       id="path12"
       inkscape:label="thin11" />
    <path
       style="fill:none"
       d="M 205.19938,91.735357 223.3125,74.295714"
       id="path13"
       inkscape:label="thintothick12" />
    <path
       style="fill:none"
       d="m 213.03304,84.787857 c 0,0 -15.24197,15.454643 -8.86161,17.652323"
       id="path14"
       inkscape:label="thickto thin13" />
    <path
       style="fill:none"
       d="m 203.4625,102.08571 c 0,0 1.20518,5.24608 20.91339,-13.469638"
       id="path15"
       inkscape:label="think14" />
    <path
       style="fill:none"
       d="m 223.17351,89.63033 c 0,0 4.61185,-3.609275 17.44483,-22.056681"
       id="path16"
       inkscape:label="thin15" />
    <path
       style="fill:none"
       d="m 239.5155,68.475968 7.4692,-3.910048 7.01803,-4.461465 c 0,0 22.65823,-15.339419 26.01686,-18.146633"
       id="path17"
       inkscape:label="fthin16" />
    <path
       style="fill:none"
       d="m 278.8925,42.606607 c 0,0 25.59232,-19.920893 28.21536,-24.528928 2.62303,-4.608036 5.74232,-13.611429 -7.37286,-6.593036 -13.11518,7.018393 -25.11118,16.791802 -42.46482,35.588214"
       id="path18"
       inkscape:label="thick17" />
    <path
       style="fill:none"
       d="M 258.16342,46.068386 244.92941,61.909093"
       id="path19"
       inkscape:label="fmedium18" />
    <path
       style="fill:none"
       d="M 245.58109,61.457933 230.44219,81.55959"
       id="path20"
       inkscape:label="adjustmedium19" />
    <path
       style="fill:none"
       d="m 231.11071,80.746964 c 0,0 -49.34142,82.023036 -102.36928,103.858036"
       id="path21"
       inkscape:label="thick20" />
    <path
       style="fill:none"
       d="m 130.73596,183.77225 c 0,0 -29.77652,16.04123 -55.94376,2.20567"
       id="path22"
       inkscape:label="thick21" />
    <path
       style="fill:none"
       d="m 76.095549,186.77998 c 0,0 -8.221127,-2.70695 -11.228856,-16.24173"
       id="path23"
       inkscape:label="thick22" />
    <path
       style="fill:none"
       d="m 65.367981,172.34288 c 0,0 -3.208244,-16.64276 13.735297,-17.84586"
       id="path24"
       inkscape:label="thick23" />
    <path
       style="fill:none"
       d="m 230.69283,72.63666 30.27781,0.05013"
       id="path25"
       inkscape:label="thin24" />
    <path
       style="fill:none"
       d="m 257.96291,72.63666 c 0,0 -26.96931,24.863895 -21.85617,29.42562"
       id="path26"
       inkscape:label="thicktothin25" />
    <path
       style="fill:none"
       d="m 235.70571,101.4106 c 0,0 0.85219,7.36894 21.00398,-12.832975"
       id="path27"
       inkscape:label="thick26" />
    <path
       style="fill:none"
       d="m 256.10814,89.028784 c 0,0 11.98079,-12.632462 24.61325,-16.743025 12.63247,-4.110564 5.96533,7.920353 1.45374,9.925506"
       id="path28"
       inkscape:label="thick27" />
    <path
       style="fill:none"
       d="m 268.08893,78.952892 c 0,0 -19.44998,20.653074 -9.37409,23.460288 10.07589,2.80721 27.47059,-14.186457 27.47059,-14.186457 0,0 20.85359,-19.800884 29.92691,-16.091351"
       id="path29"
       inkscape:label="thick28" />
    <path
       style="fill:none"
       d="m 315.51079,71.583955 c 0,0 3.45889,0.701804 -1.0527,6.917777"
       id="path30"
       inkscape:label="thin29" />
    <path
       style="fill:none"
       d="m 296.51197,80.105855 c 0,0 -17.19418,15.239161 -12.73272,21.755905"
       id="path31"
       inkscape:label="thick30" />
    <path
       style="fill:none"
       d="m 283.37822,101.15996 c 0,0 1.60412,7.06816 21.95642,-12.482077 20.3523,-19.55024 18.14664,-16.241738 18.14664,-16.241738"
       id="path32"
       inkscape:label="thin to thick31" />
    <path
       style="fill:none"
       d="m 324.23321,72.285759 c 0,0 -28.42304,25.164667 -22.40758,29.977031"
       id="path33"
       inkscape:label="thick32" />
    <path
       style="fill:none"
       d="m 301.27421,101.15996 c 0,0 1.15472,7.66058 19.94133,-11.196924"
       id="path34"
       inkscape:label="thick33" />
    <path
       style="fill:none"
       d="m 319.12007,91.33471 6.91778,-4.712109 20.65307,-22.758484"
       id="path48"
       inkscape:label="34redone1" />
    <path
       style="fill:none"
       d="M 345.88886,64.966951 362.43137,47.722637"
       id="path49"
       inkscape:label="34redone2" />
    <path
       style="fill:none"
       d="m 324.33482,102.15661 c 0,0 4.35991,-1.70143 14.81661,-13.256967"
       id="path37"
       inkscape:label="thin36" />
    <path
       style="fill:none"
       d="m 338.69063,89.431339 c 0,0 3.47375,-3.261071 11.34285,-3.402857"
       id="path38"
       inkscape:label="thin37" />
    <path
       style="fill:none"
       d="m 349.21821,86.170268 c 0,0 14.56664,-2.40501 19.88029,-10.676265 5.31366,-8.271255 -17.14405,-1.604122 -22.05668,8.020611"
       id="path39"
       inkscape:label="thick38" />
    <path
       style="fill:none"
       d="m 347.79375,82.562167 c 0,0 -7.56945,6.466617 -9.2237,14.587486 -1.65425,8.120867 7.56945,5.263527 9.97564,4.361207 2.40618,-0.90232 11.78027,-5.664556 19.95127,-15.138903"
       id="path40"
       inkscape:label="thick39" />
    <path
       style="fill:none"
       d="m 367.6949,87.324405 25.86647,-28.322784 -6.71727,7.569452 c 0,0 -2.35605,9.624734 -0.80206,11.329113 1.554,1.70438 -1.45373,13.18388 -7.76996,17.545087"
       id="path41"
       inkscape:label="thick40" />
    <path
       style="fill:none"
       d="m 379.02401,94.843728 c 0,0 -9.57461,9.674862 -17.54509,7.569452"
       id="path42"
       inkscape:label="medium to thin41" />
    <path
       style="fill:none"
       d="m 362.08047,102.81421 c 0,0 -1.80464,-0.90232 0,-2.35605 1.80464,-1.45374 11.07847,-1.804642 11.07847,-1.804642 0,0 4.46146,-0.05013 9.17357,-2.907472 4.71211,-2.857342 5.86507,-3.158115 12.1813,-10.17615"
       id="path43"
       inkscape:label="thick42" />
    <path
       style="fill:none"
       d="m 198.28732,62.952857 50.47572,0.212679"
       id="path44"
       inkscape:label="medium43" />
    <path
       style="fill:none"
       d="m 272.12223,54.764732 3.58009,-1.417857 3.79277,-3.012946 2.09134,-2.942054 -0.10634,-1.169732 h -2.37491 l -3.26107,1.807768 -2.69393,2.304018 -2.05589,3.190178 0.24812,1.063393 z"
       id="path46"
       inkscape:label="circle dot for second i 45" />
    <path
       style="fill:none"
       d="m 255.8575,89.530073 15.43967,-12.732721 c 0,0 5.11314,-3.609275 9.52448,-4.812366 4.41134,-1.203092 6.91778,0.300773 6.91778,0.300773 0,0 1.00257,3.107986 -2.80722,7.820095"
       id="path50"
       inkscape:label="27redone1" />
    <path
       style="fill:none"
       d="m 281.62371,82.111007 c 0,0 5.81494,-3.308502 6.31623,-7.419065 0.50129,-4.110563 -4.31108,-3.910048 -11.73014,-0.501288 -7.41907,3.408759 -15.43968,11.930659 -19.04895,18.748178 -3.60928,6.81752 0.60154,9.223708 0.60154,9.223708 0,0 6.51675,2.80721 18.9487,-6.015463"
       id="path51"
       inkscape:label="27redone2" />
    <path
       style="fill:none"
       d="m 275.70851,97.249911 21.95642,-19.048952 c 0,0 12.33169,-7.519323 16.74303,-6.817519 4.41134,0.701803 3.20824,4.110563 -4.41134,12.832978"
       id="path52"
       inkscape:label="28redone1" />
    <path
       style="fill:none"
       d="m 316.71389,72.987562 c 0,0 -1.10284,-5.51417 -16.64277,4.311079 -15.53994,9.825248 -16.94354,22.156938 -16.94354,22.156938 0,0 -0.80207,8.020611 12.5322,-2.10541"
       id="path53"
       inkscape:label="29 and 30 redone1" />
    <path
       style="fill:none"
       d="m 294.375,98 c 0,0 8.62026,-7.180973 15.29358,-12.970409 6.67332,-5.789437 14.4073,-12.639534 14.4073,-12.639534"
       id="path54" />
    <path
       style="fill:none"
       d="m 324.375,88.5 c 0,0 -5.75,6.875 -5.625,10.75 0.125,3.875 2.64277,3.4383 2.64277,3.4383 0,0 4.11178,-0.0709 8.11723,-3.969996"
       id="path56"
       inkscape:label="35 redone 2" />
    <path
       style="fill:none"
       d="m 348.3675,86.241161 c 0,0 15.45464,-1.48875 20.98429,-11.590982"
       id="path57"
       inkscape:label="38redone 1" />
    <path
       style="fill:none"
       d="m 369.24545,75.323661 c 0,0 2.48125,-4.891607 -4.43081,-3.402857 -6.91205,1.48875 -20.16901,13.39875 -20.16901,13.39875"
       id="path58"
       inkscape:label="38 redone 2" />
    <path
       style="fill:none"
       d="m 361.69536,48.13625 c 0,0 -38.06947,39.416429 -40.6925,45.300536"
       id="path59"
       inkscape:label="35redone 1" />
  </g>
</svg>
