<svg width="338" height="155" viewBox="0 0 338 155" fill="none" xmlns="http://www.w3.org/2000/svg">
<rect width="338" height="155" fill="#1E1E1E"/>
<path d="M18.912 77.376C14.368 77.376 10.688 76.224 7.872 73.92C5.12 71.68 3.104 68.768 1.824 65.184C0.608001 61.6 6.55651e-07 57.856 6.55651e-07 53.952C6.55651e-07 48.896 0.768001 43.808 2.304 38.688C3.84 33.568 5.92 28.704 8.544 24.096C11.232 19.424 14.272 15.296 17.664 11.712C21.056 8.064 24.608 5.216 28.32 3.168C32.096 1.056 35.808 0 39.456 0C42.08 0 44.192 0.639999 45.792 1.92C47.456 3.136 48.288 5.248 48.288 8.256C48.288 10.112 47.968 12.224 47.328 14.592C46.688 16.896 45.824 19.136 44.736 21.312C43.648 23.424 42.432 25.184 41.088 26.592C39.808 28 38.496 28.704 37.152 28.704C36.64 28.704 36.096 28.544 35.52 28.224C35.008 27.904 34.56 27.328 34.176 26.496C35.136 25.408 36.192 24.064 37.344 22.464C38.56 20.8 39.712 19.072 40.8 17.28C41.888 15.424 42.752 13.632 43.392 11.904C44.096 10.112 44.448 8.544 44.448 7.2C44.448 5.92 44.064 4.896 43.296 4.128C42.592 3.296 41.408 2.88 39.744 2.88C36.992 2.88 34.112 4 31.104 6.24C28.16 8.48 25.28 11.488 22.464 15.264C19.712 18.976 17.216 23.136 14.976 27.744C12.736 32.352 10.944 37.056 9.6 41.856C8.32 46.656 7.68 51.232 7.68 55.584C7.68 58.72 8.128 61.728 9.024 64.608C9.92 67.424 11.36 69.696 13.344 71.424C15.392 73.216 18.016 74.112 21.216 74.112C24.608 74.112 27.968 73.152 31.296 71.232C34.688 69.312 37.792 66.784 40.608 63.648C43.424 60.512 45.664 57.12 47.328 53.472L48.672 54.432C46.56 58.592 44 62.432 40.992 65.952C37.984 69.408 34.624 72.16 30.912 74.208C27.2 76.32 23.2 77.376 18.912 77.376ZM51.4253 70.848C50.8173 70.848 50.3373 70.336 49.9853 69.312C49.6333 68.288 49.4573 67.136 49.4573 65.856C49.4573 64.32 49.7133 62.496 50.2253 60.384C50.7373 58.272 51.4093 56.048 52.2413 53.712C53.0733 51.376 54.0013 49.088 55.0253 46.848C56.0813 44.608 57.1533 42.576 58.2413 40.752C59.3293 38.928 60.3533 37.472 61.3133 36.384C62.2733 35.296 63.1053 34.752 63.8093 34.752C64.3853 34.752 64.7853 35.104 65.0093 35.808C65.2653 36.48 65.3933 37.136 65.3933 37.776C65.3933 38.672 65.1853 39.76 64.7693 41.04C64.3853 42.32 63.8413 43.696 63.1373 45.168C62.4333 46.608 61.6173 48.032 60.6893 49.44C59.7613 50.848 58.7533 52.144 57.6653 53.328C56.5773 54.48 55.4733 55.392 54.3533 56.064C53.9693 56.992 53.6333 58.032 53.3453 59.184C53.0893 60.336 52.8973 61.472 52.7693 62.592C52.6413 63.68 52.5773 64.656 52.5773 65.52C52.5773 65.872 52.5773 66.176 52.5773 66.432C52.6093 66.688 52.6413 66.928 52.6733 67.152C53.1213 65.84 53.6013 64.576 54.1133 63.36C54.6573 62.112 55.2333 60.976 55.8413 59.952C56.4493 58.896 57.0893 57.984 57.7613 57.216C58.4653 56.416 59.2013 55.808 59.9693 55.392C60.7373 54.944 61.5533 54.72 62.4173 54.72C63.3133 54.72 64.0173 54.944 64.5293 55.392C65.0733 55.808 65.4573 56.352 65.6813 57.024C65.9373 57.664 66.0653 58.336 66.0653 59.04C66.0653 60.032 65.8893 60.992 65.5373 61.92C65.2173 62.848 64.8813 63.744 64.5293 64.608C64.1773 65.472 64.0013 66.304 64.0013 67.104C64.0013 67.744 64.1293 68.208 64.3853 68.496C64.6733 68.784 65.0253 68.928 65.4413 68.928C66.1773 68.928 66.9933 68.576 67.8893 67.872C68.8173 67.168 69.7293 66.24 70.6253 65.088C71.5213 63.904 72.2893 62.624 72.9293 61.248L73.5533 61.824C72.8813 63.392 72.0653 64.816 71.1053 66.096C70.1453 67.344 69.0893 68.336 67.9373 69.072C66.7853 69.808 65.5853 70.176 64.3373 70.176C63.2493 70.176 62.4173 69.888 61.8413 69.312C61.2973 68.736 61.0253 68.016 61.0253 67.152C61.0253 66.48 61.1533 65.728 61.4093 64.896C61.6653 64.064 61.9053 63.216 62.1293 62.352C62.3853 61.488 62.5133 60.672 62.5133 59.904C62.5133 59.072 62.3373 58.48 61.9853 58.128C61.6333 57.776 61.2013 57.6 60.6893 57.6C59.8893 57.6 59.1693 57.92 58.5293 58.56C57.8893 59.2 57.2973 60.032 56.7533 61.056C56.2413 62.048 55.7453 63.104 55.2653 64.224C54.8173 65.344 54.3853 66.416 53.9693 67.44C53.5533 68.432 53.1373 69.248 52.7213 69.888C52.3053 70.528 51.8733 70.848 51.4253 70.848ZM54.9773 54.192C55.8733 53.488 56.7373 52.592 57.5693 51.504C58.4333 50.416 59.2333 49.264 59.9693 48.048C60.7053 46.8 61.3613 45.584 61.9373 44.4C62.5133 43.216 62.9613 42.144 63.2813 41.184C63.6013 40.224 63.7613 39.504 63.7613 39.024C63.7613 38.864 63.7453 38.768 63.7133 38.736C63.6813 38.672 63.6333 38.64 63.5693 38.64C63.3453 38.64 62.8813 39.088 62.1773 39.984C61.5053 40.848 60.7213 42.016 59.8253 43.488C58.9293 44.96 58.0493 46.624 57.1853 48.48C56.3213 50.336 55.5853 52.24 54.9773 54.192ZM77.1814 71.136C75.2294 71.136 73.7574 70.592 72.7654 69.504C71.8054 68.448 71.3254 67.136 71.3254 65.568C71.3254 64.128 71.6774 62.608 72.3814 61.008C73.1174 59.408 74.0774 57.904 75.2614 56.496C76.4774 55.088 77.8054 53.952 79.2454 53.088C80.6854 52.192 82.1094 51.744 83.5174 51.744C84.2534 51.744 84.9254 51.936 85.5334 52.32C86.1734 52.704 86.4934 53.488 86.4934 54.672C86.4934 55.888 86.1254 57.04 85.3894 58.128C84.6854 59.184 83.7414 60.128 82.5574 60.96C81.4054 61.792 80.1254 62.48 78.7174 63.024C77.3414 63.536 75.9654 63.856 74.5894 63.984C74.5254 64.304 74.4774 64.608 74.4454 64.896C74.4134 65.184 74.3974 65.456 74.3974 65.712C74.3974 66.192 74.4454 66.672 74.5414 67.152C74.6694 67.632 74.8774 68.08 75.1654 68.496C75.4534 68.88 75.8374 69.184 76.3174 69.408C76.8294 69.632 77.4534 69.744 78.1894 69.744C79.5654 69.744 80.9254 69.36 82.2694 68.592C83.6134 67.792 84.8614 66.752 86.0134 65.472C87.1654 64.192 88.1414 62.784 88.9414 61.248L89.5174 61.68C88.6534 63.6 87.5494 65.264 86.2054 66.672C84.8934 68.08 83.4534 69.168 81.8854 69.936C80.3494 70.736 78.7814 71.136 77.1814 71.136ZM74.8294 63.072C75.6934 62.784 76.6694 62.368 77.7574 61.824C78.8454 61.248 79.8854 60.576 80.8774 59.808C81.9014 59.04 82.7334 58.192 83.3734 57.264C84.0454 56.336 84.3814 55.36 84.3814 54.336C84.3814 53.984 84.3174 53.712 84.1894 53.52C84.0614 53.328 83.7894 53.232 83.3734 53.232C82.6054 53.232 81.7894 53.536 80.9254 54.144C80.0614 54.72 79.2294 55.488 78.4294 56.448C77.6294 57.408 76.9094 58.464 76.2694 59.616C75.6294 60.768 75.1494 61.92 74.8294 63.072ZM94.1878 72.272C92.3318 72.272 90.7851 71.6533 89.5478 70.416C88.3104 69.1787 87.6918 67.3227 87.6918 64.848C87.6918 62.9147 88.0591 61.0393 88.7938 59.222C89.5671 57.366 90.5724 55.7033 91.8098 54.234C93.0471 52.7647 94.4198 51.6047 95.9278 50.754C97.4358 49.8647 98.9244 49.42 100.394 49.42C101.979 49.42 103.062 49.884 103.642 50.812C104.222 51.74 104.512 52.7067 104.512 53.712C104.512 54.8333 104.241 55.8193 103.7 56.67C103.197 57.5207 102.501 57.946 101.612 57.946C100.954 57.946 100.394 57.656 99.9298 57.076C100.51 56.7667 101.012 56.148 101.438 55.22C101.863 54.2533 102.076 53.3447 102.076 52.494C102.076 52.03 101.979 51.682 101.786 51.45C101.631 51.1793 101.302 51.044 100.8 51.044C99.7558 51.044 98.6731 51.508 97.5518 52.436C96.4691 53.364 95.4444 54.5627 94.4778 56.032C93.5498 57.5013 92.7764 59.048 92.1578 60.672C91.5778 62.296 91.2878 63.8233 91.2878 65.254C91.2878 66.4527 91.5778 67.5547 92.1578 68.56C92.7378 69.5653 93.8591 70.068 95.5218 70.068C97.0684 70.068 98.6151 69.6427 100.162 68.792C101.747 67.9413 103.216 66.7233 104.57 65.138C105.923 63.5527 107.006 61.6967 107.818 59.57L108.572 60.15C107.682 62.47 106.464 64.558 104.918 66.414C103.371 68.2313 101.67 69.662 99.8138 70.706C97.9578 71.75 96.0824 72.272 94.1878 72.272ZM125.738 71.456C124.543 71.456 123.519 71.0507 122.666 70.24C121.812 69.4293 121.13 68.4053 120.618 67.168C120.148 65.9307 119.786 64.672 119.53 63.392C119.316 62.0693 119.21 60.9173 119.21 59.936C119.679 59.936 120.362 59.8293 121.258 59.616C122.154 59.36 123.071 58.9973 124.01 58.528C124.948 58.016 125.738 57.376 126.378 56.608C127.06 55.7973 127.402 54.8587 127.402 53.792C127.402 52.896 127.082 52.192 126.442 51.68C125.802 51.168 125.055 50.912 124.202 50.912C122.879 50.912 121.642 51.3813 120.49 52.32C119.338 53.216 118.292 54.4107 117.354 55.904C116.458 57.3547 115.647 58.912 114.922 60.576C114.196 62.24 113.578 63.8187 113.066 65.312C112.554 66.8053 112.127 68.0427 111.786 69.024C111.53 69.792 111.167 70.304 110.698 70.56C110.228 70.8587 109.738 71.008 109.226 71.008C108.5 71.008 107.967 70.7093 107.626 70.112C107.327 69.5147 107.135 68.768 107.05 67.872C107.007 66.9333 106.986 65.9733 106.986 64.992C106.986 62.7733 107.348 60.2133 108.074 57.312C108.799 54.4107 109.759 51.4027 110.954 48.288C112.191 45.1307 113.535 42.08 114.986 39.136C116.436 36.192 117.887 33.5253 119.338 31.136C120.788 28.7467 122.132 26.848 123.37 25.44C124.607 24.032 125.61 23.328 126.378 23.328C126.975 23.328 127.444 23.7333 127.786 24.544C128.17 25.3547 128.362 26.336 128.362 27.488C128.362 28.9387 128.042 30.5813 127.402 32.416C126.762 34.208 125.844 36.0213 124.65 37.856C123.498 39.6907 122.111 41.4187 120.49 43.04C118.911 44.6613 117.183 46.048 115.306 47.2C113.898 50.656 112.831 54.0267 112.106 57.312C111.423 60.5547 111.082 63.2853 111.082 65.504C111.764 63.7973 112.575 61.92 113.514 59.872C114.495 57.824 115.604 55.8613 116.842 53.984C118.079 52.1067 119.423 50.5707 120.874 49.376C122.324 48.1813 123.839 47.584 125.418 47.584C126.996 47.584 128.34 48.1387 129.45 49.248C130.559 50.3573 131.114 51.7013 131.114 53.28C131.114 54.6453 130.751 55.8187 130.026 56.8C129.343 57.7387 128.49 58.5067 127.466 59.104C126.484 59.6587 125.482 60.0853 124.458 60.384C123.476 60.64 122.666 60.768 122.026 60.768C122.068 61.1093 122.196 61.728 122.41 62.624C122.623 63.52 122.922 64.4587 123.306 65.44C123.732 66.4213 124.244 67.2747 124.842 68C125.439 68.6827 126.164 69.024 127.018 69.024C128.255 69.024 129.428 68.5547 130.538 67.616C131.647 66.6773 132.692 65.44 133.674 63.904C134.698 62.3253 135.636 60.5547 136.49 58.592L137.13 59.232C136.532 61.3227 135.615 63.3067 134.378 65.184C133.14 67.0187 131.754 68.512 130.218 69.664C128.724 70.8587 127.231 71.456 125.738 71.456ZM116.394 44.64C118.356 43.0613 120.063 41.2693 121.514 39.264C123.007 37.2587 124.159 35.3387 124.97 33.504C125.78 31.6267 126.186 30.1547 126.186 29.088C126.186 28.8747 126.164 28.7253 126.122 28.64C126.122 28.5547 126.079 28.512 125.994 28.512C125.567 28.512 124.82 29.2587 123.754 30.752C122.73 32.2453 121.556 34.2293 120.234 36.704C118.911 39.136 117.631 41.7813 116.394 44.64ZM152.177 71.072C150.342 71.072 149.041 70.496 148.273 69.344C147.505 68.2347 147.121 66.8693 147.121 65.248C147.121 63.9253 147.334 62.56 147.761 61.152C148.188 59.744 148.742 58.4213 149.425 57.184C150.15 55.9467 150.94 54.944 151.793 54.176C152.689 53.408 153.585 53.024 154.481 53.024C154.694 53.024 154.908 53.0667 155.121 53.152C155.377 53.1947 155.612 53.2587 155.825 53.344C155.441 53.6853 154.972 54.3253 154.417 55.264C153.905 56.16 153.414 57.2053 152.945 58.4C152.476 59.552 152.07 60.704 151.729 61.856C151.43 63.008 151.281 63.9893 151.281 64.8C151.281 66.08 151.494 67.0187 151.921 67.616C152.348 68.1707 152.902 68.448 153.585 68.448C154.481 68.448 155.548 67.9787 156.785 67.04C158.022 66.0587 159.238 64.8213 160.433 63.328C159.238 62.3467 158.3 61.0667 157.617 59.488C156.977 57.8667 156.657 56.224 156.657 54.56C156.657 53.152 156.892 51.8293 157.361 50.592C157.873 49.3547 158.598 48.3733 159.537 47.648C160.476 46.88 161.606 46.496 162.929 46.496C164.678 46.496 165.852 46.9653 166.449 47.904C167.046 48.8427 167.345 50.016 167.345 51.424C167.345 53.088 166.94 54.944 166.129 56.992C165.318 58.9973 164.294 60.9387 163.057 62.816C163.825 63.2427 164.636 63.456 165.489 63.456C166.172 63.456 166.94 63.328 167.793 63.072C168.646 62.7733 169.478 62.2827 170.289 61.6C171.142 60.9173 171.825 60 172.337 58.848L173.105 59.488C172.252 61.4933 171.036 62.9227 169.457 63.776C167.921 64.5867 166.449 64.992 165.041 64.992C164.486 64.992 163.953 64.9493 163.441 64.864C162.929 64.736 162.438 64.5653 161.969 64.352C160.518 66.272 158.918 67.872 157.169 69.152C155.462 70.432 153.798 71.072 152.177 71.072ZM161.585 61.664C162.652 60.0853 163.526 58.4427 164.209 56.736C164.934 54.9867 165.297 53.344 165.297 51.808C165.297 50.5707 165.105 49.6747 164.721 49.12C164.38 48.5227 163.932 48.224 163.377 48.224C162.524 48.224 161.649 48.8427 160.753 50.08C159.857 51.3173 159.409 52.8747 159.409 54.752C159.409 55.9893 159.58 57.248 159.921 58.528C160.305 59.7653 160.86 60.8107 161.585 61.664ZM174.736 70.464C173.648 70.464 172.768 69.984 172.096 69.024C171.456 68.032 171.136 66.896 171.136 65.616C171.136 64.688 171.28 63.616 171.568 62.4C171.888 61.184 172.272 59.984 172.72 58.8C173.168 57.616 173.632 56.64 174.112 55.872C174.592 55.104 175.008 54.72 175.36 54.72C175.52 54.72 175.792 54.816 176.176 55.008C176.56 55.168 176.88 55.392 177.136 55.68C176.784 56.224 176.352 57.056 175.84 58.176C175.328 59.296 174.88 60.496 174.496 61.776C174.112 63.056 173.92 64.24 173.92 65.328C173.92 65.584 173.952 65.984 174.016 66.528C174.08 67.04 174.24 67.504 174.496 67.92C174.752 68.336 175.136 68.544 175.648 68.544C176.256 68.544 176.88 68.24 177.52 67.632C178.16 66.992 178.8 66.176 179.44 65.184C180.112 64.192 180.752 63.12 181.36 61.968C181.968 60.816 182.528 59.712 183.04 58.656C183.584 57.6 184.032 56.72 184.384 56.016C184.576 56.048 184.848 56.112 185.2 56.208C185.584 56.304 185.92 56.432 186.208 56.592C186.528 56.752 186.688 56.976 186.688 57.264C186.688 57.392 186.528 57.824 186.208 58.56C185.888 59.264 185.504 60.144 185.056 61.2C184.64 62.224 184.272 63.264 183.952 64.32C183.632 65.376 183.472 66.304 183.472 67.104C183.472 67.68 183.584 68.144 183.808 68.496C184.064 68.848 184.48 69.024 185.056 69.024C185.728 69.024 186.544 68.72 187.504 68.112C188.464 67.504 189.44 66.624 190.432 65.472C191.424 64.288 192.304 62.88 193.072 61.248L193.696 61.68C193.024 63.408 192.144 64.944 191.056 66.288C189.968 67.6 188.816 68.624 187.6 69.36C186.384 70.096 185.2 70.464 184.048 70.464C183.216 70.464 182.544 70.304 182.032 69.984C181.552 69.664 181.2 69.232 180.976 68.688C180.784 68.144 180.688 67.552 180.688 66.912C180.688 66.528 180.72 66.144 180.784 65.76C180.848 65.344 180.928 64.928 181.024 64.512C180.448 65.568 179.824 66.56 179.152 67.488C178.48 68.384 177.776 69.104 177.04 69.648C176.304 70.192 175.536 70.464 174.736 70.464ZM197.623 71.968C195.788 71.968 194.38 71.4347 193.399 70.368C192.418 69.3013 191.927 67.7227 191.927 65.632C191.927 63.7547 192.268 61.4507 192.951 58.72C193.676 55.9467 194.572 53.1093 195.639 50.208C195.212 50.1227 194.807 50.0587 194.423 50.016C194.039 49.9307 193.676 49.824 193.335 49.696V48.544C193.676 48.5867 194.082 48.6293 194.551 48.672C195.02 48.7147 195.554 48.7573 196.151 48.8C197.047 46.496 198.007 44.2773 199.031 42.144C200.055 39.968 201.058 38.048 202.039 36.384C203.063 34.6773 204.023 33.3333 204.919 32.352C205.858 31.328 206.647 30.816 207.287 30.816C207.628 30.816 207.927 30.944 208.183 31.2C208.482 31.4133 208.631 31.7547 208.631 32.224C208.631 32.9493 208.183 34.144 207.287 35.808C206.391 37.4293 205.282 39.3707 203.959 41.632C202.636 43.8933 201.356 46.3467 200.119 48.992C200.503 48.992 200.887 48.992 201.271 48.992C201.698 48.992 202.103 48.992 202.487 48.992C203.895 48.992 205.367 48.9707 206.903 48.928C208.482 48.8853 210.06 48.7787 211.639 48.608V49.76C209.292 50.016 207.18 50.208 205.303 50.336C203.468 50.464 201.826 50.528 200.375 50.528C200.204 50.528 200.034 50.528 199.863 50.528C199.735 50.528 199.586 50.528 199.415 50.528C198.434 52.7893 197.602 55.1147 196.919 57.504C196.236 59.8933 195.895 62.2187 195.895 64.48C195.895 66.3147 196.172 67.6373 196.727 68.448C197.282 69.216 198.199 69.6 199.479 69.6C201.698 69.6 203.874 68.6187 206.007 66.656C208.14 64.6933 210.018 62.0267 211.639 58.656L212.471 59.296C211.447 61.6853 210.146 63.84 208.567 65.76C207.031 67.68 205.324 69.1947 203.447 70.304C201.57 71.4133 199.628 71.968 197.623 71.968Z" fill="black"/>
<path d="M76.096 136.636C74.8827 136.636 73.9987 136.255 73.444 135.492C72.8893 134.764 72.612 133.88 72.612 132.84C72.612 131.973 72.7333 131.107 72.976 130.24C73.2533 129.373 73.5133 128.524 73.756 127.692C74.0333 126.86 74.172 126.115 74.172 125.456C74.172 124.763 74.016 124.277 73.704 124C73.392 123.723 73.0453 123.584 72.664 123.584C71.7973 123.584 70.844 124.26 69.804 125.612C68.7987 126.964 67.4813 128.871 65.852 131.332C65.2973 132.164 64.8293 133.013 64.448 133.88C64.0667 134.712 63.7027 135.475 63.356 136.168C63.0787 136.168 62.732 136.133 62.316 136.064C61.9 135.995 61.5187 135.873 61.172 135.7C60.86 135.561 60.704 135.371 60.704 135.128C60.704 134.885 60.86 134.313 61.172 133.412C61.5187 132.476 61.9 131.401 62.316 130.188C62.7667 128.94 63.148 127.692 63.46 126.444C63.8067 125.161 63.98 124.069 63.98 123.168C63.98 122.579 63.876 122.111 63.668 121.764C63.4947 121.383 63.1653 121.192 62.68 121.192C61.9173 121.192 60.9987 121.66 59.924 122.596C58.8493 123.497 57.74 124.693 56.596 126.184C55.452 127.675 54.36 129.321 53.32 131.124C52.3147 132.892 51.5 134.66 50.876 136.428C50.564 136.428 50.1827 136.376 49.732 136.272C49.2813 136.168 48.9 136.029 48.588 135.856C48.2413 135.683 48.068 135.509 48.068 135.336C48.068 135.128 48.2587 134.521 48.64 133.516C48.9867 132.476 49.4027 131.245 49.888 129.824C50.3387 128.368 50.7373 126.895 51.084 125.404C51.4653 123.913 51.656 122.596 51.656 121.452C51.864 121.209 52.1933 120.967 52.644 120.724C53.0947 120.481 53.5627 120.36 54.048 120.36C54.5333 120.36 54.88 120.481 55.088 120.724C55.3307 120.967 55.452 121.296 55.452 121.712C55.452 122.163 55.3133 122.943 55.036 124.052C54.7933 125.127 54.4813 126.323 54.1 127.64C54.7933 126.531 55.5733 125.404 56.44 124.26C57.3413 123.081 58.2773 122.007 59.248 121.036C60.2187 120.065 61.1893 119.285 62.16 118.696C63.1653 118.072 64.136 117.76 65.072 117.76C66.1467 117.76 66.8747 118.159 67.256 118.956C67.672 119.719 67.88 120.637 67.88 121.712C67.88 122.579 67.776 123.497 67.568 124.468C67.3947 125.404 67.1867 126.288 66.944 127.12C66.7013 127.917 66.476 128.559 66.268 129.044C66.996 127.727 67.7933 126.461 68.66 125.248C69.5613 124 70.532 122.995 71.572 122.232C72.612 121.435 73.7213 121.036 74.9 121.036C76.0093 121.036 76.772 121.365 77.188 122.024C77.6387 122.683 77.864 123.463 77.864 124.364C77.864 125.265 77.708 126.253 77.396 127.328C77.084 128.403 76.7547 129.443 76.408 130.448C76.096 131.453 75.94 132.32 75.94 133.048C75.94 133.499 76.044 133.915 76.252 134.296C76.4947 134.643 76.9107 134.816 77.5 134.816C78.4707 134.816 79.372 134.383 80.204 133.516C81.0707 132.615 81.868 131.54 82.596 130.292C83.324 129.009 83.948 127.779 84.468 126.6L85.092 127.328C84.5373 128.784 83.8267 130.24 82.96 131.696C82.0933 133.117 81.0707 134.296 79.892 135.232C78.748 136.168 77.4827 136.636 76.096 136.636ZM86.4292 154.064C85.2959 154.064 84.2985 153.747 83.4372 153.112C82.5759 152.523 82.1452 151.639 82.1452 150.46C82.1452 149.009 82.5079 147.717 83.2332 146.584C83.9585 145.451 84.9332 144.408 86.1572 143.456C87.3812 142.504 88.7865 141.597 90.3732 140.736C91.9599 139.875 93.6145 139.013 95.3372 138.152C95.9719 136.475 96.6065 134.616 97.2412 132.576C97.9212 130.491 98.5559 128.201 99.1452 125.708C97.6945 128.065 96.1305 130.105 94.4532 131.828C92.8212 133.505 91.0759 134.344 89.2172 134.344C88.3559 134.344 87.4945 134.163 86.6332 133.8C85.8172 133.392 85.1372 132.78 84.5932 131.964C84.0492 131.148 83.7772 130.105 83.7772 128.836C83.7772 127.567 83.9812 126.093 84.3892 124.416C84.8425 122.739 85.3865 121.107 86.0212 119.52C86.6559 117.933 87.3132 116.619 87.9932 115.576C88.6732 114.533 89.2625 114.012 89.7612 114.012C89.9425 114.012 90.2599 114.08 90.7132 114.216C91.2119 114.352 91.6652 114.556 92.0732 114.828C92.5265 115.055 92.7532 115.304 92.7532 115.576C92.3452 116.165 91.8919 117.004 91.3932 118.092C90.8945 119.18 90.3959 120.404 89.8972 121.764C89.4439 123.079 89.0585 124.371 88.7412 125.64C88.4239 126.909 88.2652 127.997 88.2652 128.904C88.2652 129.72 88.4465 130.377 88.8092 130.876C89.1719 131.375 89.8065 131.624 90.7132 131.624C91.5745 131.624 92.5265 131.216 93.5692 130.4C94.6572 129.539 95.7225 128.451 96.7652 127.136C97.8532 125.821 98.8505 124.416 99.7572 122.92C99.8932 122.421 100.007 121.923 100.097 121.424C100.233 120.88 100.347 120.336 100.437 119.792C100.573 119.157 100.891 118.432 101.389 117.616C101.933 116.755 102.772 116.324 103.905 116.324C104.132 116.324 104.359 116.347 104.585 116.392C104.812 116.392 105.061 116.437 105.333 116.528C105.333 117.253 105.107 118.613 104.653 120.608C104.245 122.557 103.633 124.847 102.817 127.476C102.047 130.105 101.117 132.803 100.029 135.568C102.16 134.752 104.245 133.415 106.285 131.556C108.325 129.652 109.98 127.136 111.249 124.008L112.133 124.688C111.453 126.864 110.411 128.768 109.005 130.4C107.645 131.987 106.104 133.369 104.381 134.548C102.659 135.681 100.959 136.633 99.2812 137.404C98.1025 140.305 96.8105 143.025 95.4052 145.564C94.0452 148.103 92.5945 150.143 91.0532 151.684C89.5572 153.271 88.0159 154.064 86.4292 154.064ZM86.0892 151.888C86.7692 151.888 87.9025 150.981 89.4892 149.168C91.1212 147.4 92.8439 144.272 94.6572 139.784C92.7985 140.781 91.0759 141.756 89.4892 142.708C87.9025 143.705 86.6332 144.771 85.6812 145.904C84.7292 147.037 84.2532 148.352 84.2532 149.848C84.2532 150.211 84.3892 150.641 84.6612 151.14C84.9332 151.639 85.4092 151.888 86.0892 151.888ZM133.96 141.072C130.504 141.072 127.624 139.92 125.32 137.616C123.016 135.312 121.864 131.856 121.864 127.248C121.864 123.648 122.548 120.156 123.916 116.772C125.356 113.316 127.228 110.22 129.532 107.484C131.836 104.748 134.392 102.588 137.2 101.004C140.008 99.348 142.78 98.52 145.516 98.52C148.468 98.52 150.484 99.384 151.564 101.112C152.644 102.84 153.184 104.64 153.184 106.512C153.184 108.6 152.68 110.436 151.672 112.02C150.736 113.604 149.44 114.396 147.784 114.396C146.56 114.396 145.516 113.856 144.652 112.776C145.732 112.2 146.668 111.048 147.46 109.32C148.252 107.52 148.648 105.828 148.648 104.244C148.648 103.38 148.468 102.732 148.108 102.3C147.82 101.796 147.208 101.544 146.272 101.544C144.328 101.544 142.312 102.408 140.224 104.136C138.208 105.864 136.3 108.096 134.5 110.832C132.772 113.568 131.332 116.448 130.18 119.472C129.1 122.496 128.56 125.34 128.56 128.004C128.56 130.236 129.1 132.288 130.18 134.16C131.26 136.032 133.348 136.968 136.444 136.968C139.324 136.968 142.204 136.176 145.084 134.592C148.036 133.008 150.772 130.74 153.292 127.788C155.812 124.836 157.828 121.38 159.34 117.42L160.744 118.5C159.088 122.82 156.82 126.708 153.94 130.164C151.06 133.548 147.892 136.212 144.436 138.156C140.98 140.1 137.488 141.072 133.96 141.072ZM162.498 137.136C160.546 137.136 159.074 136.592 158.082 135.504C157.122 134.448 156.642 133.136 156.642 131.568C156.642 130.128 156.994 128.608 157.698 127.008C158.434 125.408 159.394 123.904 160.578 122.496C161.794 121.088 163.122 119.952 164.562 119.088C166.002 118.192 167.426 117.744 168.834 117.744C169.57 117.744 170.242 117.936 170.85 118.32C171.49 118.704 171.81 119.488 171.81 120.672C171.81 121.888 171.442 123.04 170.706 124.128C170.002 125.184 169.058 126.128 167.874 126.96C166.722 127.792 165.442 128.48 164.034 129.024C162.658 129.536 161.282 129.856 159.906 129.984C159.842 130.304 159.794 130.608 159.762 130.896C159.73 131.184 159.714 131.456 159.714 131.712C159.714 132.192 159.762 132.672 159.858 133.152C159.986 133.632 160.194 134.08 160.482 134.496C160.77 134.88 161.154 135.184 161.634 135.408C162.146 135.632 162.77 135.744 163.506 135.744C164.882 135.744 166.242 135.36 167.586 134.592C168.93 133.792 170.178 132.752 171.33 131.472C172.482 130.192 173.458 128.784 174.258 127.248L174.834 127.68C173.97 129.6 172.866 131.264 171.522 132.672C170.21 134.08 168.77 135.168 167.202 135.936C165.666 136.736 164.098 137.136 162.498 137.136ZM160.146 129.072C161.01 128.784 161.986 128.368 163.074 127.824C164.162 127.248 165.202 126.576 166.194 125.808C167.218 125.04 168.05 124.192 168.69 123.264C169.362 122.336 169.698 121.36 169.698 120.336C169.698 119.984 169.634 119.712 169.506 119.52C169.378 119.328 169.106 119.232 168.69 119.232C167.922 119.232 167.106 119.536 166.242 120.144C165.378 120.72 164.546 121.488 163.746 122.448C162.946 123.408 162.226 124.464 161.586 125.616C160.946 126.768 160.466 127.92 160.146 129.072ZM181.602 136.272C180.514 136.272 179.65 135.984 179.01 135.408C178.402 134.832 178.098 134.08 178.098 133.152C178.098 132.192 178.322 131.184 178.77 130.128C179.218 129.072 179.65 128.032 180.066 127.008C180.514 125.952 180.738 125.008 180.738 124.176C180.738 123.152 180.434 122.4 179.826 121.92C179.25 121.408 178.658 120.944 178.05 120.528C177.314 122.416 176.546 124.208 175.746 125.904C174.946 127.6 174.29 128.88 173.778 129.744L173.346 128.928C173.794 128.096 174.37 126.88 175.074 125.28C175.81 123.68 176.53 121.856 177.234 119.808C176.914 119.488 176.754 119.104 176.754 118.656C176.754 117.696 177.026 116.912 177.57 116.304C178.114 115.696 178.514 115.392 178.77 115.392C179.122 115.392 179.314 115.552 179.346 115.872C179.41 116.16 179.442 116.384 179.442 116.544C179.442 116.704 179.346 117.024 179.154 117.504C178.994 117.952 178.914 118.224 178.914 118.32C178.914 118.768 179.154 119.184 179.634 119.568C180.146 119.92 180.722 120.336 181.362 120.816C182.002 121.264 182.562 121.824 183.042 122.496C183.554 123.136 183.81 123.968 183.81 124.992C183.81 125.952 183.602 126.928 183.186 127.92C182.802 128.912 182.402 129.856 181.986 130.752C181.602 131.648 181.41 132.432 181.41 133.104C181.41 133.68 181.554 134.064 181.842 134.256C182.13 134.448 182.466 134.544 182.85 134.544C183.618 134.544 184.402 134.304 185.202 133.824C186.034 133.344 186.834 132.736 187.602 132C188.37 131.264 189.058 130.496 189.666 129.696C190.274 128.864 190.722 128.096 191.01 127.392L191.634 127.872C191.026 129.216 190.194 130.544 189.138 131.856C188.082 133.136 186.898 134.192 185.586 135.024C184.306 135.856 182.978 136.272 181.602 136.272ZM195.426 137.968C193.591 137.968 192.183 137.435 191.202 136.368C190.22 135.301 189.73 133.723 189.73 131.632C189.73 129.755 190.071 127.451 190.754 124.72C191.479 121.947 192.375 119.109 193.442 116.208C193.015 116.123 192.61 116.059 192.226 116.016C191.842 115.931 191.479 115.824 191.138 115.696V114.544C191.479 114.587 191.884 114.629 192.354 114.672C192.823 114.715 193.356 114.757 193.954 114.8C194.85 112.496 195.81 110.277 196.834 108.144C197.858 105.968 198.86 104.048 199.842 102.384C200.866 100.677 201.826 99.3333 202.722 98.352C203.66 97.328 204.45 96.816 205.09 96.816C205.431 96.816 205.73 96.944 205.986 97.2C206.284 97.4133 206.434 97.7547 206.434 98.224C206.434 98.9493 205.986 100.144 205.09 101.808C204.194 103.429 203.084 105.371 201.762 107.632C200.439 109.893 199.159 112.347 197.922 114.992C198.306 114.992 198.69 114.992 199.074 114.992C199.5 114.992 199.906 114.992 200.29 114.992C201.698 114.992 203.17 114.971 204.706 114.928C206.284 114.885 207.863 114.779 209.442 114.608V115.76C207.095 116.016 204.983 116.208 203.106 116.336C201.271 116.464 199.628 116.528 198.178 116.528C198.007 116.528 197.836 116.528 197.666 116.528C197.538 116.528 197.388 116.528 197.218 116.528C196.236 118.789 195.404 121.115 194.722 123.504C194.039 125.893 193.698 128.219 193.698 130.48C193.698 132.315 193.975 133.637 194.53 134.448C195.084 135.216 196.002 135.6 197.282 135.6C199.5 135.6 201.676 134.619 203.81 132.656C205.943 130.693 207.82 128.027 209.442 124.656L210.274 125.296C209.25 127.685 207.948 129.84 206.37 131.76C204.834 133.68 203.127 135.195 201.25 136.304C199.372 137.413 197.431 137.968 195.426 137.968ZM211.692 136.272C210.444 136.272 209.516 135.872 208.908 135.072C208.3 134.304 207.996 133.36 207.996 132.24C207.996 131.504 208.124 130.576 208.38 129.456C208.668 128.336 209.036 127.168 209.484 125.952C209.932 124.704 210.444 123.536 211.02 122.448C211.628 121.36 212.268 120.48 212.94 119.808C213.612 119.104 214.268 118.752 214.908 118.752C215.196 118.752 215.436 118.848 215.628 119.04C215.852 119.2 215.964 119.456 215.964 119.808C215.964 120.192 215.708 120.816 215.196 121.68C214.716 122.544 214.14 123.536 213.468 124.656C212.796 125.776 212.204 126.96 211.692 128.208C211.212 129.424 210.972 130.592 210.972 131.712C210.972 132.864 211.164 133.632 211.548 134.016C211.932 134.4 212.524 134.592 213.324 134.592C214.412 134.592 215.564 134.048 216.78 132.96C218.028 131.872 219.34 129.968 220.716 127.248L221.148 127.728C220.22 130.48 218.876 132.592 217.116 134.064C215.388 135.536 213.58 136.272 211.692 136.272ZM217.452 114.288C216.94 114.288 216.476 114.16 216.06 113.904C215.676 113.648 215.484 113.248 215.484 112.704C215.484 112.032 215.868 111.456 216.636 110.976C217.436 110.464 218.22 110.208 218.988 110.208C219.468 110.208 219.852 110.32 220.14 110.544C220.428 110.768 220.572 111.152 220.572 111.696C220.572 112.304 220.236 112.896 219.564 113.472C218.924 114.016 218.22 114.288 217.452 114.288ZM219.19 148.464C218.87 148.464 218.502 148.352 218.086 148.128C217.67 147.936 217.318 147.536 217.03 146.928C216.71 146.32 216.55 145.424 216.55 144.24C216.55 142.832 216.79 140.992 217.27 138.72C217.75 136.48 218.406 134 219.238 131.28C220.07 128.56 221.03 125.776 222.118 122.928C223.206 120.048 224.374 117.28 225.622 114.624C226.902 111.936 228.198 109.536 229.51 107.424C230.854 105.28 232.166 103.584 233.446 102.336C234.726 101.088 235.942 100.464 237.094 100.464C237.766 100.464 238.198 100.672 238.39 101.088C238.614 101.504 238.726 102 238.726 102.576C238.726 103.952 238.342 105.456 237.574 107.088C236.838 108.72 235.846 110.368 234.598 112.032C233.35 113.664 231.974 115.232 230.47 116.736C228.966 118.208 227.446 119.472 225.91 120.528C225.75 120.912 225.59 121.312 225.43 121.728C225.302 122.112 225.158 122.512 224.998 122.928C225.35 122.992 225.622 123.184 225.814 123.504C226.038 123.792 226.166 124.112 226.198 124.464C226.422 125.904 226.662 127.2 226.918 128.352C227.174 129.472 227.558 130.352 228.07 130.992C228.614 131.632 229.382 131.952 230.374 131.952C231.494 131.952 232.438 131.552 233.206 130.752C233.974 129.92 234.806 128.752 235.702 127.248L236.422 127.728C235.622 129.648 234.598 131.04 233.35 131.904C232.134 132.768 231.062 133.2 230.134 133.2C229.558 133.2 228.95 133.056 228.31 132.768C227.702 132.48 227.126 132.096 226.582 131.616C226.582 133.632 226.358 135.632 225.91 137.616C225.494 139.6 224.934 141.408 224.23 143.04C223.526 144.672 222.742 145.984 221.878 146.976C221.014 147.968 220.118 148.464 219.19 148.464ZM220.438 146.16C220.79 146.16 221.19 145.84 221.638 145.2C222.086 144.56 222.518 143.712 222.934 142.656C223.382 141.632 223.782 140.496 224.134 139.248C224.486 138 224.774 136.752 224.998 135.504C225.222 134.256 225.334 133.136 225.334 132.144C225.334 131.152 225.206 130.256 224.95 129.456C224.694 128.624 224.278 127.648 223.702 126.528C222.902 128.928 222.182 131.248 221.542 133.488C220.902 135.728 220.406 137.744 220.054 139.536C219.702 141.328 219.526 142.768 219.526 143.856C219.526 145.392 219.83 146.16 220.438 146.16ZM226.678 118.56C228.758 116.64 230.55 114.72 232.054 112.8C233.59 110.848 234.774 109.12 235.606 107.616C236.438 106.08 236.854 104.992 236.854 104.352C236.854 103.904 236.63 103.68 236.182 103.68C235.35 103.68 234.406 104.368 233.35 105.744C232.294 107.088 231.19 108.88 230.038 111.12C228.886 113.36 227.766 115.84 226.678 118.56ZM237.359 135.96C236.423 135.96 235.727 135.66 235.271 135.06C234.815 134.484 234.587 133.776 234.587 132.936C234.587 132.384 234.683 131.688 234.875 130.848C235.091 130.008 235.367 129.132 235.703 128.22C236.039 127.284 236.423 126.408 236.855 125.592C237.311 124.776 237.791 124.116 238.295 123.612C238.799 123.084 239.291 122.82 239.771 122.82C239.987 122.82 240.167 122.892 240.311 123.036C240.479 123.156 240.563 123.348 240.563 123.612C240.563 123.9 240.371 124.368 239.987 125.016C239.627 125.664 239.195 126.408 238.691 127.248C238.187 128.088 237.743 128.976 237.359 129.912C236.999 130.824 236.819 131.7 236.819 132.54C236.819 133.404 236.963 133.98 237.251 134.268C237.539 134.556 237.983 134.7 238.583 134.7C239.399 134.7 240.263 134.292 241.175 133.476C242.111 132.66 243.095 131.232 244.127 129.192L244.451 129.552C243.755 131.616 242.747 133.2 241.427 134.304C240.131 135.408 238.775 135.96 237.359 135.96ZM241.679 119.472C241.295 119.472 240.947 119.376 240.635 119.184C240.347 118.992 240.203 118.692 240.203 118.284C240.203 117.78 240.491 117.348 241.067 116.988C241.667 116.604 242.255 116.412 242.831 116.412C243.191 116.412 243.479 116.496 243.695 116.664C243.911 116.832 244.019 117.12 244.019 117.528C244.019 117.984 243.767 118.428 243.263 118.86C242.783 119.268 242.255 119.472 241.679 119.472ZM248.587 137.712C247.051 137.712 245.771 137.2 244.747 136.176C243.723 135.152 243.211 133.616 243.211 131.568C243.211 129.968 243.515 128.416 244.123 126.912C244.763 125.376 245.595 124 246.619 122.784C247.643 121.568 248.779 120.608 250.027 119.904C251.275 119.168 252.507 118.8 253.723 118.8C255.035 118.8 255.931 119.184 256.411 119.952C256.891 120.72 257.131 121.52 257.131 122.352C257.131 123.28 256.907 124.096 256.459 124.8C256.043 125.504 255.467 125.856 254.731 125.856C254.187 125.856 253.723 125.616 253.339 125.136C253.819 124.88 254.235 124.368 254.587 123.6C254.939 122.8 255.115 122.048 255.115 121.344C255.115 120.96 255.035 120.672 254.875 120.48C254.747 120.256 254.475 120.144 254.059 120.144C253.195 120.144 252.299 120.528 251.371 121.296C250.475 122.064 249.627 123.056 248.827 124.272C248.059 125.488 247.419 126.768 246.907 128.112C246.427 129.456 246.187 130.72 246.187 131.904C246.187 132.896 246.427 133.808 246.907 134.64C247.387 135.472 248.315 135.888 249.691 135.888C250.971 135.888 252.251 135.536 253.531 134.832C254.843 134.128 256.059 133.12 257.179 131.808C258.299 130.496 259.195 128.96 259.867 127.2L260.491 127.68C259.755 129.6 258.747 131.328 257.467 132.864C256.187 134.368 254.779 135.552 253.243 136.416C251.707 137.28 250.155 137.712 248.587 137.712ZM261.27 137.28C260.278 137.28 259.446 136.944 258.774 136.272C258.07 135.632 257.718 134.64 257.718 133.296C257.718 132.144 257.974 130.912 258.486 129.6C258.998 128.256 259.702 126.944 260.598 125.664C261.494 124.352 262.502 123.168 263.622 122.112C264.774 121.024 265.974 120.16 267.222 119.52C268.502 118.88 269.766 118.56 271.014 118.56C272.262 118.56 273.302 118.896 274.134 119.568C274.966 120.208 275.382 121.072 275.382 122.16C275.382 122.96 275.158 123.504 274.71 123.792C274.294 124.08 273.734 124.224 273.03 124.224C273.094 123.968 273.142 123.696 273.174 123.408C273.238 123.088 273.27 122.8 273.27 122.544C273.27 121.808 273.094 121.184 272.742 120.672C272.39 120.128 271.782 119.856 270.918 119.856C270.022 119.856 269.11 120.176 268.182 120.816C267.254 121.424 266.358 122.256 265.494 123.312C264.63 124.336 263.862 125.456 263.19 126.672C262.518 127.888 261.99 129.088 261.606 130.272C261.222 131.456 261.03 132.512 261.03 133.44C261.03 134.688 261.462 135.312 262.326 135.312C263.062 135.312 263.862 134.976 264.726 134.304C265.59 133.6 266.47 132.72 267.366 131.664C268.294 130.576 269.174 129.456 270.006 128.304C270.838 127.152 271.574 126.096 272.214 125.136C272.342 124.944 272.422 124.848 272.454 124.848C272.646 124.88 272.886 124.944 273.174 125.04C273.494 125.136 273.766 125.264 273.99 125.424C274.214 125.584 274.326 125.792 274.326 126.048C274.326 126.336 274.182 126.736 273.894 127.248C273.606 127.728 273.286 128.288 272.934 128.928C272.582 129.568 272.262 130.224 271.974 130.896C271.686 131.536 271.542 132.144 271.542 132.72C271.542 133.2 271.67 133.68 271.926 134.16C272.182 134.608 272.598 134.832 273.174 134.832C274.038 134.832 275.174 134.208 276.582 132.96C277.99 131.68 279.414 129.776 280.854 127.248L281.334 127.728C280.662 129.456 279.798 130.976 278.742 132.288C277.686 133.6 276.55 134.624 275.334 135.36C274.15 136.096 272.982 136.464 271.83 136.464C270.646 136.464 269.766 136.112 269.19 135.408C268.646 134.704 268.374 133.936 268.374 133.104C268.374 132.912 268.39 132.704 268.422 132.48C268.454 132.224 268.486 131.968 268.518 131.712C267.142 133.568 265.878 134.96 264.726 135.888C263.606 136.816 262.454 137.28 261.27 137.28ZM285.312 137.968C283.478 137.968 282.07 137.435 281.088 136.368C280.107 135.301 279.616 133.723 279.616 131.632C279.616 129.755 279.958 127.451 280.64 124.72C281.366 121.947 282.262 119.109 283.328 116.208C282.902 116.123 282.496 116.059 282.112 116.016C281.728 115.931 281.366 115.824 281.024 115.696V114.544C281.366 114.587 281.771 114.629 282.24 114.672C282.71 114.715 283.243 114.757 283.84 114.8C284.736 112.496 285.696 110.277 286.72 108.144C287.744 105.968 288.747 104.048 289.728 102.384C290.752 100.677 291.712 99.3333 292.608 98.352C293.547 97.328 294.336 96.816 294.976 96.816C295.318 96.816 295.616 96.944 295.872 97.2C296.171 97.4133 296.32 97.7547 296.32 98.224C296.32 98.9493 295.872 100.144 294.976 101.808C294.08 103.429 292.971 105.371 291.648 107.632C290.326 109.893 289.046 112.347 287.808 114.992C288.192 114.992 288.576 114.992 288.96 114.992C289.387 114.992 289.792 114.992 290.176 114.992C291.584 114.992 293.056 114.971 294.592 114.928C296.171 114.885 297.75 114.779 299.328 114.608V115.76C296.982 116.016 294.87 116.208 292.992 116.336C291.158 116.464 289.515 116.528 288.064 116.528C287.894 116.528 287.723 116.528 287.552 116.528C287.424 116.528 287.275 116.528 287.104 116.528C286.123 118.789 285.291 121.115 284.608 123.504C283.926 125.893 283.584 128.219 283.584 130.48C283.584 132.315 283.862 133.637 284.416 134.448C284.971 135.216 285.888 135.6 287.168 135.6C289.387 135.6 291.563 134.619 293.696 132.656C295.83 130.693 297.707 128.027 299.328 124.656L300.16 125.296C299.136 127.685 297.835 129.84 296.256 131.76C294.72 133.68 293.014 135.195 291.136 136.304C289.259 137.413 287.318 137.968 285.312 137.968ZM303.306 137.136C301.354 137.136 299.882 136.592 298.89 135.504C297.93 134.448 297.45 133.136 297.45 131.568C297.45 130.128 297.802 128.608 298.506 127.008C299.242 125.408 300.202 123.904 301.386 122.496C302.602 121.088 303.93 119.952 305.37 119.088C306.81 118.192 308.234 117.744 309.642 117.744C310.378 117.744 311.05 117.936 311.658 118.32C312.298 118.704 312.618 119.488 312.618 120.672C312.618 121.888 312.25 123.04 311.514 124.128C310.81 125.184 309.866 126.128 308.682 126.96C307.53 127.792 306.25 128.48 304.842 129.024C303.466 129.536 302.09 129.856 300.714 129.984C300.65 130.304 300.602 130.608 300.57 130.896C300.538 131.184 300.522 131.456 300.522 131.712C300.522 132.192 300.57 132.672 300.666 133.152C300.794 133.632 301.002 134.08 301.29 134.496C301.578 134.88 301.962 135.184 302.442 135.408C302.954 135.632 303.578 135.744 304.314 135.744C305.69 135.744 307.05 135.36 308.394 134.592C309.738 133.792 310.986 132.752 312.138 131.472C313.29 130.192 314.266 128.784 315.066 127.248L315.642 127.68C314.778 129.6 313.674 131.264 312.33 132.672C311.018 134.08 309.578 135.168 308.01 135.936C306.474 136.736 304.906 137.136 303.306 137.136ZM300.954 129.072C301.818 128.784 302.794 128.368 303.882 127.824C304.97 127.248 306.01 126.576 307.002 125.808C308.026 125.04 308.858 124.192 309.498 123.264C310.17 122.336 310.506 121.36 310.506 120.336C310.506 119.984 310.442 119.712 310.314 119.52C310.186 119.328 309.914 119.232 309.498 119.232C308.73 119.232 307.914 119.536 307.05 120.144C306.186 120.72 305.354 121.488 304.554 122.448C303.754 123.408 303.034 124.464 302.394 125.616C301.754 126.768 301.274 127.92 300.954 129.072ZM320.827 138.288C318.821 138.288 317.221 137.84 316.027 136.944C314.875 136.091 314.064 135.024 313.595 133.744C313.083 132.464 312.827 131.184 312.827 129.904C312.827 128.624 312.997 127.643 313.339 126.96C313.68 126.277 314.085 125.765 314.555 125.424C315.067 125.083 315.536 124.827 315.963 124.656C316.432 124.485 316.752 124.315 316.923 124.144C318.203 122.736 319.376 121.264 320.443 119.728C321.509 118.192 322.448 116.571 323.259 114.864V114.096C323.259 112.517 323.515 111.408 324.027 110.768C324.581 110.085 325.157 109.744 325.755 109.744C326.096 109.744 326.352 109.829 326.523 110C326.693 110.171 326.779 110.363 326.779 110.576C326.779 110.789 326.715 111.131 326.587 111.6C326.459 112.069 326.395 112.667 326.395 113.392C326.395 114.8 326.672 116.336 327.227 118C327.781 119.621 328.336 121.349 328.891 123.184C329.445 124.976 329.723 126.853 329.723 128.816C329.723 129.371 329.68 129.925 329.595 130.48C329.552 130.992 329.467 131.483 329.339 131.952C330.832 131.696 332.24 131.035 333.563 129.968C334.885 128.859 336.165 127.109 337.403 124.72L337.979 125.36C337.168 127.707 335.952 129.499 334.331 130.736C332.709 131.931 330.939 132.677 329.019 132.976C328.336 134.811 327.248 136.155 325.755 137.008C324.304 137.861 322.661 138.288 320.827 138.288ZM320.955 136.048C321.467 136.048 322.149 135.877 323.003 135.536C323.856 135.195 324.517 134.32 324.987 132.912C323.195 132.571 321.595 131.867 320.187 130.8C318.821 129.733 317.797 128.667 317.115 127.6C316.176 127.643 315.707 128.389 315.707 129.84C315.707 131.376 316.155 132.805 317.051 134.128C317.989 135.408 319.291 136.048 320.955 136.048ZM325.307 131.888C325.392 131.461 325.456 131.013 325.499 130.544C325.541 130.075 325.563 129.52 325.563 128.88C325.563 126.875 325.307 124.891 324.795 122.928C324.325 120.923 323.92 119.045 323.579 117.296C322.597 118.917 321.552 120.475 320.443 121.968C319.376 123.419 318.352 124.635 317.371 125.616C318.011 126.981 318.992 128.261 320.315 129.456C321.68 130.651 323.344 131.461 325.307 131.888Z" fill="black"/>
</svg>
