<?xml version="1.0" encoding="UTF-8" standalone="no"?>
<svg
   width="338"
   height="155"
   viewBox="0 0 338 155"
   fill="none"
   version="1.1"
   id="svg2"
   xmlns="http://www.w3.org/2000/svg"
   xmlns:svg="http://www.w3.org/2000/svg">
  <defs
     id="defs2" />
  <rect
     width="338"
     height="155"
     fill="#1E1E1E"
     id="rect1" />
  <path
     d="m 18.912,77.376 c -4.544,0 -8.224,-1.152 -11.04,-3.456 C 5.12,71.68 3.104,68.768 1.824,65.184 0.608001,61.6 6.55651e-7,57.856 6.55651e-7,53.952 6.55651e-7,48.896 0.768001,43.808 2.304,38.688 3.84,33.568 5.92,28.704 8.544,24.096 c 2.688,-4.672 5.728,-8.8 9.12,-12.384 C 21.056,8.064 24.608,5.216 28.32,3.168 32.096,1.056 35.808,0 39.456,0 c 2.624,0 4.736,0.639999 6.336,1.92 1.664,1.216 2.496,3.328 2.496,6.336 0,1.856 -0.32,3.968 -0.96,6.336 -0.64,2.304 -1.504,4.544 -2.592,6.72 -1.088,2.112 -2.304,3.872 -3.648,5.28 -1.28,1.408 -2.592,2.112 -3.936,2.112 -0.512,0 -1.056,-0.16 -1.632,-0.48 -0.512,-0.32 -0.96,-0.896 -1.344,-1.728 0.96,-1.088 2.016,-2.432 3.168,-4.032 1.216,-1.664 2.368,-3.392 3.456,-5.184 1.088,-1.856 1.952,-3.648 2.592,-5.376 0.704,-1.792 1.056,-3.36 1.056,-4.704 0,-1.28 -0.384,-2.304 -1.152,-3.072 C 42.592,3.296 41.408,2.88 39.744,2.88 c -2.752,0 -5.632,1.12 -8.64,3.36 -2.944,2.24 -5.824,5.248 -8.64,9.024 -2.752,3.712 -5.248,7.872 -7.488,12.48 -2.24,4.608 -4.032,9.312 -5.376,14.112 -1.28,4.8 -1.92,9.376 -1.92,13.728 0,3.136 0.448,6.144 1.344,9.024 0.896,2.816 2.336,5.088 4.32,6.816 2.048,1.792 4.672,2.688 7.872,2.688 3.392,0 6.752,-0.96 10.08,-2.88 3.392,-1.92 6.496,-4.448 9.312,-7.584 2.816,-3.136 5.056,-6.528 6.72,-10.176 l 1.344,0.96 c -2.112,4.16 -4.672,8 -7.68,11.52 -3.008,3.456 -6.368,6.208 -10.08,8.256 -3.712,2.112 -7.712,3.168 -12,3.168 z m 32.5133,-6.528 c -0.608,0 -1.088,-0.512 -1.44,-1.536 -0.352,-1.024 -0.528,-2.176 -0.528,-3.456 0,-1.536 0.256,-3.36 0.768,-5.472 0.512,-2.112 1.184,-4.336 2.016,-6.672 0.832,-2.336 1.76,-4.624 2.784,-6.864 1.056,-2.24 2.128,-4.272 3.216,-6.096 1.088,-1.824 2.112,-3.28 3.072,-4.368 0.96,-1.088 1.792,-1.632 2.496,-1.632 0.576,0 0.976,0.352 1.2,1.056 0.256,0.672 0.384,1.328 0.384,1.968 0,0.896 -0.208,1.984 -0.624,3.264 -0.384,1.28 -0.928,2.656 -1.632,4.128 -0.704,1.44 -1.52,2.864 -2.448,4.272 -0.928,1.408 -1.936,2.704 -3.024,3.888 -1.088,1.152 -2.192,2.064 -3.312,2.736 -0.384,0.928 -0.72,1.968 -1.008,3.12 -0.256,1.152 -0.448,2.288 -0.576,3.408 -0.128,1.088 -0.192,2.064 -0.192,2.928 0,0.352 0,0.656 0,0.912 0.032,0.256 0.064,0.496 0.096,0.72 0.448,-1.312 0.928,-2.576 1.44,-3.792 0.544,-1.248 1.12,-2.384 1.728,-3.408 0.608,-1.056 1.248,-1.968 1.92,-2.736 0.704,-0.8 1.44,-1.408 2.208,-1.824 0.768,-0.448 1.584,-0.672 2.448,-0.672 0.896,0 1.6,0.224 2.112,0.672 0.544,0.416 0.928,0.96 1.152,1.632 0.256,0.64 0.384,1.312 0.384,2.016 0,0.992 -0.176,1.952 -0.528,2.88 -0.32,0.928 -0.656,1.824 -1.008,2.688 -0.352,0.864 -0.528,1.696 -0.528,2.496 0,0.64 0.128,1.104 0.384,1.392 0.288,0.288 0.64,0.432 1.056,0.432 0.736,0 1.552,-0.352 2.448,-1.056 0.928,-0.704 1.84,-1.632 2.736,-2.784 0.896,-1.184 1.664,-2.464 2.304,-3.84 l 0.624,0.576 c -0.672,1.568 -1.488,2.992 -2.448,4.272 -0.96,1.248 -2.016,2.24 -3.168,2.976 -1.152,0.736 -2.352,1.104 -3.6,1.104 -1.088,0 -1.92,-0.288 -2.496,-0.864 -0.544,-0.576 -0.816,-1.296 -0.816,-2.16 0,-0.672 0.128,-1.424 0.384,-2.256 0.256,-0.832 0.496,-1.68 0.72,-2.544 0.256,-0.864 0.384,-1.68 0.384,-2.448 0,-0.832 -0.176,-1.424 -0.528,-1.776 -0.352,-0.352 -0.784,-0.528 -1.296,-0.528 -0.8,0 -1.52,0.32 -2.16,0.96 -0.64,0.64 -1.232,1.472 -1.776,2.496 -0.512,0.992 -1.008,2.048 -1.488,3.168 -0.448,1.12 -0.88,2.192 -1.296,3.216 -0.416,0.992 -0.832,1.808 -1.248,2.448 -0.416,0.64 -0.848,0.96 -1.296,0.96 z m 3.552,-16.656 c 0.896,-0.704 1.76,-1.6 2.592,-2.688 0.864,-1.088 1.664,-2.24 2.4,-3.456 0.736,-1.248 1.392,-2.464 1.968,-3.648 0.576,-1.184 1.024,-2.256 1.344,-3.216 0.32,-0.96 0.48,-1.68 0.48,-2.16 0,-0.16 -0.016,-0.256 -0.048,-0.288 -0.032,-0.064 -0.08,-0.096 -0.144,-0.096 -0.224,0 -0.688,0.448 -1.392,1.344 -0.672,0.864 -1.456,2.032 -2.352,3.504 -0.896,1.472 -1.776,3.136 -2.64,4.992 -0.864,1.856 -1.6,3.76 -2.208,5.712 z m 22.2041,16.944 c -1.952,0 -3.424,-0.544 -4.416,-1.632 -0.96,-1.056 -1.44,-2.368 -1.44,-3.936 0,-1.44 0.352,-2.96 1.056,-4.56 0.736,-1.6 1.696,-3.104 2.88,-4.512 1.216,-1.408 2.544,-2.544 3.984,-3.408 1.44,-0.896 2.864,-1.344 4.272,-1.344 0.736,0 1.408,0.192 2.016,0.576 0.64,0.384 0.96,1.168 0.96,2.352 0,1.216 -0.368,2.368 -1.104,3.456 -0.704,1.056 -1.648,2 -2.832,2.832 -1.152,0.832 -2.432,1.52 -3.84,2.064 -1.376,0.512 -2.752,0.832 -4.128,0.96 -0.064,0.32 -0.112,0.624 -0.144,0.912 -0.032,0.288 -0.048,0.56 -0.048,0.816 0,0.48 0.048,0.96 0.144,1.44 0.128,0.48 0.336,0.928 0.624,1.344 0.288,0.384 0.672,0.688 1.152,0.912 0.512,0.224 1.136,0.336 1.872,0.336 1.376,0 2.736,-0.384 4.08,-1.152 1.344,-0.8 2.592,-1.84 3.744,-3.12 1.152,-1.28 2.128,-2.688 2.928,-4.224 l 0.576,0.432 c -0.864,1.92 -1.968,3.584 -3.312,4.992 -1.312,1.408 -2.752,2.496 -4.32,3.264 -1.536,0.8 -3.104,1.2 -4.704,1.2 z m -2.352,-8.064 c 0.864,-0.288 1.84,-0.704 2.928,-1.248 1.088,-0.576 2.128,-1.248 3.12,-2.016 1.024,-0.768 1.856,-1.616 2.496,-2.544 0.672,-0.928 1.008,-1.904 1.008,-2.928 0,-0.352 -0.064,-0.624 -0.192,-0.816 -0.128,-0.192 -0.4,-0.288 -0.816,-0.288 -0.768,0 -1.584,0.304 -2.448,0.912 -0.864,0.576 -1.696,1.344 -2.496,2.304 -0.8,0.96 -1.52,2.016 -2.16,3.168 -0.64,1.152 -1.12,2.304 -1.44,3.456 z m 19.3584,9.2 c -1.856,0 -3.4027,-0.6187 -4.64,-1.856 -1.2374,-1.2373 -1.856,-3.0933 -1.856,-5.568 0,-1.9333 0.3673,-3.8087 1.102,-5.626 0.7733,-1.856 1.7786,-3.5187 3.016,-4.988 1.2373,-1.4693 2.61,-2.6293 4.118,-3.48 1.508,-0.8893 2.9966,-1.334 4.4662,-1.334 1.585,0 2.668,0.464 3.248,1.392 0.58,0.928 0.87,1.8947 0.87,2.9 0,1.1213 -0.271,2.1073 -0.812,2.958 -0.503,0.8507 -1.199,1.276 -2.088,1.276 -0.658,0 -1.218,-0.29 -1.6822,-0.87 0.5802,-0.3093 1.0822,-0.928 1.5082,-1.856 0.425,-0.9667 0.638,-1.8753 0.638,-2.726 0,-0.464 -0.097,-0.812 -0.29,-1.044 -0.155,-0.2707 -0.484,-0.406 -0.986,-0.406 -1.0442,0 -2.1269,0.464 -3.2482,1.392 -1.0827,0.928 -2.1074,2.1267 -3.074,3.596 -0.928,1.4693 -1.7014,3.016 -2.32,4.64 -0.58,1.624 -0.87,3.1513 -0.87,4.582 0,1.1987 0.29,2.3007 0.87,3.306 0.58,1.0053 1.7013,1.508 3.364,1.508 1.5466,0 3.0933,-0.4253 4.6402,-1.276 1.585,-0.8507 3.054,-2.0687 4.408,-3.654 1.353,-1.5853 2.436,-3.4413 3.248,-5.568 l 0.754,0.58 c -0.89,2.32 -2.108,4.408 -3.654,6.264 -1.547,1.8173 -3.248,3.248 -5.1042,4.292 -1.856,1.044 -3.7314,1.566 -5.626,1.566 z m 31.5502,-0.816 c -1.195,0 -2.219,-0.4053 -3.072,-1.216 -0.854,-0.8107 -1.536,-1.8347 -2.048,-3.072 -0.47,-1.2373 -0.832,-2.496 -1.088,-3.776 -0.214,-1.3227 -0.32,-2.4747 -0.32,-3.456 0.469,0 1.152,-0.1067 2.048,-0.32 0.896,-0.256 1.813,-0.6187 2.752,-1.088 0.938,-0.512 1.728,-1.152 2.368,-1.92 0.682,-0.8107 1.024,-1.7493 1.024,-2.816 0,-0.896 -0.32,-1.6 -0.96,-2.112 -0.64,-0.512 -1.387,-0.768 -2.24,-0.768 -1.323,0 -2.56,0.4693 -3.712,1.408 -1.152,0.896 -2.198,2.0907 -3.136,3.584 -0.896,1.4507 -1.707,3.008 -2.432,4.672 -0.726,1.664 -1.344,3.2427 -1.856,4.736 -0.512,1.4933 -0.939,2.7307 -1.28,3.712 -0.256,0.768 -0.619,1.28 -1.088,1.536 -0.47,0.2987 -0.96,0.448 -1.472,0.448 -0.726,0 -1.259,-0.2987 -1.6,-0.896 -0.299,-0.5973 -0.491,-1.344 -0.576,-2.24 -0.043,-0.9387 -0.064,-1.8987 -0.064,-2.88 0,-2.2187 0.362,-4.7787 1.088,-7.68 0.725,-2.9013 1.685,-5.9093 2.88,-9.024 1.237,-3.1573 2.581,-6.208 4.032,-9.152 1.45,-2.944 2.901,-5.6107 4.352,-8 1.45,-2.3893 2.794,-4.288 4.032,-5.696 1.237,-1.408 2.24,-2.112 3.008,-2.112 0.597,0 1.066,0.4053 1.408,1.216 0.384,0.8107 0.576,1.792 0.576,2.944 0,1.4507 -0.32,3.0933 -0.96,4.928 -0.64,1.792 -1.558,3.6053 -2.752,5.44 -1.152,1.8347 -2.539,3.5627 -4.16,5.184 -1.579,1.6213 -3.307,3.008 -5.184,4.16 -1.408,3.456 -2.475,6.8267 -3.2,10.112 -0.683,3.2427 -1.024,5.9733 -1.024,8.192 0.682,-1.7067 1.493,-3.584 2.432,-5.632 0.981,-2.048 2.09,-4.0107 3.328,-5.888 1.237,-1.8773 2.581,-3.4133 4.032,-4.608 1.45,-1.1947 2.965,-1.792 4.544,-1.792 1.578,0 2.922,0.5547 4.032,1.664 1.109,1.1093 1.664,2.4533 1.664,4.032 0,1.3653 -0.363,2.5387 -1.088,3.52 -0.683,0.9387 -1.536,1.7067 -2.56,2.304 -0.982,0.5547 -1.984,0.9813 -3.008,1.28 -0.982,0.256 -1.792,0.384 -2.432,0.384 0.042,0.3413 0.17,0.96 0.384,1.856 0.213,0.896 0.512,1.8347 0.896,2.816 0.426,0.9813 0.938,1.8347 1.536,2.56 0.597,0.6827 1.322,1.024 2.176,1.024 1.237,0 2.41,-0.4693 3.52,-1.408 1.109,-0.9387 2.154,-2.176 3.136,-3.712 1.024,-1.5787 1.962,-3.3493 2.816,-5.312 l 0.64,0.64 c -0.598,2.0907 -1.515,4.0747 -2.752,5.952 -1.238,1.8347 -2.624,3.328 -4.16,4.48 -1.494,1.1947 -2.987,1.792 -4.48,1.792 z M 116.394,44.64 c 1.962,-1.5787 3.669,-3.3707 5.12,-5.376 1.493,-2.0053 2.645,-3.9253 3.456,-5.76 0.81,-1.8773 1.216,-3.3493 1.216,-4.416 0,-0.2133 -0.022,-0.3627 -0.064,-0.448 0,-0.0853 -0.043,-0.128 -0.128,-0.128 -0.427,0 -1.174,0.7467 -2.24,2.24 -1.024,1.4933 -2.198,3.4773 -3.52,5.952 -1.323,2.432 -2.603,5.0773 -3.84,7.936 z m 35.783,26.432 c -1.835,0 -3.136,-0.576 -3.904,-1.728 -0.768,-1.1093 -1.152,-2.4747 -1.152,-4.096 0,-1.3227 0.213,-2.688 0.64,-4.096 0.427,-1.408 0.981,-2.7307 1.664,-3.968 0.725,-1.2373 1.515,-2.24 2.368,-3.008 0.896,-0.768 1.792,-1.152 2.688,-1.152 0.213,0 0.427,0.0427 0.64,0.128 0.256,0.0427 0.491,0.1067 0.704,0.192 -0.384,0.3413 -0.853,0.9813 -1.408,1.92 -0.512,0.896 -1.003,1.9413 -1.472,3.136 -0.469,1.152 -0.875,2.304 -1.216,3.456 -0.299,1.152 -0.448,2.1333 -0.448,2.944 0,1.28 0.213,2.2187 0.64,2.816 0.427,0.5547 0.981,0.832 1.664,0.832 0.896,0 1.963,-0.4693 3.2,-1.408 1.237,-0.9813 2.453,-2.2187 3.648,-3.712 -1.195,-0.9813 -2.133,-2.2613 -2.816,-3.84 -0.64,-1.6213 -0.96,-3.264 -0.96,-4.928 0,-1.408 0.235,-2.7307 0.704,-3.968 0.512,-1.2373 1.237,-2.2187 2.176,-2.944 0.939,-0.768 2.069,-1.152 3.392,-1.152 1.749,0 2.923,0.4693 3.52,1.408 0.597,0.9387 0.896,2.112 0.896,3.52 0,1.664 -0.405,3.52 -1.216,5.568 -0.811,2.0053 -1.835,3.9467 -3.072,5.824 0.768,0.4267 1.579,0.64 2.432,0.64 0.683,0 1.451,-0.128 2.304,-0.384 0.853,-0.2987 1.685,-0.7893 2.496,-1.472 0.853,-0.6827 1.536,-1.6 2.048,-2.752 l 0.768,0.64 c -0.853,2.0053 -2.069,3.4347 -3.648,4.288 -1.536,0.8107 -3.008,1.216 -4.416,1.216 -0.555,0 -1.088,-0.0427 -1.6,-0.128 -0.512,-0.128 -1.003,-0.2987 -1.472,-0.512 -1.451,1.92 -3.051,3.52 -4.8,4.8 -1.707,1.28 -3.371,1.92 -4.992,1.92 z m 9.408,-9.408 c 1.067,-1.5787 1.941,-3.2213 2.624,-4.928 0.725,-1.7493 1.088,-3.392 1.088,-4.928 0,-1.2373 -0.192,-2.1333 -0.576,-2.688 -0.341,-0.5973 -0.789,-0.896 -1.344,-0.896 -0.853,0 -1.728,0.6187 -2.624,1.856 -0.896,1.2373 -1.344,2.7947 -1.344,4.672 0,1.2373 0.171,2.496 0.512,3.776 0.384,1.2373 0.939,2.2827 1.664,3.136 z m 13.151,8.8 c -1.088,0 -1.968,-0.48 -2.64,-1.44 -0.64,-0.992 -0.96,-2.128 -0.96,-3.408 0,-0.928 0.144,-2 0.432,-3.216 0.32,-1.216 0.704,-2.416 1.152,-3.6 0.448,-1.184 0.912,-2.16 1.392,-2.928 0.48,-0.768 0.896,-1.152 1.248,-1.152 0.16,0 0.432,0.096 0.816,0.288 0.384,0.16 0.704,0.384 0.96,0.672 -0.352,0.544 -0.784,1.376 -1.296,2.496 -0.512,1.12 -0.96,2.32 -1.344,3.6 -0.384,1.28 -0.576,2.464 -0.576,3.552 0,0.256 0.032,0.656 0.096,1.2 0.064,0.512 0.224,0.976 0.48,1.392 0.256,0.416 0.64,0.624 1.152,0.624 0.608,0 1.232,-0.304 1.872,-0.912 0.64,-0.64 1.28,-1.456 1.92,-2.448 0.672,-0.992 1.312,-2.064 1.92,-3.216 0.608,-1.152 1.168,-2.256 1.68,-3.312 0.544,-1.056 0.992,-1.936 1.344,-2.64 0.192,0.032 0.464,0.096 0.816,0.192 0.384,0.096 0.72,0.224 1.008,0.384 0.32,0.16 0.48,0.384 0.48,0.672 0,0.128 -0.16,0.56 -0.48,1.296 -0.32,0.704 -0.704,1.584 -1.152,2.64 -0.416,1.024 -0.784,2.064 -1.104,3.12 -0.32,1.056 -0.48,1.984 -0.48,2.784 0,0.576 0.112,1.04 0.336,1.392 0.256,0.352 0.672,0.528 1.248,0.528 0.672,0 1.488,-0.304 2.448,-0.912 0.96,-0.608 1.936,-1.488 2.928,-2.64 0.992,-1.184 1.872,-2.592 2.64,-4.224 l 0.624,0.432 c -0.672,1.728 -1.552,3.264 -2.64,4.608 -1.088,1.312 -2.24,2.336 -3.456,3.072 -1.216,0.736 -2.4,1.104 -3.552,1.104 -0.832,0 -1.504,-0.16 -2.016,-0.48 -0.48,-0.32 -0.832,-0.752 -1.056,-1.296 -0.192,-0.544 -0.288,-1.136 -0.288,-1.776 0,-0.384 0.032,-0.768 0.096,-1.152 0.064,-0.416 0.144,-0.832 0.24,-1.248 -0.576,1.056 -1.2,2.048 -1.872,2.976 -0.672,0.896 -1.376,1.616 -2.112,2.16 -0.736,0.544 -1.504,0.816 -2.304,0.816 z m 22.887,1.504 c -1.835,0 -3.243,-0.5333 -4.224,-1.6 -0.981,-1.0667 -1.472,-2.6453 -1.472,-4.736 0,-1.8773 0.341,-4.1813 1.024,-6.912 0.725,-2.7733 1.621,-5.6107 2.688,-8.512 -0.427,-0.0853 -0.832,-0.1493 -1.216,-0.192 -0.384,-0.0853 -0.747,-0.192 -1.088,-0.32 v -1.152 c 0.341,0.0427 0.747,0.0853 1.216,0.128 0.469,0.0427 1.003,0.0853 1.6,0.128 0.896,-2.304 1.856,-4.5227 2.88,-6.656 1.024,-2.176 2.027,-4.096 3.008,-5.76 1.024,-1.7067 1.984,-3.0507 2.88,-4.032 0.939,-1.024 1.728,-1.536 2.368,-1.536 0.341,0 0.64,0.128 0.896,0.384 0.299,0.2133 0.448,0.5547 0.448,1.024 0,0.7253 -0.448,1.92 -1.344,3.584 -0.896,1.6213 -2.005,3.5627 -3.328,5.824 -1.323,2.2613 -2.603,4.7147 -3.84,7.36 0.384,0 0.768,0 1.152,0 0.427,0 0.832,0 1.216,0 1.408,0 2.88,-0.0213 4.416,-0.064 1.579,-0.0427 3.157,-0.1493 4.736,-0.32 v 1.152 c -2.347,0.256 -4.459,0.448 -6.336,0.576 -1.835,0.128 -3.477,0.192 -4.928,0.192 -0.171,0 -0.341,0 -0.512,0 -0.128,0 -0.277,0 -0.448,0 -0.981,2.2613 -1.813,4.5867 -2.496,6.976 -0.683,2.3893 -1.024,4.7147 -1.024,6.976 0,1.8347 0.277,3.1573 0.832,3.968 0.555,0.768 1.472,1.152 2.752,1.152 2.219,0 4.395,-0.9813 6.528,-2.944 2.133,-1.9627 4.011,-4.6293 5.632,-8 l 0.832,0.64 c -1.024,2.3893 -2.325,4.544 -3.904,6.464 -1.536,1.92 -3.243,3.4347 -5.12,4.544 -1.877,1.1093 -3.819,1.664 -5.824,1.664 z"
     fill="#000000"
     id="path1"
     style="display:none" />
  <path
     d="m 76.096,136.636 c -1.2133,0 -2.0973,-0.381 -2.652,-1.144 -0.5547,-0.728 -0.832,-1.612 -0.832,-2.652 0,-0.867 0.1213,-1.733 0.364,-2.6 0.2773,-0.867 0.5373,-1.716 0.78,-2.548 0.2773,-0.832 0.416,-1.577 0.416,-2.236 0,-0.693 -0.156,-1.179 -0.468,-1.456 -0.312,-0.277 -0.6587,-0.416 -1.04,-0.416 -0.8667,0 -1.82,0.676 -2.86,2.028 -1.0053,1.352 -2.3227,3.259 -3.952,5.72 -0.5547,0.832 -1.0227,1.681 -1.404,2.548 -0.3813,0.832 -0.7453,1.595 -1.092,2.288 -0.2773,0 -0.624,-0.035 -1.04,-0.104 -0.416,-0.069 -0.7973,-0.191 -1.144,-0.364 -0.312,-0.139 -0.468,-0.329 -0.468,-0.572 0,-0.243 0.156,-0.815 0.468,-1.716 0.3467,-0.936 0.728,-2.011 1.144,-3.224 0.4507,-1.248 0.832,-2.496 1.144,-3.744 0.3467,-1.283 0.52,-2.375 0.52,-3.276 0,-0.589 -0.104,-1.057 -0.312,-1.404 -0.1733,-0.381 -0.5027,-0.572 -0.988,-0.572 -0.7627,0 -1.6813,0.468 -2.756,1.404 -1.0747,0.901 -2.184,2.097 -3.328,3.588 -1.144,1.491 -2.236,3.137 -3.276,4.94 -1.0053,1.768 -1.82,3.536 -2.444,5.304 -0.312,0 -0.6933,-0.052 -1.144,-0.156 -0.4507,-0.104 -0.832,-0.243 -1.144,-0.416 -0.3467,-0.173 -0.52,-0.347 -0.52,-0.52 0,-0.208 0.1907,-0.815 0.572,-1.82 0.3467,-1.04 0.7627,-2.271 1.248,-3.692 0.4507,-1.456 0.8493,-2.929 1.196,-4.42 0.3813,-1.491 0.572,-2.808 0.572,-3.952 0.208,-0.243 0.5373,-0.485 0.988,-0.728 0.4507,-0.243 0.9187,-0.364 1.404,-0.364 0.4853,0 0.832,0.121 1.04,0.364 0.2427,0.243 0.364,0.572 0.364,0.988 0,0.451 -0.1387,1.231 -0.416,2.34 -0.2427,1.075 -0.5547,2.271 -0.936,3.588 0.6933,-1.109 1.4733,-2.236 2.34,-3.38 0.9013,-1.179 1.8373,-2.253 2.808,-3.224 0.9707,-0.971 1.9413,-1.751 2.912,-2.34 1.0053,-0.624 1.976,-0.936 2.912,-0.936 1.0747,0 1.8027,0.399 2.184,1.196 0.416,0.763 0.624,1.681 0.624,2.756 0,0.867 -0.104,1.785 -0.312,2.756 -0.1733,0.936 -0.3813,1.82 -0.624,2.652 -0.2427,0.797 -0.468,1.439 -0.676,1.924 0.728,-1.317 1.5253,-2.583 2.392,-3.796 0.9013,-1.248 1.872,-2.253 2.912,-3.016 1.04,-0.797 2.1493,-1.196 3.328,-1.196 1.1093,0 1.872,0.329 2.288,0.988 0.4507,0.659 0.676,1.439 0.676,2.34 0,0.901 -0.156,1.889 -0.468,2.964 -0.312,1.075 -0.6413,2.115 -0.988,3.12 -0.312,1.005 -0.468,1.872 -0.468,2.6 0,0.451 0.104,0.867 0.312,1.248 0.2427,0.347 0.6587,0.52 1.248,0.52 0.9707,0 1.872,-0.433 2.704,-1.3 0.8667,-0.901 1.664,-1.976 2.392,-3.224 0.728,-1.283 1.352,-2.513 1.872,-3.692 l 0.624,0.728 c -0.5547,1.456 -1.2653,2.912 -2.132,4.368 -0.8667,1.421 -1.8893,2.6 -3.068,3.536 -1.144,0.936 -2.4093,1.404 -3.796,1.404 z m 10.3332,17.428 c -1.1333,0 -2.1307,-0.317 -2.992,-0.952 -0.8613,-0.589 -1.292,-1.473 -1.292,-2.652 0,-1.451 0.3627,-2.743 1.088,-3.876 0.7253,-1.133 1.7,-2.176 2.924,-3.128 1.224,-0.952 2.6293,-1.859 4.216,-2.72 1.5867,-0.861 3.2413,-1.723 4.964,-2.584 0.6347,-1.677 1.2693,-3.536 1.904,-5.576 0.68,-2.085 1.3147,-4.375 1.904,-6.868 -1.4507,2.357 -3.0147,4.397 -4.692,6.12 -1.632,1.677 -3.3773,2.516 -5.236,2.516 -0.8613,0 -1.7227,-0.181 -2.584,-0.544 -0.816,-0.408 -1.496,-1.02 -2.04,-1.836 -0.544,-0.816 -0.816,-1.859 -0.816,-3.128 0,-1.269 0.204,-2.743 0.612,-4.42 0.4533,-1.677 0.9973,-3.309 1.632,-4.896 0.6347,-1.587 1.292,-2.901 1.972,-3.944 0.68,-1.043 1.2693,-1.564 1.768,-1.564 0.1813,0 0.4987,0.068 0.952,0.204 0.4987,0.136 0.952,0.34 1.36,0.612 0.4533,0.227 0.68,0.476 0.68,0.748 -0.408,0.589 -0.8613,1.428 -1.36,2.516 -0.4987,1.088 -0.9973,2.312 -1.496,3.672 -0.4533,1.315 -0.8387,2.607 -1.156,3.876 -0.3173,1.269 -0.476,2.357 -0.476,3.264 0,0.816 0.1813,1.473 0.544,1.972 0.3627,0.499 0.9973,0.748 1.904,0.748 0.8613,0 1.8133,-0.408 2.856,-1.224 1.088,-0.861 2.1533,-1.949 3.196,-3.264 1.088,-1.315 2.0853,-2.72 2.992,-4.216 0.136,-0.499 0.2498,-0.997 0.3398,-1.496 0.136,-0.544 0.25,-1.088 0.34,-1.632 0.136,-0.635 0.454,-1.36 0.952,-2.176 0.544,-0.861 1.383,-1.292 2.516,-1.292 0.227,0 0.454,0.023 0.68,0.068 0.227,0 0.476,0.045 0.748,0.136 0,0.725 -0.226,2.085 -0.68,4.08 -0.408,1.949 -1.02,4.239 -1.836,6.868 -0.77,2.629 -1.7,5.327 -2.788,8.092 2.131,-0.816 4.216,-2.153 6.256,-4.012 2.04,-1.904 3.695,-4.42 4.964,-7.548 l 0.884,0.68 c -0.68,2.176 -1.722,4.08 -3.128,5.712 -1.36,1.587 -2.901,2.969 -4.624,4.148 -1.722,1.133 -3.422,2.085 -5.0998,2.856 -1.1787,2.901 -2.4707,5.621 -3.876,8.16 -1.36,2.539 -2.8107,4.579 -4.352,6.12 -1.496,1.587 -3.0373,2.38 -4.624,2.38 z m -0.34,-2.176 c 0.68,0 1.8133,-0.907 3.4,-2.72 1.632,-1.768 3.3547,-4.896 5.168,-9.384 -1.8587,0.997 -3.5813,1.972 -5.168,2.924 -1.5867,0.997 -2.856,2.063 -3.808,3.196 -0.952,1.133 -1.428,2.448 -1.428,3.944 0,0.363 0.136,0.793 0.408,1.292 0.272,0.499 0.748,0.748 1.428,0.748 z M 133.96,141.072 c -3.456,0 -6.336,-1.152 -8.64,-3.456 -2.304,-2.304 -3.456,-5.76 -3.456,-10.368 0,-3.6 0.684,-7.092 2.052,-10.476 1.44,-3.456 3.312,-6.552 5.616,-9.288 2.304,-2.736 4.86,-4.896 7.668,-6.48 2.808,-1.656 5.58,-2.484 8.316,-2.484 2.952,0 4.968,0.864 6.048,2.592 1.08,1.728 1.62,3.528 1.62,5.4 0,2.088 -0.504,3.924 -1.512,5.508 -0.936,1.584 -2.232,2.376 -3.888,2.376 -1.224,0 -2.268,-0.54 -3.132,-1.62 1.08,-0.576 2.016,-1.728 2.808,-3.456 0.792,-1.8 1.188,-3.492 1.188,-5.076 0,-0.864 -0.18,-1.512 -0.54,-1.944 -0.288,-0.504 -0.9,-0.756 -1.836,-0.756 -1.944,0 -3.96,0.864 -6.048,2.592 -2.016,1.728 -3.924,3.96 -5.724,6.696 -1.728,2.736 -3.168,5.616 -4.32,8.64 -1.08,3.024 -1.62,5.868 -1.62,8.532 0,2.232 0.54,4.284 1.62,6.156 1.08,1.872 3.168,2.808 6.264,2.808 2.88,0 5.76,-0.792 8.64,-2.376 2.952,-1.584 5.688,-3.852 8.208,-6.804 2.52,-2.952 4.536,-6.408 6.048,-10.368 l 1.404,1.08 c -1.656,4.32 -3.924,8.208 -6.804,11.664 -2.88,3.384 -6.048,6.048 -9.504,7.992 -3.456,1.944 -6.948,2.916 -10.476,2.916 z m 28.538,-3.936 c -1.952,0 -3.424,-0.544 -4.416,-1.632 -0.96,-1.056 -1.44,-2.368 -1.44,-3.936 0,-1.44 0.352,-2.96 1.056,-4.56 0.736,-1.6 1.696,-3.104 2.88,-4.512 1.216,-1.408 2.544,-2.544 3.984,-3.408 1.44,-0.896 2.864,-1.344 4.272,-1.344 0.736,0 1.408,0.192 2.016,0.576 0.64,0.384 0.96,1.168 0.96,2.352 0,1.216 -0.368,2.368 -1.104,3.456 -0.704,1.056 -1.648,2 -2.832,2.832 -1.152,0.832 -2.432,1.52 -3.84,2.064 -1.376,0.512 -2.752,0.832 -4.128,0.96 -0.064,0.32 -0.112,0.624 -0.144,0.912 -0.032,0.288 -0.048,0.56 -0.048,0.816 0,0.48 0.048,0.96 0.144,1.44 0.128,0.48 0.336,0.928 0.624,1.344 0.288,0.384 0.672,0.688 1.152,0.912 0.512,0.224 1.136,0.336 1.872,0.336 1.376,0 2.736,-0.384 4.08,-1.152 1.344,-0.8 2.592,-1.84 3.744,-3.12 1.152,-1.28 2.128,-2.688 2.928,-4.224 l 0.576,0.432 c -0.864,1.92 -1.968,3.584 -3.312,4.992 -1.312,1.408 -2.752,2.496 -4.32,3.264 -1.536,0.8 -3.104,1.2 -4.704,1.2 z m -2.352,-8.064 c 0.864,-0.288 1.84,-0.704 2.928,-1.248 1.088,-0.576 2.128,-1.248 3.12,-2.016 1.024,-0.768 1.856,-1.616 2.496,-2.544 0.672,-0.928 1.008,-1.904 1.008,-2.928 0,-0.352 -0.064,-0.624 -0.192,-0.816 -0.128,-0.192 -0.4,-0.288 -0.816,-0.288 -0.768,0 -1.584,0.304 -2.448,0.912 -0.864,0.576 -1.696,1.344 -2.496,2.304 -0.8,0.96 -1.52,2.016 -2.16,3.168 -0.64,1.152 -1.12,2.304 -1.44,3.456 z m 21.456,7.2 c -1.088,0 -1.952,-0.288 -2.592,-0.864 -0.608,-0.576 -0.912,-1.328 -0.912,-2.256 0,-0.96 0.224,-1.968 0.672,-3.024 0.448,-1.056 0.88,-2.096 1.296,-3.12 0.448,-1.056 0.672,-2 0.672,-2.832 0,-1.024 -0.304,-1.776 -0.912,-2.256 -0.576,-0.512 -1.168,-0.976 -1.776,-1.392 -0.736,1.888 -1.504,3.68 -2.304,5.376 -0.8,1.696 -1.456,2.976 -1.968,3.84 l -0.432,-0.816 c 0.448,-0.832 1.024,-2.048 1.728,-3.648 0.736,-1.6 1.456,-3.424 2.16,-5.472 -0.32,-0.32 -0.48,-0.704 -0.48,-1.152 0,-0.96 0.272,-1.744 0.816,-2.352 0.544,-0.608 0.944,-0.912 1.2,-0.912 0.352,0 0.544,0.16 0.576,0.48 0.064,0.288 0.096,0.512 0.096,0.672 0,0.16 -0.096,0.48 -0.288,0.96 -0.16,0.448 -0.24,0.72 -0.24,0.816 0,0.448 0.24,0.864 0.72,1.248 0.512,0.352 1.088,0.768 1.728,1.248 0.64,0.448 1.2,1.008 1.68,1.68 0.512,0.64 0.768,1.472 0.768,2.496 0,0.96 -0.208,1.936 -0.624,2.928 -0.384,0.992 -0.784,1.936 -1.2,2.832 -0.384,0.896 -0.576,1.68 -0.576,2.352 0,0.576 0.144,0.96 0.432,1.152 0.288,0.192 0.624,0.288 1.008,0.288 0.768,0 1.552,-0.24 2.352,-0.72 0.832,-0.48 1.632,-1.088 2.4,-1.824 0.768,-0.736 1.456,-1.504 2.064,-2.304 0.608,-0.832 1.056,-1.6 1.344,-2.304 l 0.624,0.48 c -0.608,1.344 -1.44,2.672 -2.496,3.984 -1.056,1.28 -2.24,2.336 -3.552,3.168 -1.28,0.832 -2.608,1.248 -3.984,1.248 z m 13.824,1.696 c -1.835,0 -3.243,-0.533 -4.224,-1.6 -0.982,-1.067 -1.472,-2.645 -1.472,-4.736 0,-1.877 0.341,-4.181 1.024,-6.912 0.725,-2.773 1.621,-5.611 2.688,-8.512 -0.427,-0.085 -0.832,-0.149 -1.216,-0.192 -0.384,-0.085 -0.747,-0.192 -1.088,-0.32 v -1.152 c 0.341,0.043 0.746,0.085 1.216,0.128 0.469,0.043 1.002,0.085 1.6,0.128 0.896,-2.304 1.856,-4.523 2.88,-6.656 1.024,-2.176 2.026,-4.096 3.008,-5.76 1.024,-1.707 1.984,-3.0507 2.88,-4.032 0.938,-1.024 1.728,-1.536 2.368,-1.536 0.341,0 0.64,0.128 0.896,0.384 0.298,0.2133 0.448,0.5547 0.448,1.024 0,0.7253 -0.448,1.92 -1.344,3.584 -0.896,1.621 -2.006,3.563 -3.328,5.824 -1.323,2.261 -2.603,4.715 -3.84,7.36 0.384,0 0.768,0 1.152,0 0.426,0 0.832,0 1.216,0 1.408,0 2.88,-0.021 4.416,-0.064 1.578,-0.043 3.157,-0.149 4.736,-0.32 v 1.152 c -2.347,0.256 -4.459,0.448 -6.336,0.576 -1.835,0.128 -3.478,0.192 -4.928,0.192 -0.171,0 -0.342,0 -0.512,0 -0.128,0 -0.278,0 -0.448,0 -0.982,2.261 -1.814,4.587 -2.496,6.976 -0.683,2.389 -1.024,4.715 -1.024,6.976 0,1.835 0.277,3.157 0.832,3.968 0.554,0.768 1.472,1.152 2.752,1.152 2.218,0 4.394,-0.981 6.528,-2.944 2.133,-1.963 4.01,-4.629 5.632,-8 l 0.832,0.64 c -1.024,2.389 -2.326,4.544 -3.904,6.464 -1.536,1.92 -3.243,3.435 -5.12,4.544 -1.878,1.109 -3.819,1.664 -5.824,1.664 z m 16.266,-1.696 c -1.248,0 -2.176,-0.4 -2.784,-1.2 -0.608,-0.768 -0.912,-1.712 -0.912,-2.832 0,-0.736 0.128,-1.664 0.384,-2.784 0.288,-1.12 0.656,-2.288 1.104,-3.504 0.448,-1.248 0.96,-2.416 1.536,-3.504 0.608,-1.088 1.248,-1.968 1.92,-2.64 0.672,-0.704 1.328,-1.056 1.968,-1.056 0.288,0 0.528,0.096 0.72,0.288 0.224,0.16 0.336,0.416 0.336,0.768 0,0.384 -0.256,1.008 -0.768,1.872 -0.48,0.864 -1.056,1.856 -1.728,2.976 -0.672,1.12 -1.264,2.304 -1.776,3.552 -0.48,1.216 -0.72,2.384 -0.72,3.504 0,1.152 0.192,1.92 0.576,2.304 0.384,0.384 0.976,0.576 1.776,0.576 1.088,0 2.24,-0.544 3.456,-1.632 1.248,-1.088 2.56,-2.992 3.936,-5.712 l 0.432,0.48 c -0.928,2.752 -2.272,4.864 -4.032,6.336 -1.728,1.472 -3.536,2.208 -5.424,2.208 z m 5.76,-21.984 c -0.512,0 -0.976,-0.128 -1.392,-0.384 -0.384,-0.256 -0.576,-0.656 -0.576,-1.2 0,-0.672 0.384,-1.248 1.152,-1.728 0.8,-0.512 1.584,-0.768 2.352,-0.768 0.48,0 0.864,0.112 1.152,0.336 0.288,0.224 0.432,0.608 0.432,1.152 0,0.608 -0.336,1.2 -1.008,1.776 -0.64,0.544 -1.344,0.816 -2.112,0.816 z m 1.738,34.176 c -0.32,0 -0.688,-0.112 -1.104,-0.336 -0.416,-0.192 -0.768,-0.592 -1.056,-1.2 -0.32,-0.608 -0.48,-1.504 -0.48,-2.688 0,-1.408 0.24,-3.248 0.72,-5.52 0.48,-2.24 1.136,-4.72 1.968,-7.44 0.832,-2.72 1.792,-5.504 2.88,-8.352 1.088,-2.88 2.256,-5.648 3.504,-8.304 1.28,-2.688 2.576,-5.088 3.888,-7.2 1.344,-2.144 2.656,-3.84 3.936,-5.088 1.28,-1.248 2.496,-1.872 3.648,-1.872 0.672,0 1.104,0.208 1.296,0.624 0.224,0.416 0.336,0.912 0.336,1.488 0,1.376 -0.384,2.88 -1.152,4.512 -0.736,1.632 -1.728,3.28 -2.976,4.944 -1.248,1.632 -2.624,3.2 -4.128,4.704 -1.504,1.472 -3.024,2.736 -4.56,3.792 -0.16,0.384 -0.32,0.784 -0.48,1.2 -0.128,0.384 -0.272,0.784 -0.432,1.2 0.352,0.064 0.624,0.256 0.816,0.576 0.224,0.288 0.352,0.608 0.384,0.96 0.224,1.44 0.464,2.736 0.72,3.888 0.256,1.12 0.64,2 1.152,2.64 0.544,0.64 1.312,0.96 2.304,0.96 1.12,0 2.064,-0.4 2.832,-1.2 0.768,-0.832 1.6,-2 2.496,-3.504 l 0.72,0.48 c -0.8,1.92 -1.824,3.312 -3.072,4.176 -1.216,0.864 -2.288,1.296 -3.216,1.296 -0.576,0 -1.184,-0.144 -1.824,-0.432 -0.608,-0.288 -1.184,-0.672 -1.728,-1.152 0,2.016 -0.224,4.016 -0.672,6 -0.416,1.984 -0.976,3.792 -1.68,5.424 -0.704,1.632 -1.488,2.944 -2.352,3.936 -0.864,0.992 -1.76,1.488 -2.688,1.488 z m 1.248,-2.304 c 0.352,0 0.752,-0.32 1.2,-0.96 0.448,-0.64 0.88,-1.488 1.296,-2.544 0.448,-1.024 0.848,-2.16 1.2,-3.408 0.352,-1.248 0.64,-2.496 0.864,-3.744 0.224,-1.248 0.336,-2.368 0.336,-3.36 0,-0.992 -0.128,-1.888 -0.384,-2.688 -0.256,-0.832 -0.672,-1.808 -1.248,-2.928 -0.8,2.4 -1.52,4.72 -2.16,6.96 -0.64,2.24 -1.136,4.256 -1.488,6.048 -0.352,1.792 -0.528,3.232 -0.528,4.32 0,1.536 0.304,2.304 0.912,2.304 z m 6.24,-27.6 c 2.08,-1.92 3.872,-3.84 5.376,-5.76 1.536,-1.952 2.72,-3.68 3.552,-5.184 0.832,-1.536 1.248,-2.624 1.248,-3.264 0,-0.448 -0.224,-0.672 -0.672,-0.672 -0.832,0 -1.776,0.688 -2.832,2.064 -1.056,1.344 -2.16,3.136 -3.312,5.376 -1.152,2.24 -2.272,4.72 -3.36,7.44 z m 10.681,17.4 c -0.936,0 -1.632,-0.3 -2.088,-0.9 -0.456,-0.576 -0.684,-1.284 -0.684,-2.124 0,-0.552 0.096,-1.248 0.288,-2.088 0.216,-0.84 0.492,-1.716 0.828,-2.628 0.336,-0.936 0.72,-1.812 1.152,-2.628 0.456,-0.816 0.936,-1.476 1.44,-1.98 0.504,-0.528 0.996,-0.792 1.476,-0.792 0.216,0 0.396,0.072 0.54,0.216 0.168,0.12 0.252,0.312 0.252,0.576 0,0.288 -0.192,0.756 -0.576,1.404 -0.36,0.648 -0.792,1.392 -1.296,2.232 -0.504,0.84 -0.948,1.728 -1.332,2.664 -0.36,0.912 -0.54,1.788 -0.54,2.628 0,0.864 0.144,1.44 0.432,1.728 0.288,0.288 0.732,0.432 1.332,0.432 0.816,0 1.68,-0.408 2.592,-1.224 0.936,-0.816 1.92,-2.244 2.952,-4.284 l 0.324,0.36 c -0.696,2.064 -1.704,3.648 -3.024,4.752 -1.296,1.104 -2.652,1.656 -4.068,1.656 z m 4.32,-16.488 c -0.384,0 -0.732,-0.096 -1.044,-0.288 -0.288,-0.192 -0.432,-0.492 -0.432,-0.9 0,-0.504 0.288,-0.936 0.864,-1.296 0.6,-0.384 1.188,-0.576 1.764,-0.576 0.36,0 0.648,0.084 0.864,0.252 0.216,0.168 0.324,0.456 0.324,0.864 0,0.456 -0.252,0.9 -0.756,1.332 -0.48,0.408 -1.008,0.612 -1.584,0.612 z m 6.908,18.24 c -1.536,0 -2.816,-0.512 -3.84,-1.536 -1.024,-1.024 -1.536,-2.56 -1.536,-4.608 0,-1.6 0.304,-3.152 0.912,-4.656 0.64,-1.536 1.472,-2.912 2.496,-4.128 1.024,-1.216 2.16,-2.176 3.408,-2.88 1.248,-0.736 2.48,-1.104 3.696,-1.104 1.312,0 2.208,0.384 2.688,1.152 0.48,0.768 0.72,1.568 0.72,2.4 0,0.928 -0.224,1.744 -0.672,2.448 -0.416,0.704 -0.992,1.056 -1.728,1.056 -0.544,0 -1.008,-0.24 -1.392,-0.72 0.48,-0.256 0.896,-0.768 1.248,-1.536 0.352,-0.8 0.528,-1.552 0.528,-2.256 0,-0.384 -0.08,-0.672 -0.24,-0.864 -0.128,-0.224 -0.4,-0.336 -0.816,-0.336 -0.864,0 -1.76,0.384 -2.688,1.152 -0.896,0.768 -1.744,1.76 -2.544,2.976 -0.768,1.216 -1.408,2.496 -1.92,3.84 -0.48,1.344 -0.72,2.608 -0.72,3.792 0,0.992 0.24,1.904 0.72,2.736 0.48,0.832 1.408,1.248 2.784,1.248 1.28,0 2.56,-0.352 3.84,-1.056 1.312,-0.704 2.528,-1.712 3.648,-3.024 1.12,-1.312 2.016,-2.848 2.688,-4.608 l 0.624,0.48 c -0.736,1.92 -1.744,3.648 -3.024,5.184 -1.28,1.504 -2.688,2.688 -4.224,3.552 -1.536,0.864 -3.088,1.296 -4.656,1.296 z m 12.683,-0.432 c -0.992,0 -1.824,-0.336 -2.496,-1.008 -0.704,-0.64 -1.056,-1.632 -1.056,-2.976 0,-1.152 0.256,-2.384 0.768,-3.696 0.512,-1.344 1.216,-2.656 2.112,-3.936 0.896,-1.312 1.904,-2.496 3.024,-3.552 1.152,-1.088 2.352,-1.952 3.6,-2.592 1.28,-0.64 2.544,-0.96 3.792,-0.96 1.248,0 2.288,0.336 3.12,1.008 0.832,0.64 1.248,1.504 1.248,2.592 0,0.8 -0.224,1.344 -0.672,1.632 -0.416,0.288 -0.976,0.432 -1.68,0.432 0.064,-0.256 0.112,-0.528 0.144,-0.816 0.064,-0.32 0.096,-0.608 0.096,-0.864 0,-0.736 -0.176,-1.36 -0.528,-1.872 -0.352,-0.544 -0.96,-0.816 -1.824,-0.816 -0.896,0 -1.808,0.32 -2.736,0.96 -0.928,0.608 -1.824,1.44 -2.688,2.496 -0.864,1.024 -1.632,2.144 -2.304,3.36 -0.672,1.216 -1.2,2.416 -1.584,3.6 -0.384,1.184 -0.576,2.24 -0.576,3.168 0,1.248 0.432,1.872 1.296,1.872 0.736,0 1.536,-0.336 2.4,-1.008 0.864,-0.704 1.744,-1.584 2.64,-2.64 0.928,-1.088 1.808,-2.208 2.64,-3.36 0.832,-1.152 1.568,-2.208 2.208,-3.168 0.128,-0.192 0.208,-0.288 0.24,-0.288 0.192,0.032 0.432,0.096 0.72,0.192 0.32,0.096 0.592,0.224 0.816,0.384 0.224,0.16 0.336,0.368 0.336,0.624 0,0.288 -0.144,0.688 -0.432,1.2 -0.288,0.48 -0.608,1.04 -0.96,1.68 -0.352,0.64 -0.672,1.296 -0.96,1.968 -0.288,0.64 -0.432,1.248 -0.432,1.824 0,0.48 0.128,0.96 0.384,1.44 0.256,0.448 0.672,0.672 1.248,0.672 0.864,0 2,-0.624 3.408,-1.872 1.408,-1.28 2.832,-3.184 4.272,-5.712 l 0.48,0.48 c -0.672,1.728 -1.536,3.248 -2.592,4.56 -1.056,1.312 -2.192,2.336 -3.408,3.072 -1.184,0.736 -2.352,1.104 -3.504,1.104 -1.184,0 -2.064,-0.352 -2.64,-1.056 -0.544,-0.704 -0.816,-1.472 -0.816,-2.304 0,-0.192 0.016,-0.4 0.048,-0.624 0.032,-0.256 0.064,-0.512 0.096,-0.768 -1.376,1.856 -2.64,3.248 -3.792,4.176 -1.12,0.928 -2.272,1.392 -3.456,1.392 z m 24.042,0.688 c -1.834,0 -3.242,-0.533 -4.224,-1.6 -0.981,-1.067 -1.472,-2.645 -1.472,-4.736 0,-1.877 0.342,-4.181 1.024,-6.912 0.726,-2.773 1.622,-5.611 2.688,-8.512 -0.426,-0.085 -0.832,-0.149 -1.216,-0.192 -0.384,-0.085 -0.746,-0.192 -1.088,-0.32 v -1.152 c 0.342,0.043 0.747,0.085 1.216,0.128 0.47,0.043 1.003,0.085 1.6,0.128 0.896,-2.304 1.856,-4.523 2.88,-6.656 1.024,-2.176 2.027,-4.096 3.008,-5.76 1.024,-1.707 1.984,-3.0507 2.88,-4.032 0.939,-1.024 1.728,-1.536 2.368,-1.536 0.342,0 0.64,0.128 0.896,0.384 0.299,0.2133 0.448,0.5547 0.448,1.024 0,0.7253 -0.448,1.92 -1.344,3.584 -0.896,1.621 -2.005,3.563 -3.328,5.824 -1.322,2.261 -2.602,4.715 -3.84,7.36 0.384,0 0.768,0 1.152,0 0.427,0 0.832,0 1.216,0 1.408,0 2.88,-0.021 4.416,-0.064 1.579,-0.043 3.158,-0.149 4.736,-0.32 v 1.152 c -2.346,0.256 -4.458,0.448 -6.336,0.576 -1.834,0.128 -3.477,0.192 -4.928,0.192 -0.17,0 -0.341,0 -0.512,0 -0.128,0 -0.277,0 -0.448,0 -0.981,2.261 -1.813,4.587 -2.496,6.976 -0.682,2.389 -1.024,4.715 -1.024,6.976 0,1.835 0.278,3.157 0.832,3.968 0.555,0.768 1.472,1.152 2.752,1.152 2.219,0 4.395,-0.981 6.528,-2.944 2.134,-1.963 4.011,-4.629 5.632,-8 l 0.832,0.64 c -1.024,2.389 -2.325,4.544 -3.904,6.464 -1.536,1.92 -3.242,3.435 -5.12,4.544 -1.877,1.109 -3.818,1.664 -5.824,1.664 z m 17.994,-0.832 c -1.952,0 -3.424,-0.544 -4.416,-1.632 -0.96,-1.056 -1.44,-2.368 -1.44,-3.936 0,-1.44 0.352,-2.96 1.056,-4.56 0.736,-1.6 1.696,-3.104 2.88,-4.512 1.216,-1.408 2.544,-2.544 3.984,-3.408 1.44,-0.896 2.864,-1.344 4.272,-1.344 0.736,0 1.408,0.192 2.016,0.576 0.64,0.384 0.96,1.168 0.96,2.352 0,1.216 -0.368,2.368 -1.104,3.456 -0.704,1.056 -1.648,2 -2.832,2.832 -1.152,0.832 -2.432,1.52 -3.84,2.064 -1.376,0.512 -2.752,0.832 -4.128,0.96 -0.064,0.32 -0.112,0.624 -0.144,0.912 -0.032,0.288 -0.048,0.56 -0.048,0.816 0,0.48 0.048,0.96 0.144,1.44 0.128,0.48 0.336,0.928 0.624,1.344 0.288,0.384 0.672,0.688 1.152,0.912 0.512,0.224 1.136,0.336 1.872,0.336 1.376,0 2.736,-0.384 4.08,-1.152 1.344,-0.8 2.592,-1.84 3.744,-3.12 1.152,-1.28 2.128,-2.688 2.928,-4.224 l 0.576,0.432 c -0.864,1.92 -1.968,3.584 -3.312,4.992 -1.312,1.408 -2.752,2.496 -4.32,3.264 -1.536,0.8 -3.104,1.2 -4.704,1.2 z m -2.352,-8.064 c 0.864,-0.288 1.84,-0.704 2.928,-1.248 1.088,-0.576 2.128,-1.248 3.12,-2.016 1.024,-0.768 1.856,-1.616 2.496,-2.544 0.672,-0.928 1.008,-1.904 1.008,-2.928 0,-0.352 -0.064,-0.624 -0.192,-0.816 -0.128,-0.192 -0.4,-0.288 -0.816,-0.288 -0.768,0 -1.584,0.304 -2.448,0.912 -0.864,0.576 -1.696,1.344 -2.496,2.304 -0.8,0.96 -1.52,2.016 -2.16,3.168 -0.64,1.152 -1.12,2.304 -1.44,3.456 z m 19.873,9.216 c -2.006,0 -3.606,-0.448 -4.8,-1.344 -1.152,-0.853 -1.963,-1.92 -2.432,-3.2 -0.512,-1.28 -0.768,-2.56 -0.768,-3.84 0,-1.28 0.17,-2.261 0.512,-2.944 0.341,-0.683 0.746,-1.195 1.216,-1.536 0.512,-0.341 0.981,-0.597 1.408,-0.768 0.469,-0.171 0.789,-0.341 0.96,-0.512 1.28,-1.408 2.453,-2.88 3.52,-4.416 1.066,-1.536 2.005,-3.157 2.816,-4.864 v -0.768 c 0,-1.579 0.256,-2.688 0.768,-3.328 0.554,-0.683 1.13,-1.024 1.728,-1.024 0.341,0 0.597,0.085 0.768,0.256 0.17,0.171 0.256,0.363 0.256,0.576 0,0.213 -0.064,0.555 -0.192,1.024 -0.128,0.469 -0.192,1.067 -0.192,1.792 0,1.408 0.277,2.944 0.832,4.608 0.554,1.621 1.109,3.349 1.664,5.184 0.554,1.792 0.832,3.669 0.832,5.632 0,0.555 -0.043,1.109 -0.128,1.664 -0.043,0.512 -0.128,1.003 -0.256,1.472 1.493,-0.256 2.901,-0.917 4.224,-1.984 1.322,-1.109 2.602,-2.859 3.84,-5.248 l 0.576,0.64 c -0.811,2.347 -2.027,4.139 -3.648,5.376 -1.622,1.195 -3.392,1.941 -5.312,2.24 -0.683,1.835 -1.771,3.179 -3.264,4.032 -1.451,0.853 -3.094,1.28 -4.928,1.28 z m 0.128,-2.24 c 0.512,0 1.194,-0.171 2.048,-0.512 0.853,-0.341 1.514,-1.216 1.984,-2.624 -1.792,-0.341 -3.392,-1.045 -4.8,-2.112 -1.366,-1.067 -2.39,-2.133 -3.072,-3.2 -0.939,0.043 -1.408,0.789 -1.408,2.24 0,1.536 0.448,2.965 1.344,4.288 0.938,1.28 2.24,1.92 3.904,1.92 z m 4.352,-4.16 c 0.085,-0.427 0.149,-0.875 0.192,-1.344 0.042,-0.469 0.064,-1.024 0.064,-1.664 0,-2.005 -0.256,-3.989 -0.768,-5.952 -0.47,-2.005 -0.875,-3.883 -1.216,-5.632 -0.982,1.621 -2.027,3.179 -3.136,4.672 -1.067,1.451 -2.091,2.667 -3.072,3.648 0.64,1.365 1.621,2.645 2.944,3.84 1.365,1.195 3.029,2.005 4.992,2.432 z"
     fill="#000000"
     id="path2"
     style="display:none" />
  <g
     id="layer1"
     style="fill:none">
    <path
       style="fill:none"
       d="M 36.048378,27.872457 41.62287,21.5547 44.595932,14.772402 46.454096,7.6184717 45.71083,4.0879604 43.852666,2.1368884 40.04343,1.3007147 34.840572,2.1368884 30.938428,3.9950522 24.899395,8.4546454 c 0,0 -2.601429,3.6234196 -3.06597,4.1808686 -0.464541,0.557449 -5.946124,6.875206 -5.946124,6.875206 0,0 -5.9461245,9.197911 -6.0390327,9.569544 -0.092908,0.371633 -2.5085212,6.596481 -2.6943376,7.061022 -0.1858163,0.464541 -3.3446949,9.197911 -3.3446949,9.197911 l -0.5574491,12.821331 1.4865311,6.13194 2.4156129,4.273777 4.8312263,4.552502 5.760308,2.694337 5.295766,-0.278724 2.880154,-0.743266 4.738318,-1.300715 4.273777,-2.787245 3.06597,-2.694338 2.508521,-2.601429 5.109951,-6.968115 2.322705,-4.273776"
       id="path3" />
    <path
       style="fill:none"
       d="m 53.515118,55.257147 c -0.09291,0 1.834937,-0.650357 1.834937,-0.650357 l 1.231034,-0.882628 2.345931,-2.8337 1.370396,-1.904618 2.067208,-3.716328 1.811709,-4.111187 0.441314,-1.881391 v -1.881391 l -0.301951,-0.998763 -0.301952,-0.209043 -0.905855,0.418086 -3.158878,4.111188 -1.347169,2.322705 -3.693101,7.130703 -1.695574,4.157642 -0.209044,1.207806 -0.696811,2.020754 -0.905855,3.112424 -0.510995,4.506047 0.301951,2.764019 0.55745,1.41685 0.766492,-0.301952 0.510995,-1.184579 1.207807,-2.880154 1.347169,-3.089197 1.718801,-2.973063 1.509758,-1.463304 1.904618,-1.114898 c 0,0 2.508521,0.325179 2.578202,0.418087 0.06968,0.09291 0.650358,1.254261 0.673585,1.347169 0.02323,0.09291 0.325178,1.811709 0.325178,2.090434 0,0.278725 -0.789719,2.810473 -0.789719,2.810473 0,0 -0.580676,2.299478 -0.580676,2.415613 0,0.116135 -0.278725,1.347169 -0.278725,1.347169 l 0.418087,2.067207 1.323942,0.673584 h 1.300714 l 1.834937,-0.789719 1.649121,-1.207807 2.508521,-2.880154 1.300714,-0.859401 1.625894,-0.209043 1.602666,-0.39486 1.904618,-0.62713 2.113661,-1.231034 2.43884,-1.625893 1.625894,-2.020753 1.045217,-2.067207 0.162589,-1.649121 -0.441314,-1.02199 -1.347168,-0.557449 c 0,0 -0.975537,0.09291 -1.207807,0.116135 -0.23227,0.02323 -2.229797,1.045217 -2.229797,1.045217 l -1.602666,1.091672 -2.090434,2.067207 -1.649121,2.299478 -1.718801,4.064733 -0.418087,2.810473 0.650357,1.858164 1.091672,1.393622 1.695574,1.091672 2.531748,0.278724 2.043981,-0.580676 1.370395,-0.720038 2.531749,-1.718802 2.624656,-2.787246 0.766493,-0.905855 1.951072,-1.672347 c 0,0 0.905854,-2.717565 0.905854,-2.8337 0,-0.116135 1.463304,-3.391149 1.463304,-3.391149 l 3.62342,-3.786009 2.717565,-1.486531 2.601432,-0.371632 1.39362,0.696811 0.46454,1.509758 -0.46454,3.321468 -0.74327,1.114898 1.39363,-3.228559 -0.65036,-2.8337 -2.13689,-0.766493 -1.161351,0.371633 -5.226086,3.344695 -2.415613,3.414376 -1.579439,4.08796 -0.836174,3.669874 0.464541,1.927845 0.696812,2.578202 1.579439,0.952309 1.742028,0.534222 3.158879,-0.116135 2.717565,-0.905855 1.904619,-1.254261 1.69557,-1.556212 1.60267,-1.672347 1.53298,-1.974299 0.81295,-1.370396 2.60047,-3.485056 0.91974,-4.007457 1.44531,-5.321377 1.57671,-2.62784 3.08771,-1.445313 2.49458,-2.321726 1.34717,-1.370395 1.81171,-2.043981 1.32394,-2.322704 1.64912,-2.554976 0.90586,-2.554975 c 0,0 0.74326,-2.996289 0.74326,-3.158879 0,-0.162589 -0.0929,-2.694337 -0.0929,-2.694337 0,0 -0.72004,-0.650357 -0.81294,-0.650357 -0.0929,0 -1.48653,1.347168 -1.76526,1.486531 -0.27872,0.139362 -6.55003,9.476635 -6.55003,9.476635 l -7.27006,17.164789 -1.92785,11.752886 0.37163,2.601429 0.37164,1.625893 h 0.46454 l 1.76525,-3.437603 2.16012,-5.086723 1.44008,-3.576965 2.41561,-3.902144 2.43884,-2.415613 2.90338,-1.57944 1.92785,-0.510995 2.53174,0.650358 c 0,0 1.41685,1.974299 1.44008,2.090434 0.0232,0.116135 0.0464,2.253024 0.0464,2.253024 0,0 -0.44131,2.04398 -0.51099,2.136888 -0.0697,0.09291 -2.88015,2.787246 -2.99629,2.880154 -0.11613,0.09291 -2.50852,0.720038 -2.50852,0.720038 l -2.32271,0.580677 0.69682,3.948598 0.65035,2.183342 2.06721,2.624657 2.46207,1.184579 2.46206,-0.720038 1.64913,-1.161353 1.88139,-2.253023 1.81171,-2.253024 1.27748,-2.322705 0.88263,-1.974299 0.23227,-0.766493"
       id="path4" />
    <path
       style="fill:none"
       d="m 154.69214,53.143485 -1.81171,2.229797 -2.09044,3.530511 -1.2078,3.484058 -0.41809,3.716327 0.6039,2.183343 1.39363,1.440077 2.60143,-0.09291 2.74079,-1.114898 1.7188,-1.532985 3.48406,-3.669874 3.06597,-5.063496 1.34717,-3.995052 0.32517,-2.694338 -0.32517,-2.508521 -1.02199,-1.254261 -1.81171,-0.650357 -1.76526,0.510995 -2.3227,2.369159 c 0,0 -0.97554,2.554975 -0.97554,2.740792 0,0.185816 -0.0929,3.623419 -0.0929,3.623419 l 1.06845,3.995052 2.46206,2.647884 1.44008,0.696811 3.39115,0.557449 2.50852,-1.161352 1.90462,-1.068444 1.2078,-1.440077 2.41562,-2.8337 1.02199,-1.904618 -2.36916,5.713854 -0.511,3.437603 0.18582,2.647883 1.20781,1.532986 1.34717,0.325178 1.90461,-0.603903 1.34717,-1.672347 1.67235,-2.369159 3.04274,-4.459593 1.18458,-2.299478 0.97554,-1.742029 -1.9743,4.807999 c 0,0 -0.88263,2.508521 -0.92908,2.764019 -0.0465,0.255497 -0.48777,3.600192 -0.48777,3.600192 l 0.34059,1.314787 0.88689,0.870472 2.4636,-0.0657 2.66069,-1.609552 2.43076,-2.348633 1.41246,-2.003728 1.74371,-2.219909 1.48653,-4.970589 2.78725,-7.94365 3.62342,-7.71138 2.88015,-5.10995 1.85817,-3.251787 1.02199,-1.440077 -8.26883,15.144035 -2.97307,7.200385 -2.13688,7.664926 -0.32518,5.063496 1.30071,3.484057 1.95107,1.068445 2.60143,0.23227 3.43761,-1.370396 2.81047,-2.090434 1.55621,-1.695574 1.04522,-1.231034 1.99753,-3.042743 1.27748,-2.485294"
       id="path5" />
    <path
       style="fill:none"
       d="m 193.5076,49.140617 1.93804,0.394176 4.0403,0.295632 6.30682,-0.197088 5.87979,-0.427024"
       id="path6" />
    <path
       style="fill:none"
       d="m 53.654481,120.64129 -0.650358,4.50604 -1.25426,4.73832 -1.718802,5.01704 4.036757,-6.17135 1.6424,-2.26652 1.740945,-2.3322 2.365056,-2.5293 2.759233,-1.83949 1.773792,-0.36133 c 0,0 0.788352,0.52557 0.952592,0.62411 0.16424,0.0985 0.591264,1.37962 0.591264,1.37962 l -0.0657,2.98917 -0.854048,3.77752 -1.97088,6.53675 -0.525568,1.28108 3.974608,-6.33967 2.003729,-2.89062 2.102272,-2.92348 2.759233,-1.47816 1.905184,0.19709 0.919744,2.39791 -0.919744,3.51473 c 0,0 -0.394176,2.10227 -0.427024,2.23367 -0.03285,0.13139 -0.295632,3.58043 -0.295632,3.58043 l 1.248224,1.47816 2.102272,-0.19709 1.609553,-0.65696 1.609552,-1.60955 1.872336,-2.43075 1.543857,-3.05487 3.251952,-6.60245 3.317649,-6.79953 -3.908913,8.60617 -1.14968,5.25568 0.919744,3.31765 2.496449,1.57671 3.251952,-0.98544 2.594993,-2.29936 4.040304,-4.86151 3.711832,-5.61701 0.85405,-2.85777 -3.02202,11.29971 -2.463606,7.78498 -3.646128,8.34339 -4.401633,6.86523 -1.970881,1.21538 -1.6424,0.72266 -2.069424,0.0328 -1.083984,-1.80664 -0.131393,-1.97088 0.952593,-2.52929 1.31392,-1.6424 2.759232,-2.33221 6.208274,-3.41619 3.744672,-2.03658 3.744678,-1.7081 2.89062,-2.03657 2.89063,-2.595 2.13512,-2.69353 1.60955,-3.61328"
       id="path7" />
    <path
       style="fill:none"
       d="m 147.16658,113.99835 3.48405,-6.13194 0.41809,-3.29824 -1.30072,-3.3447 -1.95107,-0.97553 -2.13689,-0.278726 -4.18086,1.254256 c 0,0 -3.29825,1.44008 -3.48406,1.53299 -0.18582,0.0929 -4.04151,3.57697 -4.04151,3.57697 l -5.1564,7.80428 -3.20534,7.75784 -0.27872,6.55002 1.62589,6.03904 4.50605,3.62342 5.38868,0.78972 6.17839,-1.30072 4.87768,-2.8337 4.04151,-3.99505 3.99505,-4.69186 2.8337,-4.97059 1.16135,-3.01952"
       id="path8" />
    <path
       style="fill:none"
       d="m 158.40847,129.97856 2.50852,-0.69681 2.60143,-0.88263 2.55497,-1.20781 2.92661,-2.60143 1.76526,-3.01951 0.0929,-1.76526 -0.83617,-0.97553 -1.7188,-0.37164 -1.62589,0.65036 -2.36916,1.30072 -2.97307,2.8337 -1.67234,2.74079 -1.02199,2.88015 -0.46454,3.25179 1.11489,2.74079 1.67235,1.20781 2.27625,0.51099 2.46207,-0.51099 1.95107,-0.88263 2.4013,-1.62143 2.13512,-2.25009 1.10041,-1.70809 1.36319,-2.29936 0.80477,-1.75737 1.00187,-2.28294 1.28107,-3.10413 0.91975,-2.61142 0.13139,-1.10041 -0.64054,0.22994 -0.45987,0.90332 0.24636,1.52743 1.18253,1.14968 2.03657,1.56028 1.11684,1.56028 0.26278,1.28107 -1.05114,2.79208 -1.52743,4.54945 0.21351,2.66069 2.28294,0.65696 2.4636,-0.44345 2.56214,-1.95445 2.64427,-2.75924 2.56214,-3.76109 2.75924,-9.52592 2.56214,-6.24113 4.9929,-9.7887 2.69353,-3.744674 -6.96377,12.810724 c 0,0 -3.74468,7.29226 -3.87607,7.62074 -0.13139,0.32848 -2.89062,12.02237 -2.89062,12.02237 l 0.65696,5.05859 2.10227,1.83949 1.89398,0.12442 2.29948,-0.20904 2.97306,-1.30072 2.43884,-1.88139 1.76526,-1.99752 2.90338,-4.08796 3.15888,-3.25179 2.18334,-3.48406 1.02199,-1.34717 -3.9486,5.71386 -1.57944,4.5525 -0.23227,4.18087 0.83617,1.06844 1.20781,0.78972 2.36916,-0.0929 1.69557,-0.8594 1.88139,-1.30071 1.69558,-1.95107 1.88139,-2.7408 3.18211,-7.89719 2.60142,-1.27749 2.99629,-2.76402 2.29948,-2.69434 3.06597,-3.94859 1.55621,-2.99629 1.09168,-2.92661 c 0,0 -0.11614,-1.95107 -0.34841,-1.99753 -0.23227,-0.0464 -1.69557,0.0465 -1.69557,0.0465 l -2.92661,2.36915 -1.88139,2.41562 -3.32147,6.0158 -2.78725,6.27131 -4.97059,12.77487 -1.64912,8.40819 -0.44131,3.71633 0.32518,2.5782 1.23103,0.88263 1.99753,-0.58067 1.37039,-2.16012 1.67235,-3.97183 0.78972,-2.62465 0.511,-2.8337 0.16259,-3.32147 -0.0929,-3.27501 -0.78972,-2.88016 -0.97554,-1.32394 -0.8594,-0.8594 2.2298,3.25179 0.83617,2.99629 1.09167,1.64912 1.81171,1.02199 1.57944,0.0464 1.57944,-0.69681 c 0,0 1.44008,-0.81295 1.50976,-0.90586 0.0697,-0.0929 0.92908,-1.39362 1.16135,-1.55621 0.23227,-0.16259 0.8594,-0.30195 1.76526,-1.50976 0.90585,-1.2078 1.2078,-1.60266 1.69557,-2.46206 0.48777,-0.8594 1.13813,-1.92785 1.23104,-2.02076 0.0929,-0.0929 0.20904,-0.48776 0.20904,-0.32517 0,0.16258 -3.85569,5.80676 -3.80924,6.36421 0.0465,0.55745 -0.46454,2.11366 -0.37163,2.69433 0.0929,0.58068 0,0.8594 0.13936,1.64912 0.13936,0.78972 0.27873,1.25427 0.65036,1.32395 0.37163,0.0697 1.57944,0.30195 1.57944,0.30195 0,0 0.23227,-0.11614 0.74326,-0.20905 0.511,-0.0929 1.34717,-0.3484 1.6259,-0.65035 0.27872,-0.30195 1.76525,-1.78849 1.88139,-1.78849 0.11613,0 1.25426,-1.53298 1.25426,-1.53298 l 1.63395,-2.4318 c 0,0 0.91974,-2.43076 1.11683,-2.595 0.19709,-0.16424 1.11683,-2.4636 1.60955,-2.79208 0.49272,-0.32848 2.13512,-2.23366 2.69354,-2.59499 0.55842,-0.36133 1.34677,-0.7555 1.77379,-0.98544 0.42703,-0.22994 1.67525,-0.29563 1.93804,-0.16424 0.26278,0.13139 1.34676,0.26278 1.34676,0.68981 0,0.42702 0.1314,0.85405 0.1314,1.34677 0,0.49272 -0.19709,2.75923 -0.49272,2.95632 -0.29564,0.19709 -0.9526,1.11683 -0.9526,1.11683 0,0 1.37962,-0.78835 1.37962,-2.06943 0,-1.28107 0.16424,-2.89062 0.16424,-2.89062 l -0.95259,-1.05114 -2.5293,-0.0657 -2.20082,1.47816 -3.12056,3.05486 -1.47816,3.38335 -1.14968,3.2848 0.32848,2.49645 1.24823,2.36505 1.83949,0.8869 2.98916,0.0657 2.26652,-1.01829 2.26651,-1.51101 2.23366,-2.26651 2.13512,-2.43076 1.87234,-3.2191 2.26651,-3.2848 2.595,-2.10227 2.79208,-1.41247 1.87233,-0.29563 1.24823,0.22994 1.05113,0.62411 0.59127,1.14968 0.32848,2.10227 -0.0328,0.55842 -0.45987,-2.89063 -0.9526,-1.31392 -1.90518,-0.42702 -2.49645,0.55841 -2.43075,1.31392 -3.02202,2.66069 -3.12056,5.25568 -0.59126,4.20455 0.49272,2.5293 1.54385,0.8212 1.93804,-0.42703 1.6424,-1.24822 2.06942,-2.00373 1.6424,-2.13512 2.5293,-2.36506 1.93803,-2.92347 -2.66069,4.43448 -0.55841,2.95632 0.39417,2.26651 1.34677,0.55842 1.44531,0.13139 2.06943,-1.11683 2.16797,-1.67525 1.41246,-1.54386 2.00373,-2.03657 1.5767,-3.94176 1.01829,-4.86151 2.92347,-7.62074 4.66442,-8.01491 3.08771,-5.58416 1.24823,-2.365056 -10.57706,19.446016 -2.29936,7.81783 -1.18253,8.67187 1.44531,2.82493 3.74468,1.05114 2.65719,-0.45956 2.90338,-1.4633 2.74997,-2.44593 2.85778,-3.38334 1.60955,-0.29563 0.62411,0.72265 h 1.87234 l 3.64613,-1.34677 0.85404,-0.59126 2.20082,-1.47816 2.03658,-1.97088 0.98544,-2.66069 -0.13139,-2.16797 -0.8869,-0.68981 -1.18253,-0.0657 -1.6424,0.45987 -1.34677,0.72266 -1.44531,0.7555 -1.74094,1.7081 -1.37962,2.10227 c 0,0 -1.01829,1.31392 -1.01829,1.51101 0,0.19709 -1.08398,2.29936 -1.08398,2.29936 l -0.52557,1.74094 -0.29563,2.4636 0.85405,2.16797 0.8212,0.95259 1.31392,0.78836 2.23366,0.26278 2.43075,-0.42702 2.5293,-1.21538 1.83949,-1.37962 1.93803,-1.67525 1.87234,-3.35049 1.60955,-2.69354 1.90518,-1.83949 3.08772,-4.27024 2.3322,-3.61328 1.93804,-3.05486 0.29563,-1.87234 -0.72266,-0.0985 -0.72265,0.95259 0.85404,4.79581 1.14968,5.6827 1.05114,5.35423 -0.59126,6.24112 -0.55842,0.78835 -1.08398,1.01829 -1.74095,1.08398 -1.70809,0.59127 -2.13512,-0.13139 -1.11684,-0.22994 -1.51101,-0.72266 -0.91974,-1.24822 c 0,0 -0.78835,-1.05114 -0.8869,-1.44531 -0.0985,-0.39418 -0.45987,-1.80664 -0.45987,-1.80664 l -0.39417,-2.00373 -0.0657,-1.47816 0.85405,-1.44531 1.08398,-0.52557 0.8212,0.32848 0.85405,0.78835 0.8212,0.95259 1.44531,1.67525 2.10228,1.34677 1.90518,0.72265 2.36506,0.55842 2.89062,-0.26278 2.29936,-0.78836 2.56215,-1.511 1.54385,-1.93804 1.44531,-2.49644 0.39418,-0.68981"
       id="path9" />
    <path
       style="fill:none"
       d="m 191.20824,115.09941 1.74095,0.22994 3.2191,0.26278 4.82866,0.1314 4.27024,-0.16424 3.31765,-0.22994 0.8212,-0.19709"
       id="path10" />
    <path
       style="fill:none"
       d="m 218.04506,112.86575 1.11684,-0.78835 -0.91975,-0.36133 -0.85405,0.49272 c 0,0 0.0985,1.18253 0.19709,1.05114"
       id="path11" />
    <path
       style="fill:none"
       d="m 241.82702,118.28567 1.14968,-0.32848 -0.91974,-0.59126 z"
       id="path12" />
    <path
       style="fill:none"
       d="m 280.949,115.09941 3.44904,0.45988 5.18998,0.29563 5.45277,-0.32848 4.27024,-0.32848"
       id="path13" />
  </g>
</svg>
